<svg width="66" height="66" viewBox="0 0 66 66" fill="none" xmlns="http://www.w3.org/2000/svg">
<path d="M42.4777 26.1712C42.7905 25.8645 43.1027 25.5585 43.4141 25.2532C49.0499 31.7494 49.7639 42.9736 42.3711 50.687C35.2302 58.1374 23.0869 58.4332 15.5655 51.2961C7.77519 43.9039 7.44655 31.8669 14.8822 24.1033C22.1444 16.5208 33.6027 16.5322 40.7968 22.6088C40.4706 22.9048 40.1467 23.1987 39.7977 23.5154C35.4039 20.1213 30.4252 18.8434 24.9201 20.0026C20.5364 20.9257 16.987 23.2535 14.3414 26.8702C8.96136 34.225 9.95596 44.1462 16.6609 50.4358C23.0355 56.4154 33.0879 56.6577 39.9514 51.0494C46.8312 45.4277 49.0615 34.3887 42.4777 26.1712Z" fill="white"/>
<path d="M37.5591 31.1084C37.8945 30.7701 38.2028 30.4591 38.5107 30.1487C42.0709 34.8353 41.7506 41.9549 36.9022 46.3904C32.0802 50.8018 24.6809 50.6443 20.0426 46.049C15.3885 41.4381 15.1659 34.0486 19.569 29.1587C23.9393 24.305 31.0587 23.8863 35.8747 27.5068C35.5383 27.8094 35.2058 28.1085 34.8643 28.4156C29.6188 24.8117 23.1142 26.5375 19.9146 30.8879C16.6846 35.2798 17.1813 41.3733 21.1011 45.1597C25.044 48.9684 31.137 49.2567 35.4379 45.8378C39.6222 42.5116 41.0529 36.2185 37.5591 31.1084Z" fill="white"/>
<path d="M29.1687 37.7976C28.8384 37.4755 28.5265 37.1713 28.1182 36.773C28.2949 36.6472 28.4689 36.5566 28.6013 36.4244C33.2856 31.7473 37.9643 27.0645 42.6522 22.3909C42.8971 22.1467 42.9851 21.9365 42.924 21.5776C42.8402 21.086 42.8646 20.5743 42.8614 20.071C42.8547 19.0309 42.8546 17.9906 42.8625 16.9504C42.8708 15.8451 43.2545 14.891 44.0413 14.1053C45.3573 12.7911 46.6697 11.4734 47.9879 10.1615C48.9964 9.1578 50.0872 9.45795 50.4465 10.8348C50.6847 11.7478 50.9268 12.66 51.1499 13.5768C51.3203 14.2771 51.7502 14.692 52.442 14.8649C53.3116 15.0822 54.1782 15.3116 55.046 15.5363C55.1678 15.5678 55.2903 15.5975 55.41 15.6358C56.4925 15.9822 56.7818 17.0239 56.0029 17.8586C55.3904 18.5151 54.7384 19.1348 54.1035 19.7704C53.3683 20.5063 52.6327 21.2416 51.8972 21.9773C51.1237 22.751 50.1812 23.1357 49.096 23.1477C47.725 23.1628 46.3536 23.1508 44.9824 23.1505C44.9194 23.1505 44.8485 23.1685 44.7945 23.1461C44.0676 22.8454 43.6625 23.306 43.2105 23.7598C38.6498 28.3377 34.0776 32.9041 29.5083 37.4733C29.3982 37.5833 29.2832 37.6884 29.1687 37.7976ZM54.9942 17.1008C54.957 17.0532 54.9199 17.0056 54.8827 16.9581C54.7664 16.9182 54.6519 16.8714 54.5333 16.8397C53.6983 16.6158 52.8623 16.3956 52.0269 16.1732C50.8571 15.8618 50.1244 15.1214 49.8308 13.944C49.6787 13.334 49.5162 12.7265 49.355 12.1188C49.2646 11.7782 49.1673 11.4395 49.0661 11.0746C48.9718 11.1371 48.9276 11.1569 48.8957 11.1889C47.5599 12.5265 46.2174 13.8575 44.8948 15.2081C44.4497 15.6628 44.2418 16.2438 44.2384 16.8824C44.2309 18.2529 44.2333 19.6235 44.2341 20.994C44.2345 21.614 44.3922 21.7723 45.018 21.7737C46.3413 21.7766 47.6646 21.7705 48.9878 21.7765C49.7691 21.7801 50.4272 21.5093 50.9781 20.9545C52.0771 19.8479 53.1784 18.7436 54.289 17.6488C54.4995 17.4412 54.7579 17.2822 54.9942 17.1008Z" fill="white"/>
<path d="M31.1915 32.3201C30.8391 32.6375 30.549 32.9259 30.2268 33.1725C30.1326 33.2446 29.9378 33.2348 29.8053 33.2004C26.9034 32.448 24.2658 34.5609 24.3522 37.576C24.4118 39.6555 26.1909 41.5207 28.2391 41.6511C30.5565 41.7984 32.5893 40.2864 32.885 38.1211C32.9699 37.499 32.8693 36.8436 32.7908 36.2113C32.7603 35.9654 32.7628 35.8089 32.9496 35.6386C33.2037 35.407 33.4291 35.144 33.6748 34.8863C34.7259 36.4599 34.6472 39.4969 32.6071 41.4518C30.4857 43.4845 27.1481 43.5835 24.9466 41.672C22.7275 39.7452 22.314 36.4875 23.9864 34.1071C25.6051 31.8033 28.7712 30.9695 31.1915 32.3201Z" fill="white"/>
<path d="M65 33C65 15.3269 50.6731 1 33 1C15.3269 1 1 15.3269 1 33C1 50.6731 15.3269 65 33 65V66C14.7746 66 0 51.2254 0 33C0 14.7746 14.7746 0 33 0C51.2254 0 66 14.7746 66 33C66 51.2254 51.2254 66 33 66V65C50.6731 65 65 50.6731 65 33Z" fill="white"/>
</svg>
