<svg data-v-0dd9719b="" version="1.0" xmlns="http://www.w3.org/2000/svg" xmlns:xlink="http://www.w3.org/1999/xlink" width="6800.000000000001" height="5000" viewBox="0 0 340.000000 250.000000" preserveAspectRatio="xMidYMid meet" color-interpolation-filters="sRGB" style="margin: auto;"> <rect x="0" y="0" width="100%" height="100%" fill="none"></rect>  <g data-v-0dd9719b="" fill="#333333" class="icon-text-wrapper icon-svg-group iconsvg" transform="translate(83.4800033569336,70.34016799926758)"><g class="iconsvg-imagesvg" transform="translate(56.519996643066406,0)" fill="#333333"><g fill="#333333"><rect fill="#333333" fill-opacity="0" stroke-width="2px" x="0" y="0" width="60.00000000000001" height="66.34966272254783" class="image-rect"></rect> <svg x="0" y="0" width="60.00000000000001" height="66.34966272254783" filtersec="colorsb9097364321" class="image-svg-svg primary" style="overflow: visible;" fill="#333333"><svg xmlns="http://www.w3.org/2000/svg" viewBox="0 0 90.43000030517578 100" fill="#333333"><g fill-rule="evenodd" fill="#333333"><path fill="#333333" d="M45.22 0l45.21 20.38v4.89L45.22 4.89 0 25.27v-4.89L45.22 0z"></path><path d="M43.63 60.66V48.34a1.71 1.71 0 0 1 1.47-.84c1.23 0 2.29 2.13 5.58 2.13a7.06 7.06 0 0 0 0-14.11c-3.29 0-4.35 2.13-5.58 2.13a1.71 1.71 0 0 1-1.47-.84V8.3L7.46 24.49v36.17h10.05a8.12 8.12 0 0 1-.94-3.88 9 9 0 0 1 18 0 8.12 8.12 0 0 1-.94 3.88z" fill="#F73550"></path><path d="M46.81 8.1v26.44a8.08 8.08 0 0 1 3.87-.94 9 9 0 1 1 0 17.95 8.08 8.08 0 0 1-3.87-.94v10h12.32a1.7 1.7 0 0 1 .87 1.52c0 1.23-2.13 2.29-2.13 5.58a7.06 7.06 0 0 0 14.11 0c0-3.29-2.12-4.35-2.12-5.58a1.7 1.7 0 0 1 .83-1.47H83V24.49L46.81 8.1z" fill="#FBB90E"></path><path d="M83 63.84H73a8.08 8.08 0 0 1 .94 3.87 9 9 0 1 1-18 0 8.09 8.09 0 0 1 1-3.87h-10v12.32a1.71 1.71 0 0 1-1.47.83c-1.24 0-2.3-2.13-5.59-2.13a7.06 7.06 0 0 0 0 14.11c3.29 0 4.35-2.12 5.59-2.12a1.71 1.71 0 0 1 1.47.83V100H83V63.84z" fill="#98CA33"></path><path d="M43.63 100V90a8.12 8.12 0 0 1-3.88.94 9 9 0 0 1 0-18 8.13 8.13 0 0 1 3.88 1v-10H31.31a1.72 1.72 0 0 1-.84-1.47c0-1.24 2.13-2.3 2.13-5.59a7.06 7.06 0 0 0-14.11 0c0 3.29 2.13 4.35 2.13 5.59a1.72 1.72 0 0 1-.84 1.47H7.46V100z" fill="#65A8DC"></path></g></svg></svg> <!----></g></g> <g transform="translate(0,73.34966278076172)" fill="#333333"><g data-gra="path-name" fill-rule="" class="tp-name iconsvg-namesvg" fill="#333333"><g transform="scale(1)" fill="#333333"><g fill="#333333"><path d="M25.73-18.36Q28.81-17.51 30.5-15.24 32.19-12.97 32.19-9.69L32.19-9.69Q32.19-5.15 28.93-2.57 25.68 0 19.98 0L19.98 0 6.96 0Q5.5 0 4.67-0.81 3.83-1.61 3.83-3.08L3.83-3.08 3.83-32.49Q3.83-33.95 4.67-34.76 5.5-35.57 6.96-35.57L6.96-35.57 19.47-35.57Q25.02-35.57 28.18-33.12 31.33-30.67 31.33-26.28L31.33-26.28Q31.33-23.46 29.84-21.39 28.35-19.32 25.73-18.36L25.73-18.36ZM10.19-30.52L10.19-20.58 18.41-20.58Q25.12-20.58 25.12-25.58L25.12-25.58Q25.12-28.1 23.46-29.31 21.79-30.52 18.41-30.52L18.41-30.52 10.19-30.52ZM19.27-5.04Q22.8-5.04 24.42-6.31 26.03-7.57 26.03-10.24L26.03-10.24Q26.03-12.91 24.39-14.23 22.75-15.54 19.27-15.54L19.27-15.54 10.19-15.54 10.19-5.04 19.27-5.04ZM57.21-25.17Q58.67-25.17 59.53-24.37 60.39-23.56 60.39-22.2L60.39-22.2 60.39-2.62Q60.39-1.31 59.5-0.5 58.62 0.3 57.21 0.3L57.21 0.3Q55.85 0.3 55.04-0.45 54.23-1.21 54.23-2.52L54.23-2.52 54.23-3.78Q53.07-1.77 51.1-0.68 49.14 0.4 46.66 0.4L46.66 0.4Q37.58 0.4 37.58-9.79L37.58-9.79 37.58-22.2Q37.58-23.56 38.44-24.37 39.3-25.17 40.71-25.17L40.71-25.17Q42.17-25.17 43.03-24.37 43.89-23.56 43.89-22.2L43.89-22.2 43.89-9.74Q43.89-7.11 44.95-5.85 46.01-4.59 48.28-4.59L48.28-4.59Q50.9-4.59 52.49-6.33 54.08-8.07 54.08-10.95L54.08-10.95 54.08-22.2Q54.08-23.56 54.94-24.37 55.8-25.17 57.21-25.17L57.21-25.17ZM75.87 0.4Q70.38 0.4 67-1.77L67-1.77Q65.38-2.72 65.38-4.49L65.38-4.49Q65.38-5.5 65.94-6.13 66.49-6.76 67.3-6.76L67.3-6.76Q68.16-6.76 69.67-5.95L69.67-5.95Q71.28-5.2 72.62-4.79 73.96-4.39 76.03-4.39L76.03-4.39Q78.14-4.39 79.33-5.1 80.52-5.8 80.52-7.06L80.52-7.06Q80.52-7.92 80.04-8.42 79.56-8.93 78.32-9.36 77.09-9.79 74.56-10.34L74.56-10.34Q70.07-11.25 68.13-12.91 66.19-14.58 66.19-17.51L66.19-17.51Q66.19-19.73 67.5-21.52 68.81-23.31 71.11-24.29 73.4-25.27 76.33-25.27L76.33-25.27Q78.45-25.27 80.41-24.74 82.38-24.22 83.95-23.21L83.95-23.21Q85.56-22.2 85.56-20.53L85.56-20.53Q85.56-19.52 85.01-18.84 84.45-18.16 83.64-18.16L83.64-18.16Q83.09-18.16 82.56-18.39 82.03-18.62 81.22-19.07L81.22-19.07Q79.76-19.83 78.7-20.2 77.64-20.58 76.08-20.58L76.08-20.58Q74.21-20.58 73.13-19.83 72.04-19.07 72.04-17.76L72.04-17.76Q72.04-16.5 73.15-15.84 74.26-15.18 77.44-14.53L77.44-14.53Q80.82-13.82 82.74-12.91 84.65-12.01 85.48-10.64 86.32-9.28 86.32-7.16L86.32-7.16Q86.32-3.73 83.47-1.66 80.62 0.4 75.87 0.4L75.87 0.4ZM105.18-25.17Q106.5-25.27 107.25-24.62 108.01-23.96 108.01-22.65L108.01-22.65Q108.01-21.29 107.35-20.63 106.7-19.98 104.98-19.78L104.98-19.78 103.47-19.62Q100.49-19.32 99.11-17.61 97.72-15.89 97.72-13.32L97.72-13.32 97.72-2.72Q97.72-1.26 96.81-0.48 95.9 0.3 94.54 0.3L94.54 0.3Q93.18 0.3 92.3-0.48 91.41-1.26 91.41-2.72L91.41-2.72 91.41-22.25Q91.41-23.66 92.3-24.42 93.18-25.17 94.49-25.17L94.49-25.17Q95.8-25.17 96.61-24.44 97.42-23.71 97.42-22.35L97.42-22.35 97.42-20.33Q98.37-22.55 100.27-23.76 102.16-24.97 104.48-25.12L104.48-25.12 105.18-25.17ZM121.48 0.4Q117.7 0.4 114.85-1.16 112-2.72 110.43-5.65 108.87-8.58 108.87-12.46L108.87-12.46Q108.87-16.35 110.43-19.25 112-22.15 114.85-23.71 117.7-25.27 121.48-25.27L121.48-25.27Q125.26-25.27 128.11-23.71 130.96-22.15 132.5-19.25 134.04-16.35 134.04-12.46L134.04-12.46Q134.04-8.58 132.5-5.65 130.96-2.72 128.11-1.16 125.26 0.4 121.48 0.4L121.48 0.4ZM121.43-4.49Q124.51-4.49 126.12-6.51 127.74-8.53 127.74-12.46L127.74-12.46Q127.74-16.35 126.12-18.39 124.51-20.43 121.48-20.43L121.48-20.43Q118.45-20.43 116.81-18.39 115.17-16.35 115.17-12.46L115.17-12.46Q115.17-8.53 116.79-6.51 118.4-4.49 121.43-4.49L121.43-4.49ZM168.55-25.27Q172.58-25.27 174.73-22.88 176.87-20.48 176.87-15.13L176.87-15.13 176.87-2.72Q176.87-1.26 175.99-0.48 175.11 0.3 173.69 0.3L173.69 0.3Q172.33 0.3 171.45-0.48 170.57-1.26 170.57-2.72L170.57-2.72 170.57-15.13Q170.57-17.91 169.58-19.09 168.6-20.28 166.58-20.28L166.58-20.28Q164.11-20.28 162.65-18.59 161.18-16.9 161.18-13.97L161.18-13.97 161.18-2.72Q161.18-1.26 160.3-0.48 159.42 0.3 158.05 0.3L158.05 0.3Q156.69 0.3 155.78-0.48 154.88-1.26 154.88-2.72L154.88-2.72 154.88-15.13Q154.88-17.91 153.89-19.09 152.91-20.28 150.89-20.28L150.89-20.28Q148.42-20.28 146.98-18.59 145.54-16.9 145.54-13.97L145.54-13.97 145.54-2.72Q145.54-1.26 144.64-0.48 143.73 0.3 142.37 0.3L142.37 0.3Q141 0.3 140.12-0.48 139.24-1.26 139.24-2.72L139.24-2.72 139.24-22.25Q139.24-23.66 140.15-24.42 141.05-25.17 142.42-25.17L142.42-25.17Q143.73-25.17 144.56-24.44 145.39-23.71 145.39-22.35L145.39-22.35 145.39-21.14Q146.55-23.16 148.49-24.22 150.44-25.27 152.96-25.27L152.96-25.27Q158.51-25.27 160.38-20.63L160.38-20.63Q161.49-22.75 163.65-24.01 165.82-25.27 168.55-25.27L168.55-25.27Z" transform="translate(-3.8299999237060547, 35.56999969482422)" fill="#333333"></path></g> <!----> <!----> <!----> <!----> <!----> <!----> <!----></g></g> <!----></g></g><defs v-gra="od"></defs></svg>