<svg width="345" height="90" viewBox="0 0 345 90" fill="none" xmlns="http://www.w3.org/2000/svg">
<g id="Group">
<g id="Group_2">
<g id="Group_3">
<g id="Frame" clip-path="url(#clip0_82_13128)">
<g id="Frame_2" clip-path="url(#clip1_82_13128)">
<g id="Group_4">
<path id="Vector" fill-rule="evenodd" clip-rule="evenodd" d="M61.2456 0L122.478 27.5911V34.2113L61.2456 6.62023L0 34.2113V27.5911L61.2456 0Z" fill="white"/>
<path id="Vector_2" fill-rule="evenodd" clip-rule="evenodd" d="M59.0899 82.1229V65.4437C59.2944 65.0977 59.5856 64.8109 59.9347 64.6115C60.2838 64.4121 60.6788 64.307 61.0808 64.3065C62.7467 64.3065 64.1824 67.1901 68.6383 67.1901C71.1103 67.0971 73.45 66.0501 75.1659 64.269C76.8819 62.488 77.8405 60.1115 77.8405 57.6389C77.8405 55.1662 76.8819 52.7897 75.1659 51.0087C73.45 49.2276 71.1103 48.1806 68.6383 48.0876C64.1824 48.0876 62.7467 50.9712 61.0808 50.9712C60.6788 50.9707 60.2838 50.8656 59.9347 50.6662C59.5856 50.4668 59.2944 50.18 59.0899 49.834V11.2363L10.1016 33.1548V82.1229H23.7132C22.8581 80.5051 22.4205 78.6996 22.4401 76.87C22.4401 73.6385 23.7243 70.5393 26.0103 68.2543C28.2963 65.9693 31.3967 64.6855 34.6296 64.6855C37.8624 64.6855 40.9629 65.9693 43.2489 68.2543C45.5349 70.5393 46.8191 73.6385 46.8191 76.87C46.8387 78.6996 46.4011 80.5051 45.546 82.1229H59.0899Z" fill="white"/>
<path id="Vector_3" fill-rule="evenodd" clip-rule="evenodd" d="M63.3984 10.9668V46.7621C65.012 45.9074 66.8139 45.4699 68.6399 45.4895C70.3125 45.3646 71.9929 45.5861 73.5759 46.1401C75.159 46.6941 76.6106 47.5688 77.8399 48.7093C79.0693 49.8498 80.05 51.2316 80.7206 52.7683C81.3912 54.305 81.7374 55.9635 81.7374 57.6401C81.7374 59.3166 81.3912 60.9752 80.7206 62.5119C80.05 64.0486 79.0693 65.4304 77.8399 66.5709C76.6106 67.7114 75.159 68.586 73.5759 69.1401C71.9929 69.6941 70.3125 69.9156 68.6399 69.7907C66.8139 69.8103 65.012 69.3728 63.3984 68.5181V82.0564H80.0845C80.4493 82.2603 80.7516 82.5595 80.9592 82.922C81.1668 83.2845 81.2717 83.6966 81.2629 84.1142C81.2629 85.7794 78.378 87.2145 78.378 91.6686C78.4711 94.1395 79.5185 96.4783 81.3003 98.1935C83.0821 99.9087 85.4595 100.867 87.9332 100.867C90.4069 100.867 92.7844 99.9087 94.5662 98.1935C96.3479 96.4783 97.3954 94.1395 97.4885 91.6686C97.4885 87.2145 94.6172 85.7794 94.6172 84.1142C94.6149 83.7134 94.7175 83.3189 94.9146 82.9698C95.1118 82.6208 95.3968 82.3292 95.7413 82.1241H112.414V33.1561L63.3984 10.9668Z" fill="white"/>
<path id="Vector_4" fill-rule="evenodd" clip-rule="evenodd" d="M112.416 86.4277H98.8721C99.7272 88.0406 100.165 89.8418 100.145 91.6671C100.145 94.8986 98.861 97.9977 96.575 100.283C94.2891 102.568 91.1886 103.852 87.9557 103.852C84.7229 103.852 81.6224 102.568 79.3364 100.283C77.0505 97.9977 75.7662 94.8986 75.7662 91.6671C75.7722 89.8349 76.2378 88.0334 77.1206 86.4277H63.5767V103.107C63.3705 103.45 63.0786 103.735 62.7296 103.931C62.3806 104.128 61.9865 104.231 61.5857 104.231C59.9063 104.231 58.4706 101.347 54.0147 101.347C51.5427 101.44 49.2031 102.487 47.4871 104.268C45.7712 106.049 44.8125 108.426 44.8125 110.898C44.8125 113.371 45.7712 115.747 47.4871 117.528C49.2031 119.309 51.5427 120.356 54.0147 120.449C58.4706 120.449 59.9063 117.579 61.5857 117.579C61.9865 117.578 62.3806 117.682 62.7296 117.878C63.0786 118.075 63.3705 118.36 63.5767 118.703V135.382H112.416V86.4277Z" fill="white"/>
<path id="Vector_5" fill-rule="evenodd" clip-rule="evenodd" d="M59.0899 135.382V121.844C57.4715 122.699 55.6652 123.136 53.8349 123.116C50.602 123.116 47.5015 121.833 45.2156 119.548C42.9296 117.263 41.6453 114.164 41.6453 110.932C41.6453 107.7 42.9296 104.601 45.2156 102.316C47.5015 100.031 50.602 98.7475 53.8349 98.7475C55.6721 98.7535 57.4786 99.2189 59.0899 100.101V86.5631H42.4038C42.0586 86.3576 41.7724 86.0663 41.573 85.7176C41.3737 85.3689 41.2679 84.9746 41.2661 84.5729C41.2661 82.8942 44.151 81.4591 44.151 77.005C44.0579 74.5341 43.0104 72.1954 41.2287 70.4801C39.4469 68.7649 37.0694 67.8066 34.5957 67.8066C32.122 67.8066 29.7446 68.7649 27.9628 70.4801C26.181 72.1954 25.1336 74.5341 25.0405 77.005C25.0405 81.4591 27.9254 82.8942 27.9254 84.5729C27.9235 84.9746 27.8178 85.3689 27.6184 85.7176C27.4191 86.0663 27.1329 86.3576 26.7877 86.5631H10.1016V135.382H59.0899Z" fill="white"/>
</g>
</g>
</g>
</g>
</g>
<g id="Group_5">
<g id="Group_6">
<g id="Group_7">
<g id="Group_8">
<path id="Vector_6" d="M140.11 46.2994C142.891 47.0666 145.045 48.4746 146.571 50.5234C148.097 52.5722 148.86 55.0768 148.86 58.0371C148.86 62.1347 147.388 65.3478 144.444 67.6764C141.51 69.996 137.469 71.1557 132.323 71.1557H114.688C113.37 71.1557 112.336 70.7902 111.587 70.0591C110.828 69.3371 110.449 68.3127 110.449 66.9859V27.1698C110.449 25.8521 110.828 24.8277 111.587 24.0966C112.336 23.3655 113.37 23 114.688 23H131.632C136.643 23 140.575 24.1056 143.429 26.3169C146.273 28.5281 147.695 31.6149 147.695 35.5771C147.695 38.1223 147.022 40.329 145.677 42.1973C144.332 44.0656 142.476 45.433 140.11 46.2994ZM119.063 29.8368V43.2939H130.196C136.255 43.2939 139.284 41.0375 139.284 36.5248C139.284 34.2503 138.535 32.5671 137.036 31.475C135.528 30.3829 133.248 29.8368 130.196 29.8368H119.063ZM131.361 64.3324C134.548 64.3324 136.873 63.7593 138.336 62.6131C139.79 61.4759 140.517 59.7023 140.517 57.2925C140.517 54.8827 139.776 53.0821 138.295 51.8907C136.815 50.7084 134.503 50.1172 131.361 50.1172H119.063V64.3324H131.361ZM182.747 37.0798C184.065 37.0798 185.112 37.4409 185.889 38.1629C186.665 38.894 187.054 39.8732 187.054 41.1007V67.6087C187.054 68.791 186.652 69.7478 185.848 70.4788C185.054 71.2009 184.02 71.5619 182.747 71.5619C181.519 71.5619 180.539 71.2234 179.808 70.5465C179.076 69.8606 178.711 68.9264 178.711 67.7441V66.0383C177.663 67.8524 176.25 69.2514 174.471 70.2351C172.702 71.2099 170.697 71.6973 168.458 71.6973C160.259 71.6973 156.16 67.0988 156.16 57.9017V41.1007C156.16 39.8732 156.548 38.894 157.325 38.1629C158.101 37.4409 159.126 37.0798 160.399 37.0798C161.717 37.0798 162.765 37.4409 163.541 38.1629C164.318 38.894 164.706 39.8732 164.706 41.1007V57.9694C164.706 60.3432 165.185 62.0986 166.142 63.2358C167.099 64.3731 168.602 64.9417 170.652 64.9417C173.018 64.9417 174.918 64.1564 176.354 62.586C177.79 61.0156 178.507 58.9307 178.507 56.3313V41.1007C178.507 39.8732 178.896 38.894 179.672 38.1629C180.449 37.4409 181.473 37.0798 182.747 37.0798ZM208.02 71.6973C203.062 71.6973 199.058 70.718 196.006 68.7595C194.543 67.902 193.812 66.6746 193.812 65.077C193.812 64.1655 194.065 63.4254 194.57 62.8568C195.067 62.2882 195.681 62.0038 196.412 62.0038C197.189 62.0038 198.259 62.3694 199.622 63.1004C201.076 63.7774 202.408 64.3008 203.618 64.6709C204.828 65.0319 206.367 65.2124 208.236 65.2124C210.141 65.2124 211.631 64.892 212.706 64.2512C213.78 63.6194 214.317 62.7349 214.317 61.5977C214.317 60.8215 214.101 60.2078 213.667 59.7565C213.234 59.2962 212.457 58.872 211.338 58.4839C210.227 58.0958 208.53 57.6535 206.245 57.1571C202.191 56.3358 199.288 55.176 197.537 53.6778C195.785 52.1705 194.909 50.0947 194.909 47.4502C194.909 45.4465 195.5 43.6369 196.683 42.0213C197.866 40.4057 199.496 39.1557 201.573 38.2712C203.64 37.3867 205.997 36.9445 208.643 36.9445C210.557 36.9445 212.399 37.1836 214.168 37.662C215.947 38.1313 217.545 38.8218 218.963 39.7333C220.417 40.6449 221.144 41.8543 221.144 43.3616C221.144 44.2732 220.895 45.0358 220.399 45.6496C219.893 46.2633 219.275 46.5702 218.543 46.5702C218.047 46.5702 217.559 46.4664 217.08 46.2588C216.602 46.0512 215.997 45.7443 215.266 45.3382C213.947 44.6523 212.81 44.1423 211.852 43.8084C210.895 43.4654 209.713 43.2939 208.304 43.2939C206.615 43.2939 205.284 43.6324 204.309 44.3093C203.324 44.9952 202.832 45.9294 202.832 47.1117C202.832 48.2489 203.333 49.1154 204.336 49.7111C205.338 50.3068 207.275 50.8979 210.146 51.4846C213.198 52.1254 215.591 52.8565 217.324 53.6778C219.049 54.4901 220.286 55.5145 221.035 56.751C221.794 57.9785 222.173 59.5489 222.173 61.4623C222.173 64.5581 220.886 67.0401 218.313 68.9084C215.74 70.7676 212.308 71.6973 208.02 71.6973ZM247.717 37.0798C248.909 36.9896 249.843 37.2378 250.52 37.8244C251.207 38.4201 251.55 39.3091 251.55 40.4915C251.55 41.719 251.252 42.6305 250.656 43.2262C250.069 43.8129 248.999 44.1965 247.446 44.377L245.401 44.5936C242.71 44.8644 240.742 45.7714 239.496 47.3148C238.241 48.8672 237.613 50.8032 237.613 53.1227V67.4733C237.613 68.791 237.202 69.8019 236.38 70.5059C235.559 71.2099 234.534 71.5619 233.306 71.5619C232.078 71.5619 231.067 71.2099 230.272 70.5059C229.469 69.8019 229.067 68.791 229.067 67.4733V41.033C229.067 39.7604 229.469 38.7811 230.272 38.0952C231.067 37.4183 232.055 37.0798 233.238 37.0798C234.421 37.0798 235.378 37.4093 236.11 38.0681C236.841 38.727 237.207 39.6702 237.207 40.8976V43.6324C238.064 41.6287 239.351 40.0808 241.067 38.9887C242.773 37.8966 244.674 37.2829 246.769 37.1475L247.717 37.0798ZM269.793 71.6973C266.38 71.6973 263.387 70.9933 260.814 69.5853C258.24 68.1773 256.245 66.1511 254.827 63.5066C253.419 60.8621 252.714 57.7889 252.714 54.287C252.714 50.7761 253.419 47.7119 254.827 45.0945C256.245 42.4771 258.24 40.4644 260.814 39.0564C263.387 37.6484 266.38 36.9445 269.793 36.9445C273.206 36.9445 276.2 37.6484 278.773 39.0564C281.346 40.4644 283.328 42.4771 284.719 45.0945C286.109 47.7119 286.804 50.7761 286.804 54.287C286.804 57.7889 286.109 60.8621 284.719 63.5066C283.328 66.1511 281.346 68.1773 278.773 69.5853C276.2 70.9933 273.206 71.6973 269.793 71.6973ZM269.726 65.077C272.507 65.077 274.624 64.1655 276.078 62.3423C277.54 60.5191 278.272 57.8341 278.272 54.287C278.272 50.7761 277.54 48.1 276.078 46.2588C274.624 44.4176 272.529 43.497 269.793 43.497C267.057 43.497 264.949 44.4176 263.468 46.2588C261.988 48.1 261.247 50.7761 261.247 54.287C261.247 57.8341 261.978 60.5191 263.441 62.3423C264.895 64.1655 266.99 65.077 269.726 65.077ZM333.545 36.9445C337.183 36.9445 339.973 38.023 341.915 40.1801C343.847 42.3462 344.813 45.8436 344.813 50.6723V67.4733C344.813 68.791 344.416 69.8019 343.621 70.5059C342.827 71.2099 341.788 71.5619 340.506 71.5619C339.278 71.5619 338.267 71.2099 337.472 70.5059C336.678 69.8019 336.28 68.791 336.28 67.4733V50.6723C336.28 48.1632 335.833 46.3761 334.94 45.3111C334.055 44.2371 332.7 43.7001 330.876 43.7001C328.646 43.7001 326.872 44.4627 325.554 45.988C324.226 47.5134 323.563 49.5982 323.563 52.2427V67.4733C323.563 68.791 323.165 69.8019 322.371 70.5059C321.576 71.2099 320.56 71.5619 319.323 71.5619C318.095 71.5619 317.071 71.2099 316.249 70.5059C315.436 69.8019 315.03 68.791 315.03 67.4733V50.6723C315.03 48.1632 314.583 46.3761 313.689 45.3111C312.804 44.2371 311.45 43.7001 309.626 43.7001C307.396 43.7001 305.63 44.4627 304.33 45.988C303.03 47.5134 302.38 49.5982 302.38 52.2427V67.4733C302.38 68.791 301.974 69.8019 301.161 70.5059C300.339 71.2099 299.315 71.5619 298.087 71.5619C296.85 71.5619 295.834 71.2099 295.039 70.5059C294.245 69.8019 293.847 68.791 293.847 67.4733V41.033C293.847 39.7604 294.258 38.7811 295.08 38.0952C295.892 37.4183 296.917 37.0798 298.154 37.0798C299.337 37.0798 300.303 37.4093 301.053 38.0681C301.802 38.727 302.177 39.6702 302.177 40.8976V42.5358C303.224 40.7126 304.624 39.3227 306.375 38.366C308.136 37.4183 310.154 36.9445 312.43 36.9445C317.441 36.9445 320.791 39.0384 322.479 43.2262C323.481 41.3128 324.958 39.7875 326.908 38.6503C328.867 37.5131 331.08 36.9445 333.545 36.9445Z" fill="white"/>
</g>
</g>
</g>
</g>
</g>
<defs>
<clipPath id="clip0_82_13128">
<rect width="81.2635" height="89.8262" fill="white"/>
</clipPath>
<clipPath id="clip1_82_13128">
<rect width="122.478" height="135.383" fill="white"/>
</clipPath>
</defs>
</svg>
