<svg width="1920" height="218" viewBox="0 0 1920 218" fill="none" xmlns="http://www.w3.org/2000/svg">
<path d="M1920 154.028V216.222L0 64.1035V1.91016L1920 154.028Z" fill="#EBE6D7"/>
<path d="M1920 93.5322L0 186.764V124.691L1920 31.46V93.5322Z" fill="#756F3F"/>
<path d="M1913.88 190.403C1914.55 190.854 1915.3 191.232 1916.12 191.537C1916.95 191.843 1917.72 192.025 1918.43 192.081C1919.04 192.13 1919.56 192.092 1920 191.974V194.51C1919.46 194.569 1918.88 194.577 1918.27 194.528C1917.4 194.46 1916.49 194.273 1915.52 193.967C1914.56 193.661 1913.66 193.224 1912.82 192.655L1913.88 190.403Z" fill="#756F3F"/>
<path d="M1901.32 177.402L1900.53 187.355C1900.44 188.498 1900.55 189.332 1900.86 189.858C1901.18 190.385 1901.79 190.683 1902.69 190.755C1903.32 190.805 1904.01 190.761 1904.77 190.622C1905.32 190.513 1905.9 190.311 1906.51 190.017L1907.47 177.89L1910.51 178.13L1909.28 193.629L1906.79 193.431L1906.54 192.408C1905.52 192.808 1904.67 193.07 1903.98 193.193C1903.3 193.306 1902.57 193.332 1901.8 193.271C1900.8 193.192 1899.96 192.932 1899.27 192.491C1898.6 192.041 1898.1 191.4 1897.78 190.57C1897.47 189.741 1897.36 188.714 1897.46 187.488L1898.28 177.161L1901.32 177.402Z" fill="#756F3F"/>
<path fill-rule="evenodd" clip-rule="evenodd" d="M1887.72 171.795C1890.27 171.997 1892.06 172.516 1893.1 173.35C1894.14 174.174 1894.59 175.464 1894.45 177.219C1894.35 178.537 1894.03 179.536 1893.51 180.216C1892.98 180.885 1892.17 181.333 1891.07 181.559C1893.5 182.421 1894.62 184.15 1894.42 186.746C1894.31 188.106 1893.96 189.181 1893.38 189.971C1892.8 190.761 1891.93 191.303 1890.77 191.598C1889.62 191.883 1888.12 191.952 1886.26 191.805L1880.65 191.36L1882.23 171.36L1887.72 171.795ZM1883.92 189.206L1886.74 189.43C1887.8 189.514 1888.66 189.477 1889.31 189.319C1889.96 189.151 1890.45 188.824 1890.78 188.339C1891.11 187.843 1891.31 187.148 1891.38 186.255C1891.47 185.113 1891.21 184.245 1890.6 183.653C1889.99 183.051 1889.01 182.697 1887.66 182.59L1884.47 182.337L1883.92 189.206ZM1884.66 179.938L1887.71 180.18C1888.95 180.278 1889.84 180.119 1890.38 179.702C1890.94 179.286 1891.26 178.527 1891.35 177.427C1891.43 176.368 1891.21 175.599 1890.7 175.119C1890.19 174.63 1889.3 174.333 1888.01 174.231L1885.13 174.003L1884.66 179.938Z" fill="#756F3F"/>
<path d="M1916.94 178.891C1917.81 178.636 1918.79 178.551 1919.87 178.637C1919.91 178.64 1919.96 178.644 1920 178.648V181.105C1919.86 181.086 1919.73 181.071 1919.6 181.061C1918.75 180.993 1918.08 181.097 1917.58 181.371C1917.09 181.635 1916.82 182.1 1916.77 182.765C1916.73 183.273 1916.84 183.669 1917.11 183.951C1917.38 184.234 1917.85 184.506 1918.51 184.768L1920 185.327V188.162C1919.97 188.149 1919.94 188.135 1919.9 188.122L1917.21 187.141C1916.15 186.733 1915.31 186.175 1914.67 185.467C1914.05 184.759 1913.79 183.819 1913.88 182.646C1913.96 181.617 1914.27 180.795 1914.81 180.18C1915.35 179.564 1916.06 179.135 1916.94 178.891Z" fill="#756F3F"/>
<path d="M1743.81 164.923L1744.06 165.946C1745.05 165.544 1745.88 165.285 1746.53 165.17C1747.19 165.044 1747.89 165.011 1748.64 165.07C1749.39 165.13 1750.08 165.31 1750.7 165.61C1751.22 165.862 1751.67 166.273 1752.05 166.843C1752.88 166.437 1753.71 166.147 1754.53 165.976C1755.51 165.761 1756.44 165.689 1757.3 165.757C1758.33 165.838 1759.19 166.105 1759.87 166.557C1760.56 166.998 1761.05 167.632 1761.35 168.46C1761.66 169.289 1761.77 170.317 1761.67 171.542L1760.85 181.869L1757.82 181.628L1758.61 171.659C1758.7 170.528 1758.59 169.699 1758.29 169.174C1757.99 168.649 1757.42 168.353 1756.55 168.284C1755.95 168.236 1755.29 168.289 1754.58 168.441C1754.02 168.554 1753.42 168.778 1752.78 169.113C1752.78 169.16 1752.79 169.207 1752.79 169.256C1752.84 169.824 1752.85 170.352 1752.81 170.84L1751.99 181.167L1748.95 180.926L1749.74 170.957C1749.83 169.826 1749.73 168.997 1749.42 168.472C1749.13 167.947 1748.56 167.65 1747.71 167.583C1747.1 167.535 1746.44 167.588 1745.72 167.739C1745.21 167.842 1744.66 168.036 1744.09 168.322L1743.13 180.465L1740.09 180.224L1741.32 164.726L1743.81 164.923Z" fill="#756F3F"/>
<path fill-rule="evenodd" clip-rule="evenodd" d="M1726.21 165.3C1727.37 164.055 1729.06 163.519 1731.26 163.693C1733.46 163.868 1735.04 164.662 1735.99 166.075C1736.95 167.488 1737.32 169.518 1737.11 172.166C1736.9 174.804 1736.21 176.75 1735.05 178.006C1733.88 179.251 1732.2 179.787 1730 179.612C1727.8 179.438 1726.22 178.644 1725.26 177.231C1724.31 175.808 1723.94 173.777 1724.15 171.14C1724.36 168.492 1725.05 166.545 1726.21 165.3ZM1731.06 166.186C1729.78 166.084 1728.85 166.47 1728.27 167.344C1727.69 168.217 1727.33 169.563 1727.19 171.38C1727.04 173.187 1727.18 174.567 1727.61 175.521C1728.05 176.475 1728.91 177.002 1730.2 177.104C1731.47 177.206 1732.4 176.82 1732.98 175.946C1733.56 175.073 1733.93 173.733 1734.07 171.926C1734.21 170.109 1734.07 168.723 1733.63 167.769C1733.2 166.815 1732.34 166.287 1731.06 166.186Z" fill="#756F3F"/>
<path d="M1717.3 162.822L1717.57 164.38C1718.01 164.112 1718.54 163.861 1719.16 163.629C1719.79 163.396 1720.43 163.207 1721.09 163.061C1721.76 162.915 1722.37 162.853 1722.92 162.876L1722.68 165.945C1721.92 165.885 1721.17 165.904 1720.42 166.001C1719.68 166.089 1719.01 166.234 1718.41 166.438C1718.07 166.545 1717.78 166.664 1717.53 166.794L1716.62 178.364L1713.58 178.124L1714.81 162.625L1717.3 162.822Z" fill="#756F3F"/>
<path d="M1703.6 161.988C1704.48 161.734 1705.46 161.65 1706.54 161.735C1707.29 161.795 1708.06 161.939 1708.86 162.169C1709.66 162.4 1710.4 162.71 1711.07 163.098L1710 165.301C1709.41 164.993 1708.78 164.74 1708.12 164.541C1707.46 164.332 1706.84 164.204 1706.27 164.159C1705.42 164.092 1704.75 164.195 1704.25 164.47C1703.76 164.734 1703.49 165.198 1703.44 165.862C1703.4 166.371 1703.51 166.767 1703.78 167.05C1704.05 167.332 1704.52 167.604 1705.18 167.865L1707.61 168.779C1708.32 169.045 1708.94 169.381 1709.46 169.788C1709.98 170.195 1710.37 170.696 1710.62 171.291C1710.89 171.876 1710.99 172.579 1710.93 173.399C1710.84 174.469 1710.53 175.332 1710 175.99C1709.47 176.638 1708.77 177.095 1707.9 177.36C1707.04 177.626 1706.05 177.715 1704.94 177.627C1704.07 177.559 1703.16 177.371 1702.19 177.064C1701.23 176.759 1700.33 176.321 1699.49 175.753L1700.54 173.502C1701.22 173.952 1701.97 174.33 1702.79 174.636C1703.62 174.942 1704.39 175.123 1705.1 175.179C1705.96 175.247 1706.65 175.15 1707.16 174.888C1707.68 174.616 1707.97 174.085 1708.04 173.296C1708.08 172.808 1707.99 172.399 1707.77 172.068C1707.57 171.739 1707.17 171.456 1706.57 171.221L1703.88 170.238C1702.82 169.831 1701.98 169.273 1701.34 168.564C1700.72 167.857 1700.45 166.916 1700.55 165.743C1700.63 164.715 1700.94 163.893 1701.48 163.277C1702.02 162.662 1702.73 162.232 1703.6 161.988Z" fill="#756F3F"/>
<path d="M1687.99 160.5L1687.2 170.453C1687.11 171.595 1687.22 172.43 1687.53 172.956C1687.84 173.482 1688.45 173.782 1689.36 173.854C1689.99 173.904 1690.68 173.86 1691.44 173.721C1691.99 173.612 1692.57 173.408 1693.18 173.114L1694.14 160.987L1697.17 161.229L1695.95 176.727L1693.46 176.529L1693.21 175.506C1692.19 175.906 1691.34 176.168 1690.65 176.291C1689.96 176.404 1689.24 176.43 1688.47 176.369C1687.47 176.29 1686.63 176.03 1685.94 175.589C1685.27 175.138 1684.77 174.498 1684.45 173.668C1684.14 172.839 1684.03 171.812 1684.13 170.587L1684.95 160.26L1687.99 160.5Z" fill="#756F3F"/>
<path fill-rule="evenodd" clip-rule="evenodd" d="M1674.39 154.893C1676.94 155.095 1678.73 155.613 1679.76 156.447C1680.81 157.272 1681.26 158.562 1681.12 160.316C1681.01 161.635 1680.7 162.635 1680.18 163.314C1679.65 163.983 1678.84 164.43 1677.73 164.656C1680.17 165.518 1681.29 167.248 1681.08 169.844C1680.98 171.204 1680.63 172.279 1680.05 173.068C1679.47 173.859 1678.6 174.402 1677.44 174.696C1676.29 174.981 1674.78 175.05 1672.93 174.902L1667.32 174.458L1668.9 154.459L1674.39 154.893ZM1670.59 172.304L1673.41 172.527C1674.47 172.611 1675.33 172.574 1675.98 172.417C1676.63 172.249 1677.12 171.922 1677.45 171.437C1677.78 170.94 1677.98 170.245 1678.05 169.353C1678.14 168.21 1677.88 167.344 1677.27 166.752C1676.66 166.15 1675.68 165.794 1674.33 165.688L1671.14 165.435L1670.59 172.304ZM1671.33 163.036L1674.38 163.278C1675.62 163.376 1676.51 163.216 1677.05 162.8C1677.61 162.384 1677.93 161.626 1678.01 160.525C1678.1 159.466 1677.88 158.697 1677.37 158.217C1676.86 157.728 1675.97 157.432 1674.68 157.33L1671.8 157.102L1671.33 163.036Z" fill="#756F3F"/>
<path d="M1530.48 148.021L1530.73 149.044C1531.72 148.642 1532.55 148.384 1533.2 148.269C1533.86 148.143 1534.56 148.11 1535.31 148.169C1536.06 148.228 1536.74 148.408 1537.37 148.708C1537.89 148.959 1538.34 149.371 1538.72 149.94C1539.55 149.535 1540.37 149.246 1541.19 149.074C1542.18 148.86 1543.11 148.787 1543.97 148.855C1545 148.937 1545.85 149.203 1546.54 149.654C1547.23 150.095 1547.72 150.73 1548.02 151.559C1548.33 152.388 1548.44 153.415 1548.34 154.64L1547.52 164.967L1544.48 164.727L1545.27 154.758C1545.36 153.626 1545.26 152.797 1544.95 152.271C1544.66 151.747 1544.08 151.45 1543.22 151.382C1542.62 151.334 1541.96 151.387 1541.25 151.539C1540.69 151.651 1540.09 151.876 1539.45 152.211C1539.45 152.258 1539.46 152.305 1539.46 152.354C1539.51 152.922 1539.52 153.45 1539.48 153.938L1538.66 164.265L1535.62 164.024L1536.41 154.056C1536.5 152.924 1536.39 152.095 1536.09 151.569C1535.8 151.045 1535.23 150.748 1534.38 150.681C1533.77 150.633 1533.11 150.685 1532.39 150.837C1531.88 150.939 1531.33 151.134 1530.76 151.42L1529.8 163.562L1526.76 163.322L1527.99 147.823L1530.48 148.021Z" fill="#756F3F"/>
<path fill-rule="evenodd" clip-rule="evenodd" d="M1512.88 148.397C1514.04 147.152 1515.73 146.618 1517.93 146.792C1520.13 146.966 1521.71 147.76 1522.66 149.173C1523.61 150.586 1523.99 152.617 1523.78 155.265C1523.57 157.902 1522.88 159.849 1521.71 161.104C1520.55 162.35 1518.87 162.885 1516.67 162.711C1514.46 162.537 1512.89 161.742 1511.93 160.329C1510.98 158.906 1510.61 156.875 1510.82 154.237C1511.03 151.59 1511.71 149.643 1512.88 148.397ZM1517.73 149.284C1516.45 149.183 1515.52 149.569 1514.94 150.442C1514.36 151.316 1514 152.661 1513.85 154.479C1513.71 156.285 1513.85 157.665 1514.28 158.618C1514.71 159.572 1515.58 160.101 1516.86 160.203C1518.14 160.304 1519.07 159.917 1519.65 159.044C1520.23 158.17 1520.6 156.83 1520.74 155.023C1520.88 153.207 1520.74 151.821 1520.3 150.867C1519.86 149.913 1519.01 149.385 1517.73 149.284Z" fill="#756F3F"/>
<path d="M1503.97 145.921L1504.24 147.479C1504.68 147.21 1505.21 146.959 1505.83 146.727C1506.46 146.494 1507.1 146.304 1507.76 146.158C1508.43 146.013 1509.04 145.952 1509.59 145.975L1509.35 149.043C1508.59 148.983 1507.84 149.001 1507.09 149.099C1506.35 149.186 1505.68 149.332 1505.08 149.535C1504.74 149.643 1504.45 149.762 1504.2 149.893L1503.29 161.462L1500.25 161.222L1501.48 145.724L1503.97 145.921Z" fill="#756F3F"/>
<path d="M1490.27 145.087C1491.15 144.832 1492.13 144.747 1493.21 144.833C1493.96 144.892 1494.73 145.037 1495.52 145.268C1496.33 145.499 1497.07 145.808 1497.74 146.195L1496.67 148.399C1496.08 148.091 1495.45 147.837 1494.79 147.639C1494.13 147.429 1493.51 147.302 1492.94 147.257C1492.09 147.189 1491.41 147.293 1490.92 147.567C1490.43 147.832 1490.16 148.296 1490.11 148.961C1490.07 149.469 1490.18 149.865 1490.45 150.147C1490.72 150.43 1491.19 150.702 1491.84 150.963L1494.28 151.877C1494.99 152.142 1495.61 152.479 1496.13 152.886C1496.65 153.293 1497.04 153.794 1497.29 154.389C1497.56 154.974 1497.66 155.677 1497.6 156.497C1497.51 157.567 1497.2 158.431 1496.67 159.089C1496.14 159.736 1495.44 160.192 1494.57 160.458C1493.7 160.724 1492.71 160.813 1491.6 160.725C1490.74 160.656 1489.83 160.469 1488.86 160.162C1487.9 159.856 1487 159.42 1486.16 158.852L1487.21 156.6C1487.89 157.05 1488.64 157.428 1489.46 157.733C1490.29 158.04 1491.06 158.221 1491.77 158.277C1492.63 158.346 1493.32 158.248 1493.83 157.985C1494.35 157.713 1494.64 157.183 1494.71 156.394C1494.74 155.906 1494.66 155.496 1494.44 155.166C1494.24 154.836 1493.84 154.554 1493.24 154.318L1490.54 153.337C1489.49 152.929 1488.65 152.371 1488.01 151.663C1487.39 150.955 1487.12 150.014 1487.22 148.841C1487.3 147.813 1487.61 146.991 1488.15 146.376C1488.69 145.76 1489.4 145.331 1490.27 145.087Z" fill="#756F3F"/>
<path d="M1474.65 143.599L1473.87 153.552C1473.77 154.694 1473.89 155.528 1474.2 156.055C1474.51 156.581 1475.12 156.88 1476.03 156.951C1476.66 157.001 1477.35 156.957 1478.1 156.818C1478.66 156.709 1479.23 156.507 1479.84 156.213L1480.81 144.086L1483.84 144.326L1482.62 159.824L1480.12 159.627L1479.88 158.604C1478.86 159.005 1478.01 159.267 1477.32 159.39C1476.63 159.502 1475.9 159.528 1475.14 159.467C1474.14 159.388 1473.3 159.128 1472.61 158.688C1471.94 158.237 1471.44 157.596 1471.12 156.767C1470.81 155.937 1470.7 154.91 1470.8 153.685L1471.62 143.357L1474.65 143.599Z" fill="#756F3F"/>
<path fill-rule="evenodd" clip-rule="evenodd" d="M1461.05 137.991C1463.61 138.194 1465.4 138.712 1466.43 139.546C1467.47 140.37 1467.93 141.66 1467.79 143.415C1467.68 144.734 1467.37 145.733 1466.84 146.412C1466.32 147.081 1465.51 147.529 1464.4 147.755C1466.84 148.617 1467.96 150.346 1467.75 152.941C1467.65 154.302 1467.3 155.377 1466.71 156.167C1466.14 156.957 1465.27 157.499 1464.11 157.794C1462.96 158.079 1461.45 158.148 1459.59 158.001L1453.99 157.557L1455.57 137.557L1461.05 137.991ZM1457.26 155.401L1460.08 155.625C1461.14 155.709 1461.99 155.672 1462.64 155.515C1463.29 155.347 1463.79 155.02 1464.12 154.534C1464.45 154.038 1464.65 153.344 1464.72 152.451C1464.81 151.309 1464.55 150.441 1463.94 149.85C1463.33 149.248 1462.35 148.893 1461 148.786L1457.8 148.532L1457.26 155.401ZM1457.99 146.134L1461.05 146.376C1462.28 146.474 1463.17 146.315 1463.72 145.898C1464.27 145.483 1464.6 144.724 1464.68 143.623C1464.77 142.564 1464.55 141.794 1464.04 141.314C1463.53 140.825 1462.63 140.53 1461.35 140.428L1458.46 140.199L1457.99 146.134Z" fill="#756F3F"/>
<path d="M1317.15 131.119L1317.4 132.142C1318.39 131.74 1319.21 131.481 1319.87 131.366C1320.53 131.241 1321.23 131.207 1321.98 131.267C1322.73 131.326 1323.41 131.506 1324.04 131.806C1324.56 132.057 1325.01 132.469 1325.39 133.038C1326.22 132.633 1327.04 132.343 1327.86 132.172C1328.85 131.958 1329.78 131.885 1330.64 131.953C1331.67 132.035 1332.52 132.301 1333.21 132.752C1333.9 133.193 1334.39 133.828 1334.69 134.656C1335 135.485 1335.11 136.513 1335.01 137.738L1334.19 148.065L1331.15 147.824L1331.94 137.855C1332.03 136.724 1331.93 135.895 1331.62 135.369C1331.33 134.845 1330.75 134.548 1329.89 134.479C1329.29 134.432 1328.63 134.484 1327.92 134.637C1327.36 134.749 1326.76 134.974 1326.12 135.31C1326.12 135.356 1326.13 135.403 1326.13 135.451C1326.18 136.019 1326.18 136.548 1326.15 137.036L1325.33 147.363L1322.29 147.122L1323.08 137.153C1323.17 136.022 1323.06 135.193 1322.76 134.667C1322.47 134.142 1321.89 133.847 1321.04 133.779C1320.44 133.732 1319.78 133.783 1319.06 133.935C1318.54 134.037 1318 134.232 1317.43 134.519L1316.46 146.661L1313.43 146.42L1314.66 130.922L1317.15 131.119Z" fill="#756F3F"/>
<path fill-rule="evenodd" clip-rule="evenodd" d="M1299.55 131.496C1300.71 130.251 1302.39 129.715 1304.6 129.89C1306.8 130.064 1308.38 130.857 1309.33 132.271C1310.28 133.684 1310.65 135.714 1310.44 138.362C1310.24 141 1309.55 142.947 1308.38 144.202C1307.22 145.447 1305.54 145.983 1303.33 145.809C1301.13 145.634 1299.56 144.841 1298.6 143.428C1297.65 142.004 1297.28 139.973 1297.49 137.336C1297.7 134.688 1298.38 132.741 1299.55 131.496ZM1304.4 132.382C1303.12 132.281 1302.19 132.667 1301.61 133.54C1301.03 134.414 1300.67 135.759 1300.52 137.576C1300.38 139.383 1300.52 140.764 1300.95 141.717C1301.38 142.671 1302.25 143.199 1303.53 143.301C1304.81 143.402 1305.74 143.016 1306.32 142.143C1306.9 141.269 1307.26 139.929 1307.41 138.122C1307.55 136.305 1307.41 134.919 1306.97 133.965C1306.53 133.011 1305.68 132.483 1304.4 132.382Z" fill="#756F3F"/>
<path d="M1290.64 129.019L1290.91 130.576C1291.34 130.308 1291.88 130.058 1292.5 129.825C1293.13 129.593 1293.77 129.403 1294.43 129.257C1295.1 129.111 1295.71 129.049 1296.26 129.072L1296.02 132.141C1295.26 132.081 1294.5 132.1 1293.75 132.197C1293.02 132.285 1292.35 132.43 1291.75 132.633C1291.41 132.74 1291.12 132.86 1290.87 132.99L1289.95 144.561L1286.92 144.319L1288.14 128.821L1290.64 129.019Z" fill="#756F3F"/>
<path d="M1276.94 128.185C1277.82 127.93 1278.8 127.846 1279.88 127.932C1280.62 127.991 1281.4 128.135 1282.19 128.365C1283 128.596 1283.74 128.906 1284.41 129.293L1283.34 131.497C1282.75 131.189 1282.12 130.935 1281.46 130.736C1280.79 130.527 1280.18 130.4 1279.61 130.354C1278.75 130.287 1278.08 130.391 1277.59 130.665C1277.1 130.929 1276.83 131.394 1276.78 132.059C1276.74 132.567 1276.85 132.963 1277.12 133.246C1277.39 133.529 1277.85 133.8 1278.51 134.062L1280.95 134.976C1281.66 135.241 1282.27 135.577 1282.8 135.983C1283.32 136.39 1283.71 136.892 1283.96 137.487C1284.23 138.073 1284.33 138.776 1284.27 139.596C1284.18 140.665 1283.87 141.529 1283.34 142.187C1282.81 142.834 1282.11 143.291 1281.24 143.557C1280.37 143.822 1279.38 143.911 1278.27 143.823C1277.41 143.755 1276.5 143.567 1275.53 143.261C1274.57 142.955 1273.67 142.518 1272.83 141.949L1273.88 139.697C1274.56 140.148 1275.3 140.527 1276.13 140.832C1276.96 141.138 1277.73 141.319 1278.43 141.375C1279.3 141.443 1279.98 141.346 1280.5 141.084C1281.02 140.812 1281.31 140.281 1281.37 139.492C1281.41 139.004 1281.33 138.594 1281.11 138.264C1280.91 137.934 1280.51 137.651 1279.91 137.416L1277.21 136.435C1276.16 136.027 1275.31 135.469 1274.68 134.761C1274.06 134.053 1273.79 133.113 1273.88 131.939C1273.97 130.911 1274.28 130.089 1274.82 129.474C1275.36 128.858 1276.06 128.429 1276.94 128.185Z" fill="#756F3F"/>
<path d="M1261.32 126.696L1260.53 136.649C1260.44 137.792 1260.55 138.626 1260.87 139.152C1261.18 139.679 1261.79 139.978 1262.69 140.05C1263.33 140.1 1264.02 140.055 1264.77 139.916C1265.32 139.807 1265.9 139.605 1266.51 139.311L1267.47 127.184L1270.51 127.425L1269.28 142.923L1266.79 142.726L1266.54 141.702C1265.53 142.102 1264.68 142.364 1263.99 142.487C1263.3 142.6 1262.57 142.626 1261.8 142.565C1260.81 142.486 1259.97 142.226 1259.28 141.785C1258.61 141.335 1258.11 140.694 1257.79 139.864C1257.48 139.035 1257.37 138.008 1257.47 136.782L1258.29 126.456L1261.32 126.696Z" fill="#756F3F"/>
<path fill-rule="evenodd" clip-rule="evenodd" d="M1247.72 121.089C1250.28 121.291 1252.07 121.81 1253.1 122.644C1254.14 123.468 1254.6 124.758 1254.46 126.513C1254.35 127.831 1254.04 128.83 1253.51 129.51C1252.99 130.179 1252.18 130.627 1251.07 130.853C1253.51 131.715 1254.63 133.444 1254.42 136.04C1254.31 137.4 1253.97 138.475 1253.38 139.265C1252.81 140.055 1251.94 140.598 1250.78 140.893C1249.63 141.178 1248.12 141.246 1246.26 141.099L1240.66 140.654L1242.24 120.654L1247.72 121.089ZM1243.93 138.5L1246.75 138.724C1247.81 138.808 1248.66 138.771 1249.31 138.613C1249.96 138.445 1250.45 138.119 1250.79 137.633C1251.12 137.137 1251.32 136.442 1251.39 135.549C1251.48 134.407 1251.22 133.539 1250.61 132.947C1250 132.345 1249.02 131.991 1247.67 131.884L1244.47 131.631L1243.93 138.5ZM1244.66 129.231L1247.72 129.474C1248.95 129.571 1249.84 129.413 1250.39 128.996C1250.94 128.58 1251.26 127.822 1251.35 126.722C1251.44 125.663 1251.22 124.893 1250.7 124.413C1250.2 123.924 1249.3 123.628 1248.02 123.526L1245.13 123.298L1244.66 129.231Z" fill="#756F3F"/>
<path d="M1103.82 114.217L1104.06 115.24C1105.06 114.838 1105.88 114.58 1106.54 114.465C1107.2 114.339 1107.9 114.306 1108.65 114.365C1109.4 114.424 1110.08 114.604 1110.71 114.904C1111.23 115.156 1111.68 115.567 1112.06 116.137C1112.89 115.731 1113.71 115.442 1114.53 115.271C1115.52 115.056 1116.45 114.983 1117.31 115.051C1118.34 115.132 1119.19 115.399 1119.88 115.851C1120.56 116.291 1121.06 116.926 1121.36 117.754C1121.67 118.583 1121.77 119.611 1121.68 120.836L1120.86 131.163L1117.82 130.923L1118.61 120.954C1118.7 119.822 1118.59 118.993 1118.29 118.468C1118 117.943 1117.42 117.646 1116.56 117.578C1115.96 117.53 1115.3 117.583 1114.59 117.735C1114.02 117.848 1113.42 118.072 1112.79 118.407C1112.79 118.454 1112.8 118.501 1112.8 118.55C1112.85 119.118 1112.85 119.646 1112.81 120.134L1112 130.461L1108.96 130.221L1109.75 120.252C1109.84 119.12 1109.73 118.291 1109.43 117.766C1109.13 117.241 1108.56 116.944 1107.71 116.877C1107.11 116.829 1106.45 116.882 1105.72 117.033C1105.21 117.135 1104.67 117.33 1104.09 117.616L1103.13 129.759L1100.1 129.519L1101.32 114.02L1103.82 114.217Z" fill="#756F3F"/>
<path fill-rule="evenodd" clip-rule="evenodd" d="M1086.22 114.594C1087.38 113.349 1089.06 112.813 1091.26 112.987C1093.47 113.162 1095.04 113.956 1096 115.369C1096.95 116.782 1097.32 118.813 1097.11 121.461C1096.9 124.098 1096.22 126.045 1095.05 127.301C1093.89 128.546 1092.2 129.081 1090 128.906C1087.8 128.732 1086.22 127.938 1085.27 126.525C1084.32 125.102 1083.95 123.071 1084.15 120.434C1084.36 117.786 1085.05 115.839 1086.22 114.594ZM1091.07 115.479C1089.79 115.378 1088.86 115.765 1088.28 116.639C1087.7 117.512 1087.34 118.858 1087.19 120.675C1087.05 122.481 1087.19 123.861 1087.62 124.814C1088.05 125.769 1088.91 126.296 1090.2 126.398C1091.48 126.5 1092.41 126.114 1092.99 125.24C1093.57 124.367 1093.93 123.027 1094.08 121.22C1094.22 119.403 1094.07 118.017 1093.64 117.062C1093.2 116.108 1092.34 115.581 1091.07 115.479Z" fill="#756F3F"/>
<path d="M1077.3 112.117L1077.57 113.674C1078.01 113.406 1078.54 113.155 1079.17 112.923C1079.79 112.69 1080.44 112.501 1081.09 112.354C1081.76 112.209 1082.38 112.148 1082.93 112.171L1082.68 115.239C1081.93 115.179 1081.17 115.198 1080.42 115.295C1079.68 115.383 1079.02 115.528 1078.41 115.731C1078.08 115.839 1077.79 115.957 1077.54 116.088L1076.62 127.658L1073.58 127.418L1074.81 111.919L1077.3 112.117Z" fill="#756F3F"/>
<path d="M1063.61 111.282C1064.49 111.028 1065.46 110.944 1066.54 111.029C1067.29 111.089 1068.06 111.234 1068.86 111.464C1069.67 111.695 1070.41 112.004 1071.08 112.392L1070.01 114.595C1069.42 114.287 1068.79 114.034 1068.12 113.835C1067.46 113.626 1066.85 113.498 1066.27 113.453C1065.42 113.386 1064.75 113.489 1064.26 113.764C1063.77 114.028 1063.5 114.492 1063.44 115.156C1063.4 115.665 1063.52 116.061 1063.79 116.344C1064.06 116.626 1064.52 116.898 1065.18 117.159L1067.62 118.073C1068.33 118.338 1068.94 118.675 1069.46 119.082C1069.99 119.489 1070.37 119.99 1070.63 120.585C1070.9 121.17 1071 121.873 1070.93 122.693C1070.85 123.763 1070.54 124.627 1070.01 125.285C1069.48 125.932 1068.78 126.389 1067.91 126.654C1067.04 126.92 1066.05 127.009 1064.94 126.921C1064.08 126.853 1063.16 126.665 1062.2 126.358C1061.24 126.053 1060.34 125.616 1059.49 125.048L1060.55 122.796C1061.22 123.246 1061.97 123.624 1062.8 123.93C1063.63 124.236 1064.4 124.417 1065.1 124.473C1065.97 124.541 1066.65 124.444 1067.16 124.182C1067.69 123.91 1067.98 123.379 1068.04 122.59C1068.08 122.102 1067.99 121.693 1067.78 121.362C1067.58 121.033 1067.17 120.75 1066.58 120.515L1063.88 119.533C1062.83 119.126 1061.98 118.568 1061.35 117.859C1060.73 117.152 1060.46 116.211 1060.55 115.037C1060.64 114.009 1060.95 113.188 1061.49 112.572C1062.03 111.957 1062.73 111.526 1063.61 111.282Z" fill="#756F3F"/>
<path d="M1047.99 109.794L1047.2 119.747C1047.11 120.889 1047.22 121.725 1047.54 122.251C1047.85 122.777 1048.46 123.076 1049.36 123.147C1050 123.198 1050.69 123.153 1051.44 123.015C1051.99 122.906 1052.57 122.703 1053.18 122.409L1054.14 110.282L1057.18 110.522L1055.95 126.021L1053.46 125.823L1053.21 124.801C1052.2 125.201 1051.35 125.463 1050.66 125.586C1049.97 125.699 1049.24 125.724 1048.47 125.663C1047.48 125.584 1046.64 125.325 1045.95 124.884C1045.27 124.433 1044.78 123.793 1044.46 122.963C1044.14 122.134 1044.04 121.106 1044.13 119.881L1044.95 109.554L1047.99 109.794Z" fill="#756F3F"/>
<path fill-rule="evenodd" clip-rule="evenodd" d="M1034.39 104.188C1036.95 104.39 1038.74 104.908 1039.77 105.742C1040.81 106.567 1041.26 107.856 1041.12 109.61C1041.02 110.929 1040.71 111.929 1040.18 112.608C1039.66 113.277 1038.84 113.725 1037.74 113.951C1040.18 114.813 1041.3 116.542 1041.09 119.138C1040.98 120.498 1040.64 121.573 1040.05 122.362C1039.48 123.153 1038.61 123.696 1037.45 123.99C1036.3 124.275 1034.79 124.344 1032.93 124.196L1027.32 123.753L1028.91 103.753L1034.39 104.188ZM1030.6 121.598L1033.42 121.821C1034.48 121.905 1035.33 121.868 1035.98 121.711C1036.63 121.543 1037.12 121.216 1037.45 120.73C1037.79 120.234 1037.99 119.54 1038.06 118.646C1038.15 117.505 1037.89 116.638 1037.28 116.046C1036.67 115.444 1035.68 115.089 1034.33 114.982L1031.14 114.729L1030.6 121.598ZM1031.33 112.33L1034.38 112.572C1035.62 112.67 1036.51 112.51 1037.06 112.094C1037.61 111.678 1037.93 110.92 1038.02 109.819C1038.1 108.76 1037.89 107.99 1037.37 107.511C1036.87 107.022 1035.97 106.726 1034.68 106.624L1031.8 106.396L1031.33 112.33Z" fill="#756F3F"/>
<path d="M890.484 97.3154L890.732 98.3379C891.726 97.9359 892.551 97.6776 893.208 97.5625C893.866 97.4371 894.568 97.4037 895.315 97.4629C896.063 97.5221 896.749 97.7018 897.373 98.002C897.895 98.2533 898.346 98.6649 898.726 99.2344C899.556 98.8288 900.381 98.5397 901.2 98.3682C902.189 98.1539 903.115 98.0811 903.977 98.1494C905.004 98.2309 905.861 98.497 906.546 98.9482C907.232 99.3892 907.725 100.024 908.025 100.853C908.336 101.682 908.443 102.709 908.346 103.935L907.527 114.261L904.49 114.021L905.279 104.052C905.369 102.92 905.262 102.091 904.959 101.565C904.666 101.041 904.089 100.744 903.228 100.676C902.625 100.628 901.968 100.68 901.256 100.833C900.693 100.945 900.092 101.17 899.453 101.505C899.457 101.552 899.464 101.599 899.467 101.647C899.516 102.216 899.521 102.744 899.482 103.232L898.664 113.559L895.627 113.318L896.417 103.35C896.507 102.218 896.4 101.389 896.097 100.863C895.804 100.339 895.231 100.042 894.38 99.9746C893.778 99.9269 893.115 99.9791 892.393 100.131C891.881 100.233 891.338 100.428 890.763 100.715L889.802 112.856L886.764 112.616L887.992 97.1182L890.484 97.3154Z" fill="#756F3F"/>
<path fill-rule="evenodd" clip-rule="evenodd" d="M872.884 97.6924C874.048 96.4472 875.731 95.9116 877.933 96.0859C880.134 96.2604 881.712 97.0537 882.666 98.4668C883.62 99.8799 883.992 101.911 883.782 104.559C883.573 107.196 882.886 109.143 881.721 110.398C880.556 111.644 878.873 112.179 876.672 112.005C874.47 111.83 872.892 111.036 871.938 109.623C870.986 108.2 870.613 106.169 870.822 103.532C871.032 100.884 871.719 98.9376 872.884 97.6924ZM877.735 98.5781C876.458 98.4769 875.528 98.8628 874.947 99.7363C874.366 100.61 874.003 101.955 873.859 103.772C873.716 105.579 873.858 106.96 874.284 107.913C874.721 108.867 875.583 109.395 876.87 109.497C878.147 109.598 879.077 109.212 879.658 108.339C880.239 107.465 880.601 106.125 880.744 104.318C880.888 102.501 880.742 101.115 880.306 100.161C879.869 99.207 879.013 98.6793 877.735 98.5781Z" fill="#756F3F"/>
<path d="M863.974 95.2148L864.242 96.7725C864.681 96.5042 865.213 96.2532 865.838 96.0205C866.462 95.7879 867.104 95.5984 867.764 95.4521C868.433 95.3067 869.045 95.2457 869.597 95.2686L869.354 98.3369C868.596 98.2769 867.841 98.2952 867.092 98.3926C866.353 98.4804 865.683 98.626 865.082 98.8291C864.747 98.9365 864.456 99.0561 864.207 99.1865L863.291 110.757L860.254 110.516L861.481 95.0176L863.974 95.2148Z" fill="#756F3F"/>
<path d="M850.278 94.3809C851.155 94.1265 852.133 94.0415 853.213 94.127C853.961 94.1862 854.733 94.3312 855.53 94.5615C856.337 94.7927 857.076 95.1019 857.745 95.4893L856.677 97.6934C856.085 97.3853 855.457 97.1315 854.794 96.9326C854.131 96.7234 853.514 96.5961 852.943 96.5508C852.092 96.4833 851.42 96.5869 850.928 96.8613C850.437 97.1254 850.165 97.5903 850.112 98.2549C850.072 98.7635 850.187 99.1588 850.457 99.4414C850.727 99.724 851.191 99.9967 851.85 100.258L854.285 101.172C854.996 101.437 855.612 101.773 856.134 102.18C856.655 102.587 857.044 103.088 857.3 103.683C857.567 104.268 857.668 104.972 857.603 105.792C857.518 106.861 857.209 107.725 856.677 108.383C856.145 109.03 855.445 109.487 854.577 109.753C853.71 110.019 852.72 110.107 851.609 110.019C850.748 109.95 849.832 109.764 848.864 109.457C847.906 109.151 847.005 108.714 846.162 108.146L847.219 105.894C847.893 106.344 848.642 106.722 849.464 107.027C850.296 107.334 851.066 107.515 851.772 107.571C852.634 107.64 853.321 107.543 853.833 107.28C854.356 107.008 854.648 106.477 854.711 105.688C854.75 105.2 854.662 104.79 854.448 104.46C854.244 104.13 853.843 103.848 853.245 103.612L850.549 102.631C849.494 102.223 848.65 101.665 848.017 100.957C847.394 100.249 847.129 99.3088 847.222 98.1357C847.303 97.1077 847.614 96.2855 848.154 95.6699C848.694 95.0545 849.402 94.6249 850.278 94.3809Z" fill="#756F3F"/>
<path d="M834.659 92.8926L833.87 102.846C833.78 103.988 833.892 104.822 834.205 105.349C834.519 105.875 835.127 106.173 836.03 106.245C836.664 106.295 837.357 106.251 838.11 106.112C838.661 106.003 839.241 105.801 839.851 105.507L840.812 93.3799L843.85 93.6201L842.621 109.119L840.129 108.921L839.881 107.898C838.867 108.299 838.015 108.561 837.326 108.684C836.638 108.796 835.91 108.823 835.142 108.762C834.145 108.683 833.303 108.422 832.617 107.981C831.942 107.531 831.445 106.89 831.124 106.061C830.814 105.231 830.707 104.204 830.804 102.979L831.622 92.6514L834.659 92.8926Z" fill="#756F3F"/>
<path fill-rule="evenodd" clip-rule="evenodd" d="M821.06 87.2852C823.614 87.4875 825.406 88.0059 826.438 88.8398C827.48 89.6643 827.932 90.9541 827.793 92.709C827.688 94.0277 827.374 95.0266 826.85 95.7061C826.326 96.3751 825.513 96.8229 824.408 97.0488C826.848 97.9109 827.964 99.6403 827.759 102.236C827.651 103.596 827.305 104.671 826.72 105.461C826.145 106.251 825.277 106.793 824.114 107.088C822.963 107.373 821.458 107.442 819.6 107.295L813.992 106.851L815.577 86.8506L821.06 87.2852ZM817.266 104.696L820.086 104.92C821.145 105.004 822 104.967 822.649 104.81C823.3 104.642 823.791 104.315 824.122 103.829C824.454 103.333 824.655 102.638 824.726 101.745C824.816 100.603 824.556 99.7354 823.944 99.1436C823.334 98.5415 822.354 98.187 821.004 98.0801L817.811 97.8271L817.266 104.696ZM818 95.4277L821.054 95.6699C822.289 95.7678 823.18 95.6089 823.725 95.1924C824.28 94.7766 824.601 94.0177 824.688 92.917C824.772 91.8582 824.557 91.0891 824.041 90.6094C823.536 90.1201 822.64 89.8237 821.353 89.7217L818.471 89.4932L818 95.4277Z" fill="#756F3F"/>
<path d="M677.152 80.4131L677.4 81.4365C678.394 81.0346 679.219 80.7753 679.876 80.6602C680.534 80.5346 681.237 80.5023 681.984 80.5615C682.732 80.6208 683.418 80.8004 684.042 81.1006C684.564 81.3519 685.014 81.7635 685.394 82.333C686.224 81.9272 687.05 81.6374 687.869 81.4658C688.858 81.2517 689.783 81.1788 690.645 81.2471C691.673 81.3285 692.53 81.5955 693.215 82.0469C693.901 82.4878 694.393 83.1222 694.693 83.9502C695.004 84.7794 695.111 85.8069 695.014 87.0322L694.195 97.3594L691.158 97.1182L691.948 87.1494C692.038 86.018 691.931 85.1896 691.628 84.6641C691.335 84.1393 690.757 83.8427 689.896 83.7744C689.293 83.7267 688.636 83.7791 687.924 83.9316C687.361 84.0441 686.761 84.2684 686.122 84.6035C686.126 84.65 686.133 84.6976 686.136 84.7461C686.185 85.3141 686.19 85.8421 686.151 86.3301L685.333 96.6572L682.296 96.416L683.085 86.4473C683.175 85.3157 683.068 84.4875 682.765 83.9619C682.472 83.4372 681.9 83.1407 681.049 83.0732C680.447 83.0255 679.784 83.0778 679.062 83.2295C678.55 83.3318 678.007 83.526 677.432 83.8125L676.47 95.9551L673.433 95.7139L674.66 80.2158L677.152 80.4131Z" fill="#756F3F"/>
<path fill-rule="evenodd" clip-rule="evenodd" d="M659.553 80.79C660.717 79.5449 662.4 79.0092 664.602 79.1836C666.803 79.358 668.38 80.1524 669.334 81.5654C670.288 82.9784 670.66 85.0085 670.45 87.6562C670.241 90.2938 669.554 92.2405 668.389 93.4961C667.224 94.7413 665.541 95.277 663.34 95.1025C661.139 94.9281 659.561 94.1345 658.607 92.7217C657.654 91.2982 657.282 89.2675 657.491 86.6299C657.701 83.9819 658.388 82.0353 659.553 80.79ZM664.404 81.6758C663.127 81.5746 662.197 81.9607 661.616 82.834C661.035 83.7074 660.672 85.0531 660.528 86.8701C660.385 88.677 660.527 90.0574 660.953 91.0107C661.39 91.9647 662.252 92.4927 663.539 92.5947C664.816 92.6958 665.745 92.3098 666.326 91.4365C666.907 90.563 667.27 89.2228 667.413 87.416C667.557 85.5988 667.411 84.2129 666.975 83.2588C666.538 82.3048 665.681 81.7771 664.404 81.6758Z" fill="#756F3F"/>
<path d="M650.642 78.3125L650.91 79.8701C651.349 79.6019 651.882 79.3518 652.506 79.1191C653.13 78.8865 653.772 78.6971 654.432 78.5508C655.101 78.4053 655.713 78.3434 656.265 78.3662L656.021 81.4355C655.264 81.3755 654.509 81.3939 653.76 81.4912C653.022 81.579 652.352 81.7247 651.751 81.9277C651.417 82.0351 651.125 82.1538 650.876 82.2842L649.959 93.8545L646.922 93.6143L648.149 78.1152L650.642 78.3125Z" fill="#756F3F"/>
<path d="M636.946 77.4785C637.823 77.2241 638.802 77.14 639.882 77.2256C640.629 77.2848 641.402 77.4289 642.198 77.6592C643.005 77.8903 643.744 78.2005 644.413 78.5879L643.346 80.791C642.754 80.4829 642.125 80.2301 641.462 80.0312C640.799 79.822 640.182 79.6947 639.611 79.6494C638.76 79.582 638.089 79.6855 637.597 79.96C637.106 80.2241 636.833 80.688 636.78 81.3525C636.74 81.8613 636.855 82.2574 637.125 82.54C637.395 82.8227 637.86 83.0943 638.519 83.3555L640.954 84.2695C641.664 84.5348 642.28 84.8713 642.802 85.2783C643.323 85.6854 643.712 86.1863 643.968 86.7812C644.235 87.3666 644.336 88.0694 644.271 88.8896C644.187 89.9591 643.877 90.8226 643.345 91.4805C642.813 92.1279 642.113 92.5849 641.246 92.8506C640.379 93.1162 639.389 93.2052 638.278 93.1172C637.416 93.0489 636.501 92.8613 635.532 92.5547C634.574 92.2489 633.674 91.8115 632.831 91.2432L633.887 88.9922C634.562 89.4427 635.311 89.8205 636.133 90.126C636.965 90.4322 637.734 90.613 638.44 90.6689C639.302 90.7372 639.989 90.6403 640.501 90.3779C641.024 90.1059 641.317 89.5753 641.38 88.7861C641.419 88.2981 641.33 87.889 641.116 87.5586C640.912 87.229 640.512 86.9464 639.914 86.7109L637.218 85.7285C636.163 85.321 635.319 84.7632 634.686 84.0547C634.063 83.347 633.798 82.4067 633.891 81.2334C633.972 80.2054 634.282 79.3831 634.822 78.7676C635.362 78.1522 636.07 77.7226 636.946 77.4785Z" fill="#756F3F"/>
<path d="M621.328 75.9902L620.539 85.9434C620.449 87.0855 620.561 87.9199 620.874 88.4463C621.188 88.9727 621.796 89.2722 622.699 89.3438C623.333 89.3939 624.026 89.3498 624.778 89.2109C625.329 89.1019 625.909 88.8984 626.519 88.6045L627.48 76.4775L630.518 76.7188L629.29 92.2168L626.798 92.0195L626.55 90.9971C625.536 91.3974 624.684 91.6582 623.995 91.7812C623.307 91.8939 622.579 91.9202 621.811 91.8594C620.814 91.7804 619.972 91.52 619.286 91.0791C618.611 90.6286 618.113 89.9882 617.792 89.1582C617.482 88.3292 617.375 87.3021 617.472 86.0771L618.29 75.75L621.328 75.9902Z" fill="#756F3F"/>
<path fill-rule="evenodd" clip-rule="evenodd" d="M607.729 70.3828C610.283 70.5852 612.075 71.1036 613.106 71.9375C614.149 72.7619 614.6 74.0518 614.461 75.8066C614.356 77.1254 614.043 78.1252 613.519 78.8047C612.995 79.4736 612.181 79.9205 611.077 80.1465C613.517 81.0085 614.633 82.738 614.428 85.334C614.32 86.6941 613.974 87.769 613.389 88.5586C612.814 89.349 611.945 89.892 610.783 90.1865C609.632 90.4715 608.127 90.5398 606.269 90.3926L600.661 89.9482L602.245 69.9492L607.729 70.3828ZM603.935 87.7939L606.754 88.0176C607.813 88.1015 608.668 88.0647 609.317 87.9072C609.968 87.7394 610.459 87.4124 610.79 86.9268C611.122 86.4306 611.324 85.7358 611.395 84.8428C611.485 83.7008 611.224 82.834 610.613 82.2422C610.003 81.64 609.022 81.2847 607.672 81.1777L604.479 80.9248L603.935 87.7939ZM604.668 78.5264L607.722 78.7686C608.957 78.8665 609.849 78.7066 610.394 78.29C610.949 77.8742 611.27 77.1161 611.357 76.0156C611.441 74.9564 611.225 74.1868 610.709 73.707C610.204 73.2178 609.308 72.9223 608.021 72.8203L605.139 72.5918L604.668 78.5264Z" fill="#756F3F"/>
<path d="M463.821 63.5117L464.069 64.5342C465.063 64.1322 465.888 63.8739 466.545 63.7588C467.203 63.6333 467.906 63.6 468.653 63.6592C469.401 63.7184 470.086 63.8982 470.71 64.1982C471.232 64.4496 471.682 64.8611 472.062 65.4307C472.893 65.0251 473.718 64.736 474.537 64.5645C475.526 64.3502 476.452 64.2774 477.313 64.3457C478.341 64.4272 479.198 64.6933 479.883 65.1445C480.569 65.5855 481.062 66.2205 481.362 67.0488C481.673 67.8779 481.78 68.9049 481.683 70.1299L480.864 80.457L477.827 80.2168L478.616 70.248C478.706 69.1163 478.6 68.2873 478.297 67.7617C478.004 67.237 477.426 66.9404 476.564 66.8721C475.962 66.8244 475.305 66.8768 474.593 67.0293C474.03 67.1418 473.429 67.3659 472.79 67.7012C472.794 67.7478 472.801 67.7952 472.804 67.8438C472.853 68.4118 472.858 68.9398 472.819 69.4277L472.001 79.7549L468.964 79.5146L469.754 69.5459C469.844 68.4141 469.737 67.5852 469.434 67.0596C469.141 66.5348 468.568 66.2384 467.717 66.1709C467.115 66.1232 466.452 66.1754 465.729 66.3271C465.218 66.4295 464.675 66.6246 464.1 66.9111L463.139 79.0527L460.102 78.8125L461.329 63.3135L463.821 63.5117Z" fill="#756F3F"/>
<path fill-rule="evenodd" clip-rule="evenodd" d="M446.221 63.8877C447.385 62.6426 449.068 62.1079 451.27 62.2822C453.471 62.4566 455.049 63.25 456.003 64.6631C456.957 66.0762 457.329 68.107 457.119 70.7549C456.91 73.3924 456.223 75.3391 455.058 76.5947C453.893 77.8399 452.21 78.3755 450.009 78.2012C447.807 78.0268 446.229 77.2324 445.275 75.8193C444.322 74.3959 443.95 72.365 444.159 69.7275C444.369 67.0798 445.056 65.1329 446.221 63.8877ZM451.072 64.7744C449.795 64.6732 448.865 65.0591 448.284 65.9326C447.703 66.8061 447.341 68.1517 447.197 69.9688C447.054 71.7753 447.195 73.1551 447.621 74.1084C448.057 75.0625 448.92 75.5913 450.207 75.6934C451.484 75.7946 452.414 75.4077 452.995 74.5342C453.576 73.6607 453.938 72.3203 454.081 70.5137C454.225 68.6967 454.079 67.3115 453.643 66.3574C453.206 65.4033 452.35 64.8756 451.072 64.7744Z" fill="#756F3F"/>
<path d="M437.311 61.4111L437.579 62.9688C438.018 62.7005 438.55 62.4495 439.175 62.2168C439.799 61.9842 440.441 61.7947 441.101 61.6484C441.77 61.503 442.382 61.442 442.934 61.4648L442.69 64.5332C441.932 64.4731 441.178 64.4915 440.429 64.5889C439.69 64.6767 439.02 64.8222 438.419 65.0254C438.084 65.1328 437.793 65.2523 437.544 65.3828L436.628 76.9521L433.591 76.7119L434.818 61.2139L437.311 61.4111Z" fill="#756F3F"/>
<path d="M423.615 60.5771C424.492 60.3227 425.471 60.2377 426.551 60.3232C427.298 60.3825 428.071 60.5275 428.867 60.7578C429.674 60.9889 430.413 61.2982 431.082 61.6855L430.014 63.8896C429.422 63.5816 428.794 63.3277 428.131 63.1289C427.468 62.9197 426.851 62.7923 426.28 62.7471C425.429 62.6796 424.757 62.7831 424.265 63.0576C423.774 63.3217 423.502 63.7866 423.449 64.4512C423.409 64.9597 423.524 65.3551 423.794 65.6377C424.064 65.9203 424.528 66.192 425.187 66.4531L427.622 67.3672C428.333 67.6325 428.949 67.9689 429.471 68.376C429.992 68.783 430.381 69.284 430.637 69.8789C430.904 70.4642 431.004 71.1671 430.939 71.9873C430.855 73.0569 430.546 73.9212 430.014 74.5791C429.482 75.2266 428.782 75.6826 427.914 75.9482C427.047 76.2139 426.057 76.3029 424.946 76.2148C424.084 76.1465 423.169 75.9589 422.201 75.6523C421.243 75.3466 420.342 74.9102 419.499 74.3418L420.556 72.0898C421.23 72.5403 421.979 72.9182 422.801 73.2236C423.633 73.5299 424.403 73.7116 425.109 73.7676C425.971 73.8358 426.658 73.738 427.17 73.4756C427.693 73.2035 427.985 72.6729 428.048 71.8838C428.086 71.3958 427.999 70.9866 427.785 70.6562C427.581 70.3267 427.181 70.044 426.583 69.8086L423.886 68.8271C422.832 68.4198 421.988 67.8616 421.354 67.1533C420.731 66.4456 420.466 65.5045 420.559 64.3311C420.64 63.3032 420.951 62.4817 421.491 61.8662C422.031 61.2507 422.739 60.8212 423.615 60.5771Z" fill="#756F3F"/>
<path d="M407.996 59.0889L407.208 69.042C407.118 70.1841 407.228 71.0186 407.542 71.5449C407.856 72.0713 408.465 72.3698 409.368 72.4414C410.001 72.4915 410.695 72.4474 411.447 72.3086C411.998 72.1995 412.578 71.9971 413.188 71.7031L414.148 59.5762L417.187 59.8164L415.958 75.3145L413.466 75.1172L413.218 74.0947C412.204 74.4949 411.353 74.7568 410.664 74.8799C409.976 74.9926 409.247 75.0179 408.479 74.957C407.482 74.878 406.64 74.6187 405.954 74.1777C405.279 73.7272 404.782 73.0867 404.461 72.2568C404.15 71.4276 404.044 70.4001 404.141 69.1748L404.959 58.8477L407.996 59.0889Z" fill="#756F3F"/>
<path fill-rule="evenodd" clip-rule="evenodd" d="M394.396 53.4814C396.951 53.6838 398.744 54.2021 399.775 55.0361C400.817 55.8606 401.269 57.1506 401.13 58.9053C401.025 60.2238 400.711 61.2229 400.188 61.9023C399.664 62.5714 398.85 63.0192 397.745 63.2451C400.185 64.1071 401.301 65.8358 401.096 68.4316C400.988 69.792 400.642 70.8676 400.057 71.6572C399.482 72.4475 398.613 72.9897 397.451 73.2842C396.3 73.5691 394.795 73.6385 392.937 73.4912L387.329 73.0469L388.914 53.0469L394.396 53.4814ZM390.603 70.8916L393.423 71.1152C394.482 71.1991 395.336 71.1624 395.986 71.0049C396.637 70.837 397.128 70.5102 397.459 70.0244C397.791 69.5284 397.992 68.834 398.062 67.9414C398.153 66.7992 397.893 65.9316 397.281 65.3398C396.671 64.7378 395.691 64.3833 394.341 64.2764L391.147 64.0234L390.603 70.8916ZM391.337 61.624L394.391 61.8662C395.626 61.9641 396.516 61.8051 397.062 61.3887C397.617 60.9729 397.938 60.214 398.025 59.1133C398.109 58.0545 397.893 57.2854 397.378 56.8057C396.873 56.3164 395.977 56.02 394.689 55.918L391.808 55.6895L391.337 61.624Z" fill="#756F3F"/>
<path d="M250.49 46.6094L250.738 47.6318C251.731 47.23 252.556 46.9716 253.213 46.8564C253.871 46.7309 254.574 46.6976 255.321 46.7568C256.069 46.8161 256.755 46.9957 257.379 47.2959C257.901 47.5472 258.35 47.9597 258.73 48.5293C259.561 48.1235 260.386 47.8337 261.206 47.6621C262.195 47.4479 263.12 47.3751 263.981 47.4434C265.009 47.5248 265.867 47.7908 266.552 48.2422C267.238 48.6832 267.731 49.3181 268.031 50.1465C268.342 50.9757 268.448 52.0032 268.351 53.2285L267.533 63.5557L264.495 63.3145L265.285 53.3457C265.375 52.214 265.268 51.3849 264.965 50.8594C264.672 50.3349 264.095 50.0381 263.233 49.9697C262.631 49.922 261.973 49.9744 261.261 50.127C260.698 50.2394 260.098 50.4647 259.459 50.7998C259.463 50.8461 259.469 50.8932 259.473 50.9414C259.522 51.5096 259.527 52.0383 259.488 52.5264L258.67 62.8535L255.633 62.6123L256.422 52.6436C256.512 51.5118 256.406 50.6828 256.103 50.1572C255.81 49.6325 255.237 49.337 254.386 49.2695C253.784 49.2218 253.121 49.2731 252.398 49.4248C251.887 49.5271 251.344 49.7223 250.769 50.0088L249.807 62.1514L246.77 61.9102L247.998 46.4121L250.49 46.6094Z" fill="#756F3F"/>
<path fill-rule="evenodd" clip-rule="evenodd" d="M232.89 46.9863C234.054 45.7411 235.737 45.2055 237.938 45.3799C240.14 45.5543 241.717 46.348 242.671 47.7607C243.625 49.1738 243.997 51.2047 243.787 53.8525C243.578 56.4901 242.891 58.4367 241.726 59.6924C240.561 60.9376 238.878 61.4732 236.677 61.2988C234.476 61.1244 232.898 60.3307 231.944 58.918C230.991 57.4945 230.619 55.4636 230.828 52.8262C231.038 50.1782 231.725 48.2316 232.89 46.9863ZM237.741 47.8721C236.464 47.7709 235.534 48.1569 234.953 49.0303C234.372 49.9037 234.009 51.2493 233.865 53.0664C233.722 54.8732 233.864 56.2537 234.29 57.207C234.727 58.1609 235.588 58.689 236.876 58.791C238.153 58.8921 239.082 58.506 239.663 57.6328C240.244 56.7594 240.607 55.419 240.75 53.6123C240.894 51.7951 240.748 50.4092 240.312 49.4551C239.875 48.501 239.018 47.9733 237.741 47.8721Z" fill="#756F3F"/>
<path d="M223.979 44.5088L224.248 46.0664C224.687 45.7983 225.219 45.548 225.843 45.3154C226.467 45.0828 227.11 44.8934 227.77 44.7471C228.439 44.6017 229.05 44.5397 229.602 44.5625L229.358 47.6309C228.601 47.5708 227.847 47.5902 227.098 47.6875C226.359 47.7753 225.689 47.92 225.088 48.123C224.753 48.2304 224.462 48.3501 224.213 48.4805L223.296 60.0508L220.259 59.8096L221.487 44.3115L223.979 44.5088Z" fill="#756F3F"/>
<path d="M210.283 43.6748C211.16 43.4204 212.139 43.3363 213.219 43.4219C213.966 43.4811 214.739 43.6252 215.535 43.8555C216.342 44.0865 217.081 44.3959 217.75 44.7832L216.683 46.9873C216.091 46.6792 215.462 46.4254 214.799 46.2266C214.136 46.0174 213.519 45.89 212.948 45.8447C212.097 45.7773 211.425 45.881 210.934 46.1553C210.442 46.4194 210.17 46.8842 210.117 47.5488C210.077 48.0576 210.193 48.4537 210.463 48.7363C210.733 49.0188 211.197 49.2907 211.855 49.5518L214.291 50.4658C215.001 50.731 215.617 51.0667 216.139 51.4736C216.66 51.8807 217.049 52.3826 217.305 52.9775C217.572 53.5629 217.673 54.2657 217.608 55.0859C217.524 56.1554 217.214 57.0189 216.682 57.6768C216.15 58.3242 215.45 58.7812 214.583 59.0469C213.716 59.3125 212.726 59.4015 211.615 59.3135C210.753 59.2452 209.838 59.0576 208.869 58.751C207.911 58.4452 207.011 58.0077 206.168 57.4395L207.224 55.1875C207.898 55.638 208.648 56.0168 209.47 56.3223C210.302 56.6285 211.071 56.8093 211.777 56.8652C212.639 56.9335 213.326 56.8365 213.838 56.5742C214.361 56.3022 214.654 55.7714 214.717 54.9824C214.755 54.4944 214.667 54.0844 214.453 53.7539C214.249 53.4245 213.849 53.1416 213.251 52.9062L210.555 51.9248C209.5 51.5173 208.656 50.9595 208.022 50.251C207.399 49.5434 207.135 48.6029 207.228 47.4297C207.309 46.4017 207.619 45.5794 208.159 44.9639C208.699 44.3484 209.407 43.9189 210.283 43.6748Z" fill="#756F3F"/>
<path d="M194.665 42.1865L193.876 52.1396C193.785 53.2819 193.897 54.1162 194.211 54.6426C194.524 55.169 195.133 55.4685 196.036 55.54C196.67 55.5902 197.363 55.5451 198.116 55.4062C198.667 55.2972 199.247 55.0948 199.856 54.8008L200.817 42.6738L203.854 42.915L202.627 58.4131L200.135 58.2158L199.887 57.1924C198.873 57.5927 198.021 57.8545 197.332 57.9775C196.644 58.0902 195.916 58.1165 195.147 58.0557C194.151 57.9767 193.309 57.7163 192.623 57.2754C191.948 56.8248 191.45 56.1845 191.129 55.3545C190.819 54.5253 190.713 53.4977 190.81 52.2725L191.627 41.9463L194.665 42.1865Z" fill="#756F3F"/>
<path fill-rule="evenodd" clip-rule="evenodd" d="M181.065 36.5791C183.62 36.7815 185.412 37.2998 186.443 38.1338C187.486 38.9583 187.938 40.2481 187.799 42.0029C187.694 43.3216 187.379 44.3205 186.855 45C186.332 45.669 185.519 46.1168 184.414 46.3428C186.853 47.2048 187.97 48.9343 187.765 51.5303C187.657 52.8904 187.311 53.9653 186.726 54.7549C186.151 55.5453 185.282 56.0883 184.12 56.3828C182.969 56.6678 181.464 56.7361 179.605 56.5889L173.998 56.1445L175.582 36.1445L181.065 36.5791ZM177.271 53.9902L180.091 54.2139C181.15 54.2978 182.004 54.2609 182.654 54.1035C183.305 53.9357 183.796 53.6086 184.127 53.123C184.459 52.6269 184.661 51.9321 184.731 51.0391C184.822 49.8968 184.562 49.0293 183.95 48.4375C183.34 47.8354 182.359 47.481 181.009 47.374L177.816 47.1211L177.271 53.9902ZM178.005 44.7227L181.059 44.9648C182.294 45.0627 183.185 44.9029 183.73 44.4863C184.286 44.0706 184.607 43.3124 184.694 42.2119C184.778 41.1527 184.562 40.3831 184.046 39.9033C183.541 39.4142 182.646 39.1186 181.358 39.0166L178.476 38.7881L178.005 44.7227Z" fill="#756F3F"/>
<path d="M37.1582 29.707L37.4062 30.7305C38.3994 30.3285 39.2249 30.0702 39.8818 29.9551C40.5396 29.8296 41.2426 29.7962 41.9902 29.8555C42.7377 29.9147 43.4239 30.0944 44.0479 30.3945C44.5701 30.6459 45.0195 31.0575 45.3994 31.627C46.23 31.2213 47.0547 30.9323 47.874 30.7607C48.8628 30.5465 49.7885 30.4727 50.6504 30.541C51.6783 30.6225 52.5345 30.8895 53.2197 31.3408C53.9057 31.7817 54.3991 32.416 54.6992 33.2441C55.0097 34.0733 55.1166 35.1009 55.0195 36.3262L54.2012 46.6533L51.1641 46.4131L51.9541 36.4443C52.0438 35.3127 51.9368 34.4836 51.6338 33.958C51.341 33.4332 50.7632 33.1366 49.9014 33.0684C49.2991 33.0206 48.6419 33.073 47.9297 33.2256C47.367 33.3381 46.7662 33.5622 46.127 33.8975C46.1308 33.9441 46.1374 33.9915 46.1406 34.04C46.1896 34.6081 46.1949 35.136 46.1562 35.624L45.3389 45.9512L42.3008 45.7109L43.0908 35.7422C43.1805 34.6104 43.0736 33.7815 42.7705 33.2559C42.4777 32.7311 41.9052 32.4347 41.0537 32.3672C40.4515 32.3195 39.7888 32.3717 39.0664 32.5234C38.5546 32.6258 38.0116 32.8208 37.4365 33.1074L36.4756 45.249L33.4385 45.0088L34.666 29.5098L37.1582 29.707Z" fill="#756F3F"/>
<path fill-rule="evenodd" clip-rule="evenodd" d="M19.5576 30.084C20.722 28.8388 22.4052 28.3032 24.6064 28.4775C26.8079 28.652 28.386 29.4463 29.3398 30.8594C30.2936 32.2725 30.6658 34.3033 30.4561 36.9512C30.247 39.5885 29.5598 41.5354 28.3945 42.791C27.2301 44.0361 25.547 44.5709 23.3457 44.3965C21.1443 44.2221 19.5662 43.4287 18.6123 42.0156C17.6593 40.5922 17.2871 38.5613 17.4961 35.9238C17.7059 33.276 18.3932 31.3292 19.5576 30.084ZM24.4092 30.9697C23.132 30.8686 22.2033 31.2555 21.6221 32.1289C21.0409 33.0024 20.6782 34.3478 20.5342 36.165C20.3911 37.9716 20.5321 39.3515 20.958 40.3047C21.3944 41.2587 22.2565 41.7866 23.5439 41.8887C24.8212 41.9899 25.7508 41.604 26.332 40.7305C26.9132 39.857 27.2758 38.5167 27.4189 36.71C27.5629 34.8928 27.4159 33.5068 26.9795 32.5527C26.543 31.5989 25.6862 31.0709 24.4092 30.9697Z" fill="#756F3F"/>
<path d="M10.6475 27.6074L10.916 29.1641C11.3552 28.8959 11.8873 28.6457 12.5117 28.4131C13.1362 28.1805 13.7781 27.991 14.4375 27.8447C15.1073 27.6993 15.7185 27.6383 16.2705 27.6611L16.0273 30.7295C15.2693 30.6694 14.5152 30.6878 13.7656 30.7852C13.0273 30.8729 12.3571 31.0185 11.7559 31.2217C11.4214 31.3291 11.1296 31.4477 10.8809 31.5781L9.96484 43.1484L6.92773 42.9082L8.15527 27.4092L10.6475 27.6074Z" fill="#756F3F"/>
<path d="M0.958984 33.5635C1.66942 33.8287 2.28605 34.1652 2.80762 34.5723C3.32908 34.9793 3.71778 35.4803 3.97363 36.0752C4.2407 36.6606 4.34133 37.3634 4.27637 38.1836C4.19163 39.2532 3.88338 40.1175 3.35059 40.7754C2.81863 41.4228 2.11835 41.8789 1.25098 42.1445C0.858945 42.2646 0.441796 42.3458 0 42.3936V39.8604C0.184335 39.8114 0.353785 39.7503 0.506836 39.6719C1.02991 39.3998 1.32322 38.8692 1.38574 38.0801C1.42438 37.5921 1.33615 37.1829 1.12207 36.8525C0.92761 36.538 0.55336 36.2669 0 36.0381V33.2031L0.958984 33.5635Z" fill="#756F3F"/>
<path d="M0 26.5303C0.712493 26.5947 1.44727 26.7353 2.2041 26.9541C3.01125 27.1852 3.74956 27.4944 4.41895 27.8818L3.35059 30.085C2.75869 29.777 2.13097 29.524 1.46777 29.3252C0.950724 29.1619 0.461338 29.0488 0 28.9854V26.5303Z" fill="#756F3F"/>
<path d="M4.05762 164.728L1.56055 164.849L1.18457 163.865C0.761818 164.098 0.36647 164.299 0 164.47V161.986C0.279133 161.848 0.56236 161.685 0.850586 161.497L0.260742 149.347L3.30371 149.199L4.05762 164.728Z" fill="white"/>
<path d="M12.6562 148.51C13.4054 148.473 14.1901 148.519 15.0098 148.646C15.8396 148.772 16.6111 148.985 17.3242 149.284L16.5459 151.607C15.9195 151.376 15.2643 151.205 14.5811 151.092C13.8972 150.969 13.2685 150.921 12.6963 150.948C11.8433 150.99 11.1903 151.178 10.7373 151.513C10.2838 151.837 10.0732 152.332 10.1055 152.998C10.1302 153.508 10.2947 153.886 10.5986 154.132C10.9026 154.378 11.3977 154.589 12.084 154.764L14.6162 155.36C15.3546 155.533 16.0081 155.789 16.5771 156.126C17.1463 156.463 17.5963 156.91 17.9258 157.468C18.2652 158.015 18.4542 158.7 18.4941 159.522C18.5461 160.593 18.3499 161.489 17.9053 162.209C17.46 162.919 16.8237 163.461 15.9971 163.835C15.1706 164.209 14.2009 164.423 13.0879 164.477C12.2243 164.519 11.2925 164.45 10.293 164.269C9.30385 164.087 8.35491 163.768 7.44629 163.312L8.20703 160.943C8.93372 161.304 9.72473 161.584 10.5791 161.782C11.4439 161.98 12.23 162.063 12.9375 162.028C13.8011 161.986 14.47 161.802 14.9443 161.477C15.4285 161.14 15.6517 160.577 15.6133 159.786C15.5895 159.297 15.4507 158.902 15.1963 158.602C14.9523 158.301 14.5184 158.072 13.8955 157.914L11.0957 157.283C9.99806 157.013 9.08958 156.567 8.37109 155.945C7.66315 155.323 7.28076 154.424 7.22363 153.248C7.17362 152.218 7.37681 151.363 7.83398 150.684C8.29116 150.004 8.93935 149.488 9.77734 149.135C10.6148 148.771 11.5743 148.562 12.6562 148.51Z" fill="white"/>
<path d="M29.2012 150.632C28.4417 150.669 27.696 150.784 26.9648 150.976C26.2436 151.157 25.5979 151.386 25.0273 151.664C24.709 151.813 24.4344 151.968 24.2041 152.129L24.7676 163.722L21.7246 163.869L20.9707 148.341L23.4678 148.22L23.9316 149.731C24.3331 149.409 24.8292 149.092 25.4189 148.782C26.0087 148.472 26.6214 148.202 27.2568 147.973C27.9027 147.743 28.5013 147.605 29.0518 147.558L29.2012 150.632Z" fill="white"/>
<path fill-rule="evenodd" clip-rule="evenodd" d="M37.4238 147.308C39.6296 147.201 41.296 147.787 42.4219 149.067C43.5476 150.348 44.1749 152.314 44.3037 154.967C44.432 157.61 43.998 159.628 43.002 161.022C42.0054 162.405 40.404 163.15 38.1982 163.257C35.9927 163.364 34.327 162.777 33.2012 161.497C32.0749 160.207 31.4477 158.24 31.3193 155.598C31.1905 152.945 31.6245 150.926 32.6211 149.543C33.6176 148.16 35.2184 147.415 37.4238 147.308ZM37.5459 149.805C36.2663 149.867 35.3931 150.368 34.9277 151.308C34.4624 152.248 34.2739 153.63 34.3623 155.45C34.4502 157.26 34.7659 158.611 35.3096 159.502C35.8638 160.393 36.787 160.807 38.0771 160.744C39.3565 160.682 40.229 160.181 40.6943 159.241C41.1597 158.301 41.3486 156.925 41.2607 155.115C41.1723 153.295 40.8509 151.939 40.2969 151.048C39.7427 150.157 38.8254 149.743 37.5459 149.805Z" fill="white"/>
<path d="M63.5186 146.04C64.5485 145.99 65.4319 146.146 66.1689 146.506C66.9055 146.856 67.4759 147.423 67.8789 148.206C68.2924 148.989 68.5283 149.995 68.5879 151.223L69.0908 161.569L66.0479 161.717L65.5625 151.729C65.5074 150.595 65.2962 149.786 64.9287 149.304C64.5716 148.821 63.961 148.6 63.0977 148.642C62.4942 148.671 61.8481 148.807 61.1611 149.049C60.6177 149.232 60.0509 149.531 59.46 149.944C59.4697 149.99 59.4819 150.036 59.4912 150.084C59.6121 150.641 59.6843 151.164 59.708 151.653L60.2109 162.001L57.167 162.149L56.6826 152.16C56.6275 151.026 56.4154 150.218 56.0479 149.735C55.6907 149.252 55.0856 149.031 54.2324 149.072C53.629 149.102 52.9785 149.237 52.2812 149.48C51.7868 149.646 51.273 149.908 50.7393 150.266L51.3301 162.432L48.2871 162.58L47.5332 147.051L50.0303 146.93L50.4062 147.913C51.3402 147.388 52.1257 147.026 52.7627 146.828C53.3991 146.62 54.0918 146.498 54.8408 146.462C55.5898 146.426 56.2931 146.516 56.9502 146.734C57.5003 146.917 57.9988 147.269 58.4482 147.785C59.2206 147.277 60.0019 146.885 60.793 146.61C61.7464 146.272 62.655 146.082 63.5186 146.04Z" fill="white"/>
<path fill-rule="evenodd" clip-rule="evenodd" d="M193.642 135.436C196.201 135.311 198.045 135.597 199.174 136.293C200.313 136.978 200.925 138.2 201.011 139.958C201.075 141.279 200.889 142.31 200.456 143.051C200.022 143.781 199.272 144.329 198.205 144.693C200.734 145.238 202.062 146.811 202.188 149.412C202.255 150.775 202.048 151.886 201.568 152.743C201.099 153.6 200.307 154.249 199.191 154.689C198.086 155.118 196.602 155.377 194.739 155.468L189.121 155.741L188.148 135.702L193.642 135.436ZM194.96 146.149L191.76 146.305L192.095 153.187L194.919 153.051C195.98 152.999 196.824 152.853 197.448 152.614C198.072 152.365 198.518 151.979 198.784 151.455C199.05 150.921 199.162 150.206 199.118 149.312C199.063 148.167 198.693 147.339 198.012 146.83C197.33 146.311 196.312 146.084 194.96 146.149ZM194.242 137.816L191.354 137.955L191.644 143.901L194.702 143.753C195.94 143.693 196.803 143.422 197.291 142.94C197.789 142.457 198.011 141.663 197.958 140.561C197.906 139.499 197.594 138.763 197.021 138.353C196.459 137.932 195.532 137.753 194.242 137.816Z" fill="white"/>
<path d="M217.806 154.348L215.309 154.47L214.933 153.486C213.978 154.012 213.167 154.38 212.499 154.59C211.831 154.789 211.112 154.908 210.342 154.945C209.343 154.994 208.475 154.843 207.738 154.493C207.012 154.132 206.437 153.56 206.013 152.777C205.599 151.995 205.363 150.989 205.304 149.762L204.801 139.414L207.844 139.267L208.328 149.239C208.384 150.384 208.601 151.198 208.979 151.68C209.356 152.162 209.998 152.381 210.903 152.337C211.538 152.306 212.22 152.174 212.949 151.941C213.482 151.762 214.031 151.487 214.599 151.118L214.009 138.967L217.052 138.819L217.806 154.348Z" fill="white"/>
<path d="M226.404 138.131C227.153 138.095 227.938 138.14 228.758 138.267C229.588 138.393 230.359 138.606 231.072 138.905L230.294 141.227C229.667 140.996 229.012 140.825 228.329 140.712C227.645 140.589 227.017 140.542 226.445 140.569C225.592 140.611 224.938 140.799 224.485 141.134C224.032 141.458 223.821 141.953 223.854 142.619C223.878 143.129 224.043 143.507 224.347 143.753C224.651 143.999 225.146 144.21 225.832 144.385L228.364 144.982C229.102 145.154 229.756 145.409 230.325 145.746C230.894 146.084 231.344 146.531 231.674 147.089C232.013 147.636 232.202 148.32 232.242 149.142C232.294 150.213 232.098 151.11 231.653 151.83C231.208 152.54 230.572 153.081 229.745 153.455C228.919 153.829 227.949 154.044 226.836 154.098C225.972 154.14 225.041 154.07 224.041 153.889C223.052 153.707 222.103 153.388 221.194 152.932L221.956 150.565C222.683 150.925 223.473 151.205 224.327 151.403C225.192 151.601 225.978 151.683 226.686 151.649C227.549 151.607 228.218 151.423 228.692 151.098C229.177 150.761 229.4 150.198 229.361 149.407C229.338 148.918 229.199 148.523 228.944 148.223C228.7 147.922 228.266 147.693 227.644 147.535L224.844 146.904C223.746 146.634 222.838 146.189 222.119 145.566C221.411 144.944 221.029 144.044 220.972 142.868C220.922 141.838 221.126 140.984 221.583 140.305C222.04 139.626 222.687 139.109 223.525 138.756C224.363 138.392 225.322 138.184 226.404 138.131Z" fill="white"/>
<path d="M242.949 140.253C242.19 140.29 241.444 140.404 240.713 140.596C239.992 140.777 239.346 141.006 238.775 141.284C238.457 141.434 238.183 141.59 237.952 141.751L238.516 153.343L235.473 153.49L234.719 137.962L237.216 137.841L237.681 139.351C238.082 139.029 238.577 138.713 239.167 138.402C239.757 138.092 240.369 137.823 241.005 137.594C241.651 137.364 242.249 137.225 242.8 137.178L242.949 140.253Z" fill="white"/>
<path fill-rule="evenodd" clip-rule="evenodd" d="M251.172 136.928C253.378 136.821 255.044 137.407 256.17 138.688C257.296 139.968 257.923 141.935 258.052 144.588C258.18 147.231 257.746 149.249 256.75 150.643C255.753 152.026 254.153 152.771 251.947 152.878C249.742 152.985 248.075 152.398 246.949 151.118C245.823 149.828 245.196 147.861 245.067 145.219C244.939 142.566 245.373 140.547 246.369 139.164C247.366 137.781 248.966 137.035 251.172 136.928ZM251.294 139.425C250.014 139.487 249.141 139.988 248.676 140.929C248.21 141.869 248.022 143.25 248.11 145.07C248.198 146.881 248.515 148.232 249.059 149.123C249.613 150.014 250.535 150.428 251.825 150.365C253.105 150.303 253.977 149.802 254.442 148.861C254.908 147.921 255.097 146.546 255.009 144.735C254.92 142.915 254.599 141.559 254.045 140.668C253.491 139.777 252.573 139.363 251.294 139.425Z" fill="white"/>
<path d="M277.267 135.661C278.297 135.611 279.18 135.767 279.917 136.127C280.654 136.477 281.224 137.044 281.627 137.827C282.04 138.61 282.276 139.615 282.336 140.843L282.839 151.191L279.796 151.338L279.311 141.35C279.255 140.216 279.044 139.408 278.677 138.925C278.32 138.442 277.709 138.221 276.846 138.263C276.242 138.292 275.597 138.427 274.91 138.669C274.367 138.852 273.799 139.151 273.208 139.565C273.218 139.61 273.23 139.657 273.239 139.705C273.36 140.262 273.432 140.786 273.456 141.274L273.959 151.621L270.915 151.77L270.431 141.781C270.376 140.647 270.163 139.838 269.796 139.356C269.439 138.873 268.833 138.652 267.98 138.693C267.377 138.723 266.727 138.858 266.029 139.101C265.535 139.267 265.021 139.53 264.487 139.887L265.078 152.053L262.035 152.2L261.281 136.672L263.778 136.551L264.154 137.533C265.088 137.008 265.874 136.647 266.511 136.449C267.147 136.241 267.84 136.119 268.589 136.082C269.338 136.046 270.042 136.137 270.699 136.356C271.249 136.538 271.747 136.889 272.196 137.405C272.969 136.897 273.75 136.506 274.541 136.232C275.494 135.893 276.403 135.703 277.267 135.661Z" fill="white"/>
<path fill-rule="evenodd" clip-rule="evenodd" d="M407.39 125.056C409.949 124.931 411.793 125.218 412.922 125.914C414.061 126.599 414.673 127.821 414.759 129.579C414.823 130.9 414.638 131.931 414.205 132.672C413.771 133.402 413.02 133.95 411.953 134.315C414.483 134.859 415.811 136.432 415.938 139.033C416.004 140.396 415.796 141.507 415.316 142.364C414.847 143.221 414.055 143.87 412.939 144.31C411.834 144.739 410.35 144.999 408.487 145.089L402.869 145.361L401.896 125.323L407.39 125.056ZM408.708 135.771L405.508 135.925L405.843 142.808L408.668 142.671C409.729 142.619 410.572 142.474 411.196 142.235C411.82 141.986 412.266 141.599 412.532 141.075C412.798 140.541 412.91 139.826 412.866 138.932C412.811 137.787 412.441 136.96 411.76 136.451C411.078 135.932 410.06 135.705 408.708 135.771ZM407.99 127.436L405.103 127.575L405.392 133.522L408.45 133.374C409.688 133.314 410.551 133.042 411.039 132.56C411.537 132.077 411.76 131.284 411.706 130.181C411.654 129.12 411.342 128.384 410.77 127.974C410.207 127.553 409.28 127.373 407.99 127.436Z" fill="white"/>
<path d="M431.555 143.969L429.058 144.09L428.681 143.108C427.726 143.634 426.915 144.001 426.247 144.211C425.579 144.41 424.86 144.529 424.09 144.566C423.091 144.615 422.224 144.463 421.487 144.113C420.761 143.752 420.185 143.181 419.761 142.399C419.347 141.616 419.111 140.61 419.052 139.383L418.549 129.035L421.593 128.888L422.076 138.86C422.132 140.004 422.349 140.818 422.727 141.3C423.105 141.782 423.746 142.001 424.651 141.957C425.286 141.926 425.968 141.794 426.697 141.561C427.23 141.382 427.779 141.108 428.347 140.738L427.757 128.588L430.8 128.441L431.555 143.969Z" fill="white"/>
<path d="M440.152 127.752C440.901 127.716 441.686 127.761 442.506 127.888C443.336 128.014 444.108 128.227 444.821 128.526L444.042 130.848C443.416 130.617 442.761 130.446 442.077 130.333C441.393 130.21 440.765 130.162 440.193 130.19C439.34 130.231 438.686 130.419 438.233 130.754C437.78 131.078 437.569 131.574 437.602 132.24C437.626 132.75 437.791 133.127 438.095 133.373C438.399 133.619 438.894 133.83 439.58 134.005L442.112 134.602C442.851 134.774 443.504 135.03 444.073 135.367C444.642 135.705 445.092 136.152 445.422 136.71C445.761 137.257 445.95 137.941 445.99 138.763C446.042 139.834 445.846 140.73 445.401 141.45C444.956 142.16 444.321 142.702 443.494 143.076C442.668 143.45 441.697 143.664 440.584 143.718C439.72 143.76 438.789 143.691 437.789 143.51C436.8 143.328 435.851 143.009 434.942 142.553L435.704 140.185C436.431 140.546 437.221 140.826 438.075 141.024C438.94 141.222 439.726 141.304 440.434 141.27C441.297 141.228 441.966 141.044 442.44 140.719C442.925 140.382 443.148 139.818 443.109 139.027C443.086 138.539 442.947 138.144 442.692 137.844C442.448 137.543 442.015 137.313 441.392 137.155L438.592 136.525C437.494 136.255 436.587 135.809 435.868 135.187C435.16 134.564 434.777 133.665 434.72 132.489C434.67 131.459 434.874 130.605 435.331 129.926C435.788 129.247 436.435 128.73 437.273 128.376C438.111 128.012 439.071 127.805 440.152 127.752Z" fill="white"/>
<path d="M456.697 129.873C455.938 129.91 455.192 130.025 454.461 130.217C453.74 130.398 453.094 130.627 452.523 130.905C452.205 131.055 451.931 131.211 451.7 131.372L452.265 142.963L449.221 143.111L448.467 127.582L450.964 127.461L451.429 128.972C451.83 128.65 452.325 128.334 452.915 128.024C453.505 127.713 454.118 127.444 454.753 127.215C455.399 126.985 455.997 126.846 456.548 126.799L456.697 129.873Z" fill="white"/>
<path fill-rule="evenodd" clip-rule="evenodd" d="M464.921 126.549C467.126 126.442 468.792 127.029 469.918 128.309C471.044 129.589 471.671 131.556 471.8 134.209C471.928 136.851 471.494 138.869 470.498 140.263C469.502 141.646 467.901 142.392 465.695 142.499C463.49 142.606 461.823 142.02 460.697 140.739C459.571 139.449 458.944 137.482 458.815 134.839C458.687 132.186 459.121 130.168 460.117 128.784C461.114 127.401 462.715 126.656 464.921 126.549ZM465.042 129.046C463.762 129.108 462.889 129.61 462.424 130.55C461.959 131.49 461.77 132.871 461.858 134.691C461.946 136.502 462.263 137.853 462.807 138.744C463.361 139.635 464.283 140.049 465.573 139.986C466.853 139.924 467.725 139.423 468.19 138.483C468.656 137.542 468.845 136.167 468.757 134.357C468.668 132.536 468.347 131.18 467.793 130.289C467.239 129.398 466.322 128.984 465.042 129.046Z" fill="white"/>
<path d="M491.015 125.281C492.044 125.231 492.928 125.387 493.665 125.747C494.402 126.097 494.972 126.665 495.375 127.448C495.788 128.231 496.025 129.236 496.085 130.464L496.587 140.811L493.544 140.959L493.059 130.971C493.004 129.837 492.792 129.028 492.425 128.545C492.068 128.062 491.457 127.842 490.594 127.884C489.99 127.913 489.345 128.048 488.658 128.29C488.115 128.473 487.547 128.772 486.956 129.186C486.966 129.231 486.978 129.278 486.987 129.325C487.108 129.882 487.18 130.406 487.204 130.895L487.707 141.242L484.663 141.39L484.179 131.401C484.124 130.268 483.912 129.459 483.545 128.977C483.188 128.493 482.582 128.272 481.729 128.314C481.125 128.343 480.475 128.479 479.777 128.722C479.283 128.888 478.769 129.151 478.235 129.508L478.827 141.674L475.783 141.821L475.029 126.293L477.526 126.171L477.902 127.154C478.836 126.629 479.622 126.268 480.259 126.07C480.895 125.862 481.589 125.74 482.338 125.703C483.087 125.667 483.79 125.757 484.447 125.976C484.997 126.158 485.495 126.51 485.944 127.026C486.717 126.518 487.498 126.127 488.289 125.853C489.243 125.514 490.151 125.323 491.015 125.281Z" fill="white"/>
<path fill-rule="evenodd" clip-rule="evenodd" d="M621.138 114.677C623.697 114.553 625.541 114.838 626.67 115.534C627.809 116.219 628.421 117.442 628.507 119.2C628.571 120.521 628.386 121.552 627.953 122.293C627.519 123.023 626.769 123.571 625.702 123.936C628.231 124.48 629.559 126.053 629.686 128.653C629.752 130.016 629.544 131.127 629.064 131.984C628.595 132.842 627.803 133.491 626.688 133.931C625.582 134.36 624.098 134.62 622.235 134.71L616.617 134.983L615.645 114.943L621.138 114.677ZM622.456 125.392L619.256 125.546L619.591 132.429L622.416 132.292C623.477 132.241 624.32 132.095 624.944 131.857C625.568 131.607 626.014 131.22 626.28 130.696C626.546 130.162 626.658 129.448 626.614 128.553C626.559 127.408 626.19 126.582 625.508 126.072C624.826 125.553 623.808 125.326 622.456 125.392ZM621.738 117.057L618.851 117.196L619.14 123.143L622.199 122.994C623.437 122.934 624.3 122.663 624.787 122.181C625.285 121.698 625.508 120.905 625.454 119.802C625.403 118.741 625.09 118.005 624.518 117.595C623.955 117.174 623.028 116.994 621.738 117.057Z" fill="white"/>
<path d="M645.303 133.59L642.806 133.711L642.429 132.728C641.474 133.254 640.663 133.622 639.995 133.832C639.327 134.031 638.608 134.149 637.838 134.187C636.839 134.235 635.972 134.084 635.235 133.734C634.509 133.373 633.933 132.802 633.509 132.02C633.095 131.237 632.859 130.231 632.8 129.003L632.297 118.656L635.341 118.508L635.824 128.481C635.88 129.625 636.097 130.439 636.475 130.921C636.853 131.403 637.494 131.622 638.399 131.578C639.034 131.547 639.716 131.415 640.445 131.182C640.978 131.003 641.527 130.729 642.095 130.359L641.505 118.209L644.548 118.061L645.303 133.59Z" fill="white"/>
<path d="M653.901 117.372C654.65 117.336 655.435 117.381 656.254 117.508C657.084 117.634 657.856 117.847 658.569 118.147L657.79 120.469C657.164 120.239 656.509 120.067 655.825 119.954C655.141 119.831 654.514 119.783 653.941 119.811C653.088 119.852 652.434 120.04 651.981 120.375C651.528 120.699 651.317 121.195 651.35 121.86C651.374 122.37 651.539 122.748 651.843 122.994C652.147 123.24 652.642 123.451 653.328 123.626L655.86 124.223C656.599 124.395 657.253 124.651 657.822 124.988C658.391 125.326 658.841 125.773 659.17 126.33C659.509 126.877 659.698 127.561 659.738 128.383C659.79 129.455 659.594 130.351 659.149 131.071C658.704 131.781 658.069 132.324 657.242 132.697C656.416 133.071 655.445 133.285 654.332 133.339C653.468 133.381 652.537 133.312 651.537 133.131C650.548 132.95 649.599 132.63 648.69 132.174L649.452 129.806C650.179 130.167 650.969 130.446 651.823 130.645C652.688 130.842 653.474 130.925 654.182 130.891C655.045 130.849 655.714 130.664 656.188 130.339C656.673 130.003 656.896 129.439 656.857 128.649C656.834 128.16 656.695 127.764 656.44 127.464C656.196 127.163 655.763 126.934 655.14 126.776L652.34 126.146C651.242 125.876 650.335 125.43 649.616 124.808C648.908 124.185 648.525 123.286 648.468 122.11C648.418 121.08 648.622 120.225 649.079 119.546C649.536 118.867 650.184 118.351 651.021 117.997C651.859 117.633 652.819 117.425 653.901 117.372Z" fill="white"/>
<path d="M670.445 119.494C669.686 119.531 668.94 119.646 668.209 119.838C667.488 120.019 666.842 120.248 666.271 120.526C665.953 120.676 665.679 120.831 665.448 120.992L666.013 132.584L662.969 132.732L662.215 117.203L664.712 117.082L665.177 118.593C665.578 118.271 666.073 117.955 666.663 117.645C667.253 117.334 667.866 117.064 668.501 116.835C669.147 116.606 669.745 116.468 670.296 116.42L670.445 119.494Z" fill="white"/>
<path fill-rule="evenodd" clip-rule="evenodd" d="M678.669 116.17C680.875 116.063 682.54 116.65 683.666 117.93C684.792 119.21 685.419 121.176 685.548 123.829C685.676 126.472 685.243 128.49 684.247 129.884C683.251 131.267 681.649 132.012 679.443 132.119C677.238 132.226 675.571 131.64 674.445 130.359C673.319 129.069 672.692 127.102 672.563 124.46C672.435 121.807 672.869 119.789 673.865 118.405C674.862 117.022 676.463 116.277 678.669 116.17ZM678.79 118.667C677.51 118.729 676.637 119.23 676.172 120.17C675.707 121.11 675.518 122.492 675.606 124.313C675.694 126.123 676.011 127.473 676.555 128.364C677.109 129.255 678.031 129.669 679.321 129.607C680.601 129.544 681.473 129.044 681.938 128.104C682.404 127.163 682.593 125.788 682.505 123.978C682.416 122.157 682.095 120.8 681.541 119.909C680.987 119.019 680.07 118.605 678.79 118.667Z" fill="white"/>
<path d="M704.763 114.902C705.793 114.852 706.677 115.008 707.414 115.368C708.15 115.718 708.72 116.285 709.123 117.068C709.537 117.851 709.773 118.857 709.833 120.085L710.335 130.432L707.292 130.579L706.807 120.591C706.752 119.457 706.54 118.649 706.173 118.166C705.816 117.683 705.205 117.462 704.342 117.504C703.738 117.533 703.093 117.669 702.406 117.911C701.863 118.094 701.295 118.393 700.704 118.807C700.714 118.852 700.726 118.899 700.735 118.946C700.856 119.504 700.928 120.027 700.952 120.516L701.455 130.863L698.412 131.011L697.927 121.023C697.872 119.889 697.66 119.081 697.293 118.598C696.936 118.115 696.33 117.893 695.478 117.935C694.874 117.964 694.223 118.099 693.525 118.342C693.031 118.508 692.517 118.771 691.983 119.128L692.575 131.294L689.531 131.442L688.777 115.913L691.274 115.792L691.65 116.775C692.584 116.25 693.37 115.888 694.007 115.691C694.643 115.482 695.337 115.361 696.086 115.324C696.835 115.288 697.538 115.378 698.195 115.597C698.745 115.78 699.243 116.131 699.692 116.648C700.465 116.139 701.246 115.747 702.037 115.473C702.991 115.134 703.899 114.944 704.763 114.902Z" fill="white"/>
<path fill-rule="evenodd" clip-rule="evenodd" d="M834.886 104.298C837.445 104.174 839.29 104.459 840.419 105.155C841.557 105.841 842.169 107.062 842.255 108.82C842.319 110.141 842.134 111.173 841.701 111.913C841.267 112.643 840.517 113.191 839.45 113.556C841.979 114.1 843.307 115.674 843.434 118.274C843.5 119.637 843.292 120.748 842.812 121.606C842.343 122.463 841.551 123.111 840.436 123.551C839.33 123.98 837.846 124.24 835.984 124.33L830.365 124.604L829.393 104.565L834.886 104.298ZM836.204 115.012L833.004 115.167L833.339 122.049L836.164 121.913C837.225 121.862 838.068 121.716 838.692 121.477C839.316 121.227 839.762 120.841 840.028 120.317C840.294 119.783 840.406 119.068 840.362 118.173C840.307 117.029 839.938 116.202 839.257 115.692C838.575 115.173 837.557 114.946 836.204 115.012ZM835.486 106.678L832.599 106.817L832.888 112.763L835.947 112.615C837.185 112.555 838.048 112.284 838.535 111.802C839.033 111.319 839.256 110.526 839.202 109.423C839.151 108.362 838.838 107.625 838.266 107.215C837.703 106.794 836.776 106.615 835.486 106.678Z" fill="white"/>
<path d="M859.051 123.21L856.554 123.332L856.177 122.349C855.222 122.875 854.411 123.243 853.743 123.452C853.075 123.651 852.356 123.77 851.586 123.808C850.587 123.856 849.72 123.705 848.983 123.356C848.257 122.995 847.682 122.422 847.258 121.64C846.844 120.857 846.607 119.852 846.548 118.624L846.045 108.276L849.089 108.129L849.573 118.102C849.629 119.246 849.846 120.06 850.224 120.542C850.602 121.024 851.244 121.243 852.148 121.199C852.783 121.168 853.465 121.036 854.193 120.803C854.726 120.625 855.275 120.35 855.843 119.981L855.253 107.829L858.297 107.682L859.051 123.21Z" fill="white"/>
<path d="M867.649 106.993C868.398 106.957 869.183 107.002 870.002 107.129C870.832 107.256 871.604 107.469 872.317 107.768L871.538 110.089C870.912 109.859 870.257 109.687 869.573 109.574C868.89 109.451 868.262 109.404 867.689 109.432C866.836 109.473 866.183 109.661 865.729 109.996C865.276 110.321 865.065 110.816 865.098 111.482C865.122 111.991 865.287 112.369 865.591 112.615C865.895 112.861 866.391 113.072 867.077 113.247L869.608 113.844C870.347 114.017 871.001 114.271 871.57 114.608C872.139 114.946 872.588 115.394 872.918 115.951C873.257 116.498 873.447 117.182 873.487 118.004C873.539 119.076 873.342 119.972 872.897 120.692C872.452 121.402 871.817 121.944 870.99 122.317C870.164 122.691 869.193 122.906 868.08 122.96C867.217 123.002 866.285 122.932 865.285 122.751C864.296 122.57 863.347 122.25 862.438 121.794L863.2 119.427C863.927 119.788 864.717 120.067 865.571 120.266C866.436 120.464 867.222 120.545 867.93 120.511C868.793 120.469 869.462 120.285 869.937 119.96C870.421 119.624 870.644 119.06 870.605 118.27C870.582 117.781 870.443 117.386 870.188 117.085C869.944 116.784 869.511 116.555 868.888 116.398L866.089 115.767C864.991 115.497 864.083 115.051 863.364 114.429C862.656 113.806 862.273 112.906 862.216 111.731C862.166 110.701 862.37 109.846 862.827 109.167C863.284 108.488 863.932 107.972 864.77 107.618C865.607 107.254 866.567 107.046 867.649 106.993Z" fill="white"/>
<path d="M884.193 109.115C883.434 109.152 882.688 109.266 881.957 109.458C881.236 109.639 880.59 109.869 880.02 110.147C879.701 110.296 879.427 110.451 879.197 110.612L879.761 122.205L876.717 122.353L875.963 106.824L878.46 106.703L878.925 108.213C879.326 107.891 879.822 107.575 880.412 107.265C881.002 106.955 881.615 106.685 882.25 106.456C882.896 106.227 883.494 106.088 884.044 106.04L884.193 109.115Z" fill="white"/>
<path fill-rule="evenodd" clip-rule="evenodd" d="M892.417 105.79C894.623 105.683 896.288 106.27 897.414 107.55C898.54 108.83 899.167 110.797 899.296 113.45C899.424 116.093 898.991 118.111 897.995 119.505C896.999 120.888 895.397 121.633 893.191 121.74C890.986 121.847 889.319 121.261 888.193 119.981C887.067 118.69 886.44 116.723 886.312 114.08C886.183 111.427 886.617 109.41 887.613 108.026C888.61 106.643 890.211 105.897 892.417 105.79ZM892.538 108.287C891.258 108.349 890.385 108.851 889.92 109.791C889.455 110.731 889.266 112.112 889.354 113.933C889.442 115.743 889.759 117.094 890.303 117.985C890.857 118.876 891.779 119.29 893.069 119.228C894.349 119.165 895.221 118.664 895.687 117.724C896.152 116.783 896.341 115.408 896.253 113.598C896.165 111.777 895.843 110.421 895.289 109.53C894.735 108.64 893.818 108.225 892.538 108.287Z" fill="white"/>
<path d="M918.511 104.524C919.541 104.474 920.425 104.629 921.162 104.989C921.898 105.339 922.468 105.906 922.871 106.69C923.285 107.472 923.521 108.478 923.581 109.705L924.083 120.053L921.04 120.2L920.555 110.212C920.5 109.078 920.288 108.27 919.921 107.787C919.564 107.304 918.953 107.083 918.09 107.125C917.486 107.154 916.841 107.289 916.154 107.531C915.611 107.714 915.043 108.013 914.452 108.427C914.462 108.473 914.474 108.519 914.483 108.567C914.604 109.125 914.676 109.648 914.7 110.137L915.203 120.483L912.16 120.632L911.675 110.644C911.62 109.51 911.409 108.701 911.041 108.218C910.684 107.735 910.079 107.514 909.226 107.556C908.622 107.585 907.972 107.721 907.274 107.963C906.78 108.13 906.265 108.392 905.731 108.749L906.323 120.915L903.279 121.063L902.525 105.534L905.022 105.413L905.398 106.396C906.332 105.871 907.118 105.509 907.755 105.312C908.391 105.103 909.085 104.981 909.834 104.944C910.583 104.908 911.286 104.999 911.943 105.218C912.493 105.401 912.991 105.751 913.44 106.268C914.213 105.76 914.994 105.368 915.785 105.094C916.739 104.756 917.647 104.565 918.511 104.524Z" fill="white"/>
<path fill-rule="evenodd" clip-rule="evenodd" d="M1048.63 93.918C1051.19 93.7938 1053.04 94.0804 1054.17 94.7764C1055.31 95.4617 1055.92 96.6833 1056 98.4415C1056.07 99.7627 1055.88 100.794 1055.45 101.534C1055.02 102.264 1054.26 102.812 1053.2 103.177C1055.73 103.722 1057.06 105.295 1057.18 107.896C1057.25 109.258 1057.04 110.369 1056.56 111.227C1056.09 112.084 1055.3 112.732 1054.18 113.172C1053.08 113.601 1051.59 113.861 1049.73 113.951L1044.11 114.224L1043.14 94.1856L1048.63 93.918ZM1049.95 104.633L1046.75 104.787L1047.09 111.67L1049.91 111.533C1050.97 111.482 1051.82 111.337 1052.44 111.098C1053.06 110.848 1053.51 110.462 1053.78 109.938C1054.04 109.403 1054.15 108.689 1054.11 107.794C1054.05 106.65 1053.69 105.823 1053 105.314C1052.32 104.794 1051.3 104.567 1049.95 104.633ZM1049.23 96.2979L1046.35 96.4376L1046.64 102.384L1049.7 102.236C1050.93 102.176 1051.8 101.904 1052.28 101.422C1052.78 100.939 1053 100.146 1052.95 99.043C1052.9 97.9819 1052.59 97.2462 1052.01 96.836C1051.45 96.4151 1050.52 96.2353 1049.23 96.2979Z" fill="white"/>
<path d="M1072.8 112.831L1070.3 112.952L1069.93 111.97C1068.97 112.496 1068.16 112.864 1067.49 113.073C1066.82 113.273 1066.1 113.391 1065.33 113.429C1064.34 113.477 1063.47 113.326 1062.73 112.976C1062 112.615 1061.43 112.043 1061.01 111.261C1060.59 110.478 1060.36 109.473 1060.3 108.245L1059.79 97.8975L1062.84 97.7501L1063.32 107.723C1063.38 108.867 1063.59 109.68 1063.97 110.162C1064.35 110.644 1064.99 110.863 1065.9 110.819C1066.53 110.789 1067.21 110.656 1067.94 110.423C1068.47 110.245 1069.02 109.97 1069.59 109.601L1069 97.4503L1072.04 97.3028L1072.8 112.831Z" fill="white"/>
<path d="M1081.4 96.6134C1082.15 96.577 1082.93 96.6231 1083.75 96.7501C1084.58 96.8766 1085.35 97.0897 1086.07 97.3888L1085.29 99.71C1084.66 99.4798 1084 99.3082 1083.32 99.1954C1082.64 99.0722 1082.01 99.0241 1081.44 99.0518C1080.58 99.0933 1079.93 99.2816 1079.48 99.6163C1079.02 99.9408 1078.81 100.437 1078.85 101.103C1078.87 101.612 1079.04 101.99 1079.34 102.235C1079.64 102.481 1080.14 102.692 1080.83 102.867L1083.36 103.464C1084.09 103.637 1084.75 103.892 1085.32 104.23C1085.89 104.567 1086.34 105.015 1086.67 105.572C1087.01 106.119 1087.2 106.803 1087.24 107.625C1087.29 108.697 1087.09 109.592 1086.65 110.313C1086.2 111.022 1085.56 111.565 1084.74 111.939C1083.91 112.312 1082.94 112.526 1081.83 112.58C1080.96 112.622 1080.03 112.553 1079.03 112.372C1078.05 112.191 1077.1 111.871 1076.19 111.415L1076.95 109.047C1077.67 109.408 1078.47 109.688 1079.32 109.887C1080.18 110.085 1080.97 110.166 1081.68 110.132C1082.54 110.09 1083.21 109.906 1083.69 109.58C1084.17 109.244 1084.39 108.68 1084.35 107.89C1084.33 107.401 1084.19 107.007 1083.94 106.706C1083.69 106.405 1083.26 106.175 1082.64 106.018L1079.84 105.388C1078.74 105.118 1077.83 104.671 1077.11 104.049C1076.4 103.426 1076.02 102.527 1075.96 101.352C1075.91 100.322 1076.12 99.4674 1076.58 98.7882C1077.03 98.109 1077.68 97.5919 1078.52 97.2384C1079.36 96.8744 1080.32 96.6659 1081.4 96.6134Z" fill="white"/>
<path d="M1097.94 98.7354C1097.18 98.7723 1096.44 98.8872 1095.71 99.0792C1094.98 99.2602 1094.34 99.4897 1093.77 99.7677C1093.45 99.9168 1093.18 100.072 1092.95 100.233L1093.51 111.825L1090.47 111.974L1089.71 96.4444L1092.21 96.3233L1092.67 97.8341C1093.07 97.5121 1093.57 97.196 1094.16 96.8858C1094.75 96.5757 1095.36 96.3062 1096 96.0772C1096.64 95.8478 1097.24 95.7088 1097.79 95.6612L1097.94 98.7354Z" fill="white"/>
<path fill-rule="evenodd" clip-rule="evenodd" d="M1106.17 95.4112C1108.37 95.3041 1110.04 95.8908 1111.16 97.171C1112.29 98.4511 1112.92 100.418 1113.04 103.07C1113.17 105.713 1112.74 107.731 1111.74 109.125C1110.75 110.508 1109.15 111.254 1106.94 111.361C1104.73 111.469 1103.07 110.882 1101.94 109.602C1100.82 108.311 1100.19 106.344 1100.06 103.701C1099.93 101.048 1100.36 99.0298 1101.36 97.6466C1102.36 96.2633 1103.96 95.5183 1106.17 95.4112ZM1106.29 97.9083C1105.01 97.9704 1104.13 98.4719 1103.67 99.4122C1103.2 100.353 1103.02 101.733 1103.1 103.554C1103.19 105.364 1103.51 106.715 1104.05 107.607C1104.61 108.497 1105.53 108.911 1106.82 108.849C1108.1 108.787 1108.97 108.285 1109.44 107.345C1109.9 106.404 1110.09 105.029 1110 103.219C1109.91 101.398 1109.59 100.042 1109.04 99.1514C1108.48 98.2606 1107.57 97.8461 1106.29 97.9083Z" fill="white"/>
<path d="M1132.26 94.1436C1133.29 94.0936 1134.17 94.2489 1134.91 94.6095C1135.65 94.9596 1136.22 95.5272 1136.62 96.3106C1137.03 97.0935 1137.27 98.0987 1137.33 99.3263L1137.83 109.673L1134.79 109.821L1134.3 99.8331C1134.25 98.699 1134.04 97.89 1133.67 97.4073C1133.31 96.9243 1132.7 96.7033 1131.84 96.7452C1131.23 96.7745 1130.59 96.9105 1129.9 97.1524C1129.36 97.3355 1128.79 97.6343 1128.2 98.0479C1128.21 98.0937 1128.22 98.1398 1128.23 98.1876C1128.35 98.7447 1128.43 99.268 1128.45 99.7569L1128.95 110.105L1125.91 110.252L1125.42 100.264C1125.37 99.1299 1125.16 98.3217 1124.79 97.8389C1124.43 97.3557 1123.83 97.1345 1122.97 97.1759C1122.37 97.2052 1121.72 97.3417 1121.02 97.5841C1120.53 97.7507 1120.01 98.0127 1119.48 98.3702L1120.07 110.536L1117.03 110.684L1116.27 95.1554L1118.77 95.0333L1119.15 96.0167C1120.08 95.4917 1120.87 95.1305 1121.5 94.9327C1122.14 94.7246 1122.83 94.6019 1123.58 94.5655C1124.33 94.5291 1125.03 94.6196 1125.69 94.838C1126.24 95.0207 1126.74 95.3724 1127.19 95.8888C1127.96 95.3806 1128.74 94.9884 1129.53 94.7139C1130.49 94.3757 1131.4 94.1856 1132.26 94.1436Z" fill="white"/>
<path fill-rule="evenodd" clip-rule="evenodd" d="M1262.38 83.5391C1264.94 83.4149 1266.79 83.7005 1267.92 84.3966C1269.05 85.0817 1269.67 86.3042 1269.75 88.0626C1269.82 89.3837 1269.63 90.4148 1269.2 91.1554C1268.76 91.8855 1268.01 92.4333 1266.95 92.7979C1269.48 93.3426 1270.8 94.9149 1270.93 97.5157C1271 98.8785 1270.79 99.9892 1270.31 100.847C1269.84 101.704 1269.05 102.353 1267.93 102.793C1266.83 103.222 1265.34 103.482 1263.48 103.572L1257.86 103.845L1256.89 83.8057L1262.38 83.5391ZM1263.7 94.254L1260.5 94.4083L1260.83 101.291L1263.66 101.154C1264.72 101.103 1265.56 100.958 1266.19 100.719C1266.81 100.47 1267.26 100.083 1267.52 99.5587C1267.79 99.0243 1267.9 98.3098 1267.86 97.4151C1267.8 96.2708 1267.43 95.4439 1266.75 94.9347C1266.07 94.415 1265.05 94.1883 1263.7 94.254ZM1262.98 85.919L1260.09 86.0587L1260.38 92.005L1263.44 91.8565C1264.68 91.7964 1265.54 91.5256 1266.03 91.043C1266.53 90.56 1266.75 89.7668 1266.7 88.6641C1266.65 87.6032 1266.34 86.8674 1265.76 86.4571C1265.2 86.036 1264.27 85.8564 1262.98 85.919Z" fill="white"/>
<path d="M1286.55 102.452L1284.05 102.573L1283.67 101.59C1282.72 102.116 1281.91 102.485 1281.24 102.694C1280.57 102.894 1279.85 103.011 1279.08 103.049C1278.08 103.097 1277.22 102.947 1276.48 102.597C1275.75 102.236 1275.18 101.664 1274.75 100.882C1274.34 100.099 1274.1 99.093 1274.04 97.8653L1273.54 87.5186L1276.58 87.3702L1277.07 97.3429C1277.12 98.4873 1277.34 99.301 1277.72 99.7833C1278.1 100.265 1278.74 100.484 1279.64 100.441C1280.28 100.41 1280.96 100.278 1281.69 100.044C1282.22 99.8657 1282.77 99.5911 1283.34 99.2218L1282.75 87.0714L1285.79 86.9229L1286.55 102.452Z" fill="white"/>
<path d="M1295.15 86.2345C1295.89 86.1981 1296.68 86.2432 1297.5 86.3702C1298.33 86.4968 1299.1 86.7098 1299.81 87.0089L1299.03 89.3311C1298.41 89.1009 1297.75 88.9293 1297.07 88.8165C1296.39 88.6933 1295.76 88.6451 1295.19 88.6729C1294.33 88.7144 1293.68 88.9026 1293.23 89.2374C1292.77 89.5618 1292.56 90.057 1292.59 90.7227C1292.62 91.2326 1292.78 91.6106 1293.09 91.8565C1293.39 92.1024 1293.89 92.3132 1294.57 92.4884L1297.1 93.085C1297.84 93.2578 1298.5 93.5133 1299.07 93.8507C1299.64 94.188 1300.08 94.6351 1300.41 95.1925C1300.75 95.739 1300.94 96.4235 1300.98 97.2452C1301.04 98.3168 1300.84 99.2134 1300.39 99.9337C1299.95 100.644 1299.31 101.186 1298.49 101.56C1297.66 101.933 1296.69 102.147 1295.58 102.201C1294.71 102.243 1293.78 102.174 1292.78 101.993C1291.79 101.812 1290.84 101.493 1289.94 101.036L1290.7 98.668C1291.42 99.0291 1292.21 99.3085 1293.07 99.5069C1293.93 99.7047 1294.72 99.7864 1295.43 99.752C1296.29 99.7101 1296.96 99.5267 1297.43 99.2013C1297.92 98.8649 1298.14 98.3014 1298.1 97.5108C1298.08 97.0218 1297.94 96.6268 1297.68 96.3263C1297.44 96.0253 1297.01 95.7962 1296.38 95.6388L1293.58 95.0079C1292.49 94.7379 1291.58 94.2921 1290.86 93.67C1290.15 93.0474 1289.77 92.1483 1289.71 90.9727C1289.66 89.9427 1289.87 89.0875 1290.32 88.4083C1290.78 87.7292 1291.43 87.213 1292.27 86.8595C1293.1 86.4955 1294.06 86.287 1295.15 86.2345Z" fill="white"/>
<path d="M1311.69 88.3565C1310.93 88.3934 1310.19 88.5075 1309.45 88.6993C1308.73 88.8803 1308.09 89.1108 1307.52 89.3888C1307.2 89.5378 1306.92 89.6926 1306.69 89.8536L1307.26 101.446L1304.21 101.594L1303.46 86.0655L1305.96 85.9444L1306.42 87.4552C1306.82 87.1332 1307.32 86.8171 1307.91 86.5069C1308.5 86.1967 1309.11 85.9264 1309.75 85.6973C1310.39 85.4679 1310.99 85.3299 1311.54 85.2823L1311.69 88.3565Z" fill="white"/>
<path fill-rule="evenodd" clip-rule="evenodd" d="M1319.91 85.0323C1322.12 84.9252 1323.78 85.5118 1324.91 86.7921C1326.04 88.0723 1326.66 90.0385 1326.79 92.6915C1326.92 95.3341 1326.49 97.3525 1325.49 98.7462C1324.49 100.129 1322.89 100.874 1320.69 100.982C1318.48 101.089 1316.82 100.502 1315.69 99.2218C1314.56 97.9312 1313.94 95.9649 1313.81 93.3223C1313.68 90.6693 1314.11 88.651 1315.11 87.2677C1316.11 85.8844 1317.71 85.1394 1319.91 85.0323ZM1320.03 87.5294C1318.75 87.5915 1317.88 88.0923 1317.42 89.0323C1316.95 89.9726 1316.76 91.3534 1316.85 93.1739C1316.94 94.9841 1317.26 96.3353 1317.8 97.2266C1318.35 98.1174 1319.28 98.5314 1320.57 98.4688C1321.85 98.4067 1322.72 97.9061 1323.18 96.9659C1323.65 96.0256 1323.84 94.6493 1323.75 92.8389C1323.66 91.0184 1323.34 89.6623 1322.79 88.7716C1322.23 87.881 1321.31 87.4672 1320.03 87.5294Z" fill="white"/>
<path d="M1346.01 83.7647C1347.04 83.7148 1347.92 83.8701 1348.66 84.2305C1349.39 84.5806 1349.96 85.1475 1350.37 85.9307C1350.78 86.7137 1351.02 87.7196 1351.08 88.9473L1351.58 99.294L1348.54 99.4415L1348.05 89.4532C1348 88.3193 1347.78 87.5111 1347.42 87.0284C1347.06 86.5453 1346.45 86.3244 1345.59 86.3663C1344.98 86.3956 1344.34 86.5316 1343.65 86.7735C1343.11 86.9566 1342.54 87.2555 1341.95 87.669C1341.96 87.7147 1341.97 87.761 1341.98 87.8087C1342.1 88.3659 1342.17 88.8891 1342.2 89.378L1342.7 99.7257L1339.66 99.8731L1339.17 89.8848C1339.12 88.751 1338.9 87.9428 1338.54 87.46C1338.18 86.9768 1337.57 86.7555 1336.72 86.797C1336.12 86.8263 1335.47 86.9618 1334.77 87.2042C1334.28 87.3707 1333.76 87.6332 1333.23 87.9903L1333.82 100.156L1330.78 100.305L1330.02 84.7755L1332.52 84.6544L1332.9 85.6378C1333.83 85.1127 1334.61 84.7506 1335.25 84.5528C1335.89 84.3447 1336.58 84.223 1337.33 84.1866C1338.08 84.1502 1338.78 84.2407 1339.44 84.4591C1339.99 84.6418 1340.49 84.9925 1340.94 85.5089C1341.71 85.001 1342.49 84.6094 1343.28 84.335C1344.24 83.9968 1345.14 83.8067 1346.01 83.7647Z" fill="white"/>
<path fill-rule="evenodd" clip-rule="evenodd" d="M1476.13 73.1602C1478.69 73.036 1480.53 73.3216 1481.66 74.0177C1482.8 74.7028 1483.41 75.9245 1483.5 77.6827C1483.56 79.0039 1483.38 80.0349 1482.95 80.7755C1482.51 81.5057 1481.76 82.0534 1480.69 82.418C1483.22 82.9627 1484.55 84.5358 1484.68 87.1368C1484.74 88.4998 1484.54 89.6102 1484.06 90.4679C1483.59 91.3248 1482.8 91.9731 1481.68 92.4132C1480.58 92.8423 1479.09 93.102 1477.23 93.1925L1471.61 93.4659L1470.64 73.4268L1476.13 73.1602ZM1477.45 83.8741L1474.25 84.0294L1474.58 90.9112L1477.41 90.7755C1478.47 90.7239 1479.31 90.5778 1479.94 90.3389C1480.56 90.0897 1481.01 89.7035 1481.27 89.1798C1481.54 88.6454 1481.65 87.93 1481.61 87.0352C1481.55 85.891 1481.18 85.0639 1480.5 84.5548C1479.82 84.0352 1478.8 83.8084 1477.45 83.8741ZM1476.73 75.5401L1473.84 75.6798L1474.13 81.6251L1477.19 81.4776C1478.43 81.4175 1479.29 81.1467 1479.78 80.6641C1480.28 80.1811 1480.5 79.3879 1480.45 78.2852C1480.39 77.2241 1480.08 76.4875 1479.51 76.0772C1478.95 75.6562 1478.02 75.4775 1476.73 75.5401Z" fill="white"/>
<path d="M1500.29 92.0723L1497.8 92.1944L1497.42 91.211C1496.47 91.737 1495.66 92.1048 1494.99 92.3145C1494.32 92.5138 1493.6 92.6326 1492.83 92.67C1491.83 92.7185 1490.96 92.5679 1490.23 92.2179C1489.5 91.8568 1488.93 91.2845 1488.5 90.502C1488.09 89.7191 1487.85 88.714 1487.79 87.4864L1487.29 77.1388L1490.33 76.9913L1490.82 86.9639C1490.87 88.1084 1491.09 88.9222 1491.47 89.4044C1491.85 89.8864 1492.49 90.1055 1493.39 90.0616C1494.03 90.0308 1494.71 89.8986 1495.44 89.6651C1495.97 89.4868 1496.52 89.2113 1497.09 88.8419L1496.5 76.6915L1499.54 76.544L1500.29 92.0723Z" fill="white"/>
<path d="M1508.89 75.8555C1509.64 75.8192 1510.43 75.8642 1511.25 75.9913C1512.08 76.1179 1512.85 76.3309 1513.56 76.63L1512.78 78.9513C1512.16 78.7211 1511.5 78.5494 1510.82 78.4366C1510.13 78.3134 1509.51 78.2662 1508.93 78.294C1508.08 78.3355 1507.43 78.5236 1506.97 78.8585C1506.52 79.1829 1506.31 79.6779 1506.34 80.3438C1506.37 80.8536 1506.53 81.2317 1506.84 81.4776C1507.14 81.7235 1507.64 81.9343 1508.32 82.1095L1510.85 82.7061C1511.59 82.8789 1512.25 83.1335 1512.81 83.4708C1513.38 83.8082 1513.83 84.256 1514.16 84.8136C1514.5 85.3602 1514.69 86.0444 1514.73 86.8663C1514.78 87.9379 1514.59 88.8344 1514.14 89.5548C1513.7 90.2646 1513.06 90.8059 1512.23 91.1798C1511.41 91.5536 1510.44 91.7683 1509.32 91.8223C1508.46 91.8642 1507.53 91.7942 1506.53 91.6134C1505.54 91.432 1504.59 91.1128 1503.68 90.6563L1504.44 88.2891C1505.17 88.6502 1505.96 88.9296 1506.82 89.128C1507.68 89.3258 1508.47 89.4075 1509.17 89.3731C1510.04 89.3312 1510.71 89.1478 1511.18 88.8223C1511.67 88.486 1511.89 87.9223 1511.85 87.1319C1511.83 86.6429 1511.69 86.2479 1511.43 85.9473C1511.19 85.6464 1510.76 85.4173 1510.13 85.2598L1507.33 84.629C1506.24 84.359 1505.33 83.9131 1504.61 83.2911C1503.9 82.6685 1503.52 81.7686 1503.46 80.5929C1503.41 79.563 1503.61 78.7085 1504.07 78.0294C1504.53 77.3502 1505.18 76.8341 1506.01 76.4805C1506.85 76.1166 1507.81 75.9081 1508.89 75.8555Z" fill="white"/>
<path d="M1525.44 77.9776C1524.68 78.0145 1523.93 78.1285 1523.2 78.3204C1522.48 78.5014 1521.84 78.731 1521.26 79.0089C1520.95 79.158 1520.67 79.3136 1520.44 79.4747L1521 91.0675L1517.96 91.2149L1517.21 75.6866L1519.71 75.5655L1520.17 77.0753C1520.57 76.7533 1521.07 76.4372 1521.66 76.127C1522.25 75.8169 1522.86 75.5474 1523.49 75.3184C1524.14 75.089 1524.74 74.95 1525.29 74.9024L1525.44 77.9776Z" fill="white"/>
<path fill-rule="evenodd" clip-rule="evenodd" d="M1533.66 74.6524C1535.87 74.5453 1537.53 75.132 1538.66 76.4122C1539.79 77.6924 1540.41 79.6595 1540.54 82.3126C1540.67 84.9552 1540.24 86.9736 1539.24 88.3673C1538.24 89.7505 1536.64 90.4955 1534.44 90.6026C1532.23 90.7097 1530.56 90.123 1529.44 88.8429C1528.31 87.5522 1527.68 85.5852 1527.56 82.9425C1527.43 80.2899 1527.86 78.272 1528.86 76.8888C1529.85 75.5055 1531.46 74.7595 1533.66 74.6524ZM1533.78 77.1495C1532.5 77.2117 1531.63 77.7132 1531.17 78.6534C1530.7 79.5937 1530.51 80.9743 1530.6 82.795C1530.69 84.6053 1531 85.9564 1531.55 86.8477C1532.1 87.7385 1533.02 88.1525 1534.31 88.0899C1535.59 88.0278 1536.47 87.5264 1536.93 86.586C1537.4 85.6457 1537.58 84.2702 1537.5 82.46C1537.41 80.6393 1537.09 79.2835 1536.53 78.3927C1535.98 77.502 1535.06 77.0874 1533.78 77.1495Z" fill="white"/>
<path d="M1559.76 73.3858C1560.79 73.3359 1561.67 73.4912 1562.41 73.8516C1563.14 74.2017 1563.71 74.7685 1564.12 75.5518C1564.53 76.3347 1564.77 77.3398 1564.83 78.5675L1565.33 88.9151L1562.28 89.0626L1561.8 79.0743C1561.74 77.9403 1561.53 77.1322 1561.17 76.6495C1560.81 76.1662 1560.2 75.9455 1559.33 75.9874C1558.73 76.0167 1558.09 76.1517 1557.4 76.3936C1556.85 76.5767 1556.29 76.8757 1555.7 77.2891C1555.71 77.335 1555.72 77.3818 1555.73 77.4298C1555.85 77.9869 1555.92 78.5102 1555.95 78.9991L1556.45 89.3458L1553.4 89.4942L1552.92 79.5059C1552.86 78.3719 1552.65 77.5629 1552.29 77.0802C1551.93 76.597 1551.32 76.3766 1550.47 76.418C1549.87 76.4474 1549.22 76.5829 1548.52 76.8253C1548.02 76.9918 1547.51 77.2542 1546.98 77.6114L1547.57 89.7774L1544.52 89.9249L1543.77 74.3966L1546.27 74.2755L1546.64 75.2579C1547.58 74.7329 1548.36 74.3717 1549 74.1739C1549.64 73.9657 1550.33 73.8431 1551.08 73.8067C1551.83 73.7703 1552.53 73.8618 1553.19 74.0802C1553.74 74.263 1554.24 74.6142 1554.69 75.1309C1555.46 74.6228 1556.24 74.2306 1557.03 73.9561C1557.98 73.6179 1558.89 73.4278 1559.76 73.3858Z" fill="white"/>
<path fill-rule="evenodd" clip-rule="evenodd" d="M1689.88 62.7804C1692.44 62.6561 1694.28 62.9427 1695.41 63.6388C1696.55 64.3239 1697.16 65.5456 1697.25 67.3038C1697.31 68.6251 1697.13 69.6559 1696.69 70.3966C1696.26 71.1268 1695.51 71.6745 1694.44 72.0391C1696.97 72.5838 1698.3 74.1568 1698.43 76.7579C1698.49 78.1208 1698.29 79.2314 1697.81 80.0889C1697.34 80.9458 1696.54 81.5943 1695.43 82.0343C1694.32 82.4634 1692.84 82.7231 1690.98 82.8136L1685.36 83.086L1684.38 63.0479L1689.88 62.7804ZM1691.2 73.4952L1688 73.6495L1688.33 80.5323L1691.16 80.3956C1692.22 80.3441 1693.06 80.1989 1693.69 79.96C1694.31 79.7107 1694.75 79.3237 1695.02 78.7999C1695.29 78.2656 1695.4 77.5509 1695.35 76.6563C1695.3 75.5119 1694.93 74.685 1694.25 74.1759C1693.57 73.6563 1692.55 73.4295 1691.2 73.4952ZM1690.48 65.1602L1687.59 65.2999L1687.88 71.2462L1690.94 71.0987C1692.18 71.0386 1693.04 70.7668 1693.53 70.2843C1694.03 69.8012 1694.25 69.0081 1694.19 67.9054C1694.14 66.8443 1693.83 66.1085 1693.26 65.6983C1692.7 65.2772 1691.77 65.0976 1690.48 65.1602Z" fill="white"/>
<path d="M1714.04 81.6934L1711.55 81.8145L1711.17 80.8321C1710.22 81.3581 1709.4 81.7259 1708.74 81.9356C1708.07 82.1349 1707.35 82.2527 1706.58 82.2901C1705.58 82.3386 1704.71 82.1881 1703.98 81.838C1703.25 81.477 1702.67 80.9054 1702.25 80.1231C1701.84 79.3402 1701.6 78.3342 1701.54 77.1065L1701.04 66.7598L1704.08 66.6124L1704.57 76.585C1704.62 77.7292 1704.84 78.5423 1705.22 79.0245C1705.59 79.5067 1706.24 79.7257 1707.14 79.6817C1707.78 79.6509 1708.46 79.5188 1709.19 79.2852C1709.72 79.1069 1710.27 78.8323 1710.84 78.463L1710.25 66.3126L1713.29 66.1651L1714.04 81.6934Z" fill="white"/>
<path d="M1722.64 65.4757C1723.39 65.4393 1724.18 65.4853 1725 65.6124C1725.83 65.7389 1726.6 65.952 1727.31 66.2511L1726.53 68.5723C1725.9 68.3421 1725.25 68.1705 1724.57 68.0577C1723.88 67.9345 1723.25 67.8864 1722.68 67.9141C1721.83 67.9556 1721.18 68.1439 1720.72 68.4786C1720.27 68.8031 1720.06 69.299 1720.09 69.9649C1720.12 70.4745 1720.28 70.8518 1720.58 71.0977C1720.89 71.3437 1721.38 71.5543 1722.07 71.7296L1724.6 72.3263C1725.34 72.499 1725.99 72.7545 1726.56 73.0919C1727.13 73.4293 1727.58 73.8771 1727.91 74.4347C1728.25 74.9813 1728.44 75.6655 1728.48 76.4874C1728.53 77.5588 1728.34 78.4546 1727.89 79.1749C1727.45 79.8848 1726.81 80.427 1725.98 80.8009C1725.16 81.1746 1724.19 81.3884 1723.07 81.4425C1722.21 81.4844 1721.28 81.4153 1720.28 81.2345C1719.29 81.0531 1718.34 80.7339 1717.43 80.2774L1718.19 77.9093C1718.92 78.2703 1719.71 78.5507 1720.56 78.7491C1721.43 78.9469 1722.22 79.0286 1722.92 78.9942C1723.79 78.9523 1724.46 78.7679 1724.93 78.4425C1725.41 78.1061 1725.64 77.5426 1725.6 76.752C1725.57 76.2632 1725.44 75.8689 1725.18 75.5684C1724.94 75.2675 1724.5 75.0374 1723.88 74.88L1721.08 74.2501C1719.98 73.9801 1719.07 73.5333 1718.36 72.9112C1717.65 72.2886 1717.27 71.3895 1717.21 70.2139C1717.16 69.1841 1717.36 68.3296 1717.82 67.6505C1718.28 66.9712 1718.92 66.4542 1719.76 66.1007C1720.6 65.7368 1721.56 65.5282 1722.64 65.4757Z" fill="white"/>
<path d="M1739.19 67.5977C1738.43 67.6346 1737.68 67.7496 1736.95 67.9415C1736.23 68.1225 1735.58 68.352 1735.01 68.63C1734.69 68.7792 1734.42 68.9346 1734.19 69.0958L1734.75 80.6876L1731.71 80.836L1730.96 65.3067L1733.45 65.1856L1733.92 66.6964C1734.32 66.3744 1734.81 66.0583 1735.4 65.7481C1735.99 65.4379 1736.61 65.1685 1737.24 64.9395C1737.89 64.71 1738.49 64.5711 1739.04 64.5235L1739.19 67.5977Z" fill="white"/>
<path fill-rule="evenodd" clip-rule="evenodd" d="M1747.41 64.2735C1749.61 64.1664 1751.28 64.7531 1752.41 66.0333C1753.53 67.3134 1754.16 69.28 1754.29 71.9327C1754.42 74.5753 1753.98 76.5937 1752.99 77.9874C1751.99 79.3707 1750.39 80.1166 1748.18 80.2237C1745.98 80.3307 1744.31 79.744 1743.19 78.4639C1742.06 77.1733 1741.43 75.2063 1741.3 72.5636C1741.18 69.9105 1741.61 67.8921 1742.61 66.5089C1743.6 65.1256 1745.2 64.3807 1747.41 64.2735ZM1747.53 66.7706C1746.25 66.8328 1745.38 67.3342 1744.91 68.2745C1744.45 69.2148 1744.26 70.5954 1744.35 72.4161C1744.44 74.2264 1744.75 75.5775 1745.29 76.4688C1745.85 77.3595 1746.77 77.7736 1748.06 77.711C1749.34 77.6489 1750.21 77.1475 1750.68 76.2071C1751.15 75.2668 1751.33 73.8914 1751.25 72.0811C1751.16 70.2604 1750.84 68.9046 1750.28 68.0138C1749.73 67.1229 1748.81 66.7084 1747.53 66.7706Z" fill="white"/>
<path d="M1773.5 63.0059C1774.53 62.956 1775.42 63.1113 1776.15 63.4718C1776.89 63.8218 1777.46 64.3886 1777.86 65.172C1778.28 65.9549 1778.51 66.9608 1778.57 68.1886L1779.08 78.5352L1776.03 78.6837L1775.55 68.6954C1775.49 67.5613 1775.28 66.7524 1774.91 66.2696C1774.56 65.7864 1773.95 65.5656 1773.08 65.6075C1772.48 65.6368 1771.83 65.7728 1771.15 66.0147C1770.6 66.1978 1770.04 66.4968 1769.45 66.9102C1769.46 66.956 1769.47 67.0021 1769.48 67.0499C1769.6 67.607 1769.67 68.1303 1769.69 68.6192L1770.2 78.9669L1767.15 79.1143L1766.67 69.1261C1766.61 67.9921 1766.4 67.1839 1766.03 66.7013C1765.68 66.218 1765.07 65.9967 1764.22 66.0382C1763.61 66.0675 1762.96 66.2039 1762.27 66.4464C1761.77 66.6129 1761.26 66.8744 1760.72 67.2315L1761.32 79.3975L1758.27 79.546L1757.52 64.0177L1760.02 63.8956L1760.39 64.879C1761.33 64.3539 1762.11 63.9928 1762.75 63.795C1763.38 63.5868 1764.08 63.4642 1764.83 63.4278C1765.58 63.3914 1766.28 63.482 1766.94 63.7003C1767.49 63.8831 1767.98 64.2345 1768.43 64.7511C1769.21 64.243 1769.99 63.8507 1770.78 63.5763C1771.73 63.238 1772.64 63.0479 1773.5 63.0059Z" fill="white"/>
<path fill-rule="evenodd" clip-rule="evenodd" d="M1903.63 52.4014C1906.19 52.2772 1908.03 52.5629 1909.16 53.2589C1910.3 53.944 1910.91 55.1665 1911 56.9249C1911.06 58.246 1910.87 59.2771 1910.44 60.0177C1910.01 60.7477 1909.26 61.2956 1908.19 61.6602C1910.72 62.2048 1912.05 63.7771 1912.17 66.378C1912.24 67.7409 1912.03 68.8515 1911.55 69.7091C1911.08 70.5662 1910.29 71.2153 1909.18 71.6554C1908.07 72.0845 1906.59 72.3442 1904.72 72.4347L1899.11 72.7071L1898.13 52.668L1903.63 52.4014ZM1904.95 63.1163L1901.75 63.2706L1902.08 70.1534L1904.9 70.0167C1905.97 69.9651 1906.81 69.82 1907.43 69.5811C1908.06 69.3318 1908.5 68.9449 1908.77 68.421C1909.04 67.8867 1909.15 67.172 1909.1 66.2774C1909.05 65.133 1908.68 64.3062 1908 63.797C1907.31 63.2774 1906.3 63.0507 1904.95 63.1163ZM1904.23 54.7813L1901.34 54.921L1901.63 60.8673L1904.69 60.7188C1905.93 60.6587 1906.79 60.3879 1907.28 59.9054C1907.77 59.4223 1908 58.6292 1907.94 57.5264C1907.89 56.4654 1907.58 55.7297 1907.01 55.3194C1906.44 54.8983 1905.52 54.7187 1904.23 54.7813Z" fill="white"/>
<path d="M1918.31 66.2052C1918.37 67.3496 1918.59 68.1634 1918.96 68.6456C1919.2 68.9511 1919.55 69.15 1920 69.2442V71.918C1919.14 71.922 1918.38 71.7704 1917.72 71.4591C1917 71.0981 1916.42 70.5264 1916 69.7442C1915.58 68.9613 1915.35 67.9553 1915.29 66.7276L1914.79 56.3809L1917.83 56.2325L1918.31 66.2052Z" fill="white"/>
</svg>
