<svg width="1080" height="1200" viewBox="0 0 1080 1200" fill="none" xmlns="http://www.w3.org/2000/svg">
<path d="M620.172 584.594C626.578 584.594 631.057 586.885 633.609 591.469C636.161 596.052 637.438 602.901 637.438 612.016C637.438 621.078 636.161 627.901 633.609 632.484C631.057 637.068 626.578 639.359 620.172 639.359C613.714 639.359 609.208 637.068 606.656 632.484C604.156 627.901 602.906 621.078 602.906 612.016C602.906 602.901 604.182 596.052 606.734 591.469C609.286 586.885 613.766 584.594 620.172 584.594Z" fill="#F6F4ED"/>
<path d="M337.203 604.516C343.974 604.516 349 605.896 352.281 608.656C355.562 611.365 357.203 615.583 357.203 621.312C357.203 625.792 356.474 629.333 355.016 631.938C353.557 634.49 351.24 636.312 348.062 637.406C344.885 638.448 340.641 638.969 335.328 638.969H321.188V604.516H337.203Z" fill="#F6F4ED"/>
<path d="M335.641 562.719C342.099 562.719 346.682 563.839 349.391 566.078C352.151 568.266 353.531 572.016 353.531 577.328C353.531 582.849 352.229 586.755 349.625 589.047C347.073 591.339 342.698 592.484 336.5 592.484H321.188V562.719H335.641Z" fill="#F6F4ED"/>
<path fill-rule="evenodd" clip-rule="evenodd" d="M1080 1200H0V0H1080V1200ZM387.984 573.266V625.062C387.984 631.208 388.922 636.286 390.797 640.297C392.724 644.307 395.458 647.302 399 649.281C402.594 651.208 406.891 652.172 411.891 652.172C415.745 652.172 419.365 651.755 422.75 650.922C426.135 650.036 430.276 648.396 435.172 646L436.812 651H449.312V573.266H434.078V634.094C431.154 635.8 428.342 637.036 425.641 637.797C421.943 638.786 418.505 639.281 415.328 639.281C410.797 639.281 407.646 638.031 405.875 635.531C404.104 633.031 403.219 628.917 403.219 623.188V573.266H387.984ZM496.188 572.094C490.771 572.094 485.927 572.901 481.656 574.516C477.385 576.078 474.026 578.5 471.578 581.781C469.13 585.062 467.906 589.281 467.906 594.438C467.906 600.323 469.599 604.906 472.984 608.188C476.422 611.469 480.849 613.917 486.266 615.531L500.094 619.359C503.167 620.297 505.276 621.547 506.422 623.109C507.62 624.672 508.219 626.677 508.219 629.125C508.219 633.083 506.969 635.844 504.469 637.406C502.021 638.917 498.635 639.672 494.312 639.672C490.771 639.672 486.865 639.073 482.594 637.875C478.375 636.677 474.495 635.089 470.953 633.109L466.578 644.75C471.005 647.25 475.667 649.073 480.562 650.219C485.51 651.365 490.146 651.938 494.469 651.938C500.042 651.938 504.938 651.104 509.156 649.438C513.375 647.771 516.682 645.219 519.078 641.781C521.474 638.292 522.672 633.865 522.672 628.5C522.672 624.385 521.891 620.922 520.328 618.109C518.818 615.245 516.682 612.901 513.922 611.078C511.161 609.255 507.958 607.823 504.312 606.781L491.812 603.188C488.427 602.146 486.005 600.974 484.547 599.672C483.089 598.37 482.359 596.443 482.359 593.891C482.359 590.557 483.531 588.135 485.875 586.625C488.219 585.062 491.526 584.281 495.797 584.281C498.661 584.281 501.786 584.672 505.172 585.453C508.557 586.182 511.786 587.198 514.859 588.5L519.312 577.094C515.823 575.427 512.021 574.177 507.906 573.344C503.844 572.51 499.938 572.094 496.188 572.094ZM620.172 572.094C609.13 572.094 600.953 575.427 595.641 582.094C590.328 588.76 587.672 598.734 587.672 612.016C587.672 625.245 590.328 635.219 595.641 641.938C600.953 648.604 609.13 651.938 620.172 651.938C631.214 651.938 639.391 648.604 644.703 641.938C650.016 635.219 652.672 625.245 652.672 612.016C652.672 598.734 650.016 588.76 644.703 582.094C639.391 575.427 631.214 572.094 620.172 572.094ZM305.719 550.688V651H333.844C343.167 651 350.641 650.062 356.266 648.188C361.943 646.26 366.057 643.214 368.609 639.047C371.214 634.88 372.516 629.385 372.516 622.562C372.516 609.542 366.266 601.365 353.766 598.031C359.182 596.469 363.062 593.917 365.406 590.375C367.75 586.781 368.922 581.677 368.922 575.062C368.922 566.26 366.161 560.01 360.641 556.312C355.172 552.562 346.031 550.688 333.219 550.688H305.719ZM578.297 571.312C575.536 571.417 572.516 571.964 569.234 572.953C566.005 573.943 562.88 575.141 559.859 576.547C556.839 577.953 554.286 579.411 552.203 580.922L550.25 573.266H537.75V651H552.984V592.967C554.173 592.219 555.579 591.511 557.203 590.844C560.12 589.594 563.401 588.604 567.047 587.875C570.745 587.094 574.495 586.703 578.297 586.703V571.312ZM750.797 572.094C746.474 572.094 741.891 572.823 737.047 574.281C733.032 575.459 729.037 577.224 725.059 579.572C722.94 576.884 720.531 575.015 717.828 573.969C714.599 572.719 711.109 572.094 707.359 572.094C703.609 572.094 700.12 572.536 696.891 573.422C693.661 574.255 689.651 575.87 684.859 578.266L683.219 573.266H670.719V651H685.953V590.097C688.705 588.443 691.334 587.258 693.844 586.547C697.385 585.505 700.667 584.984 703.688 584.984C707.958 584.984 710.927 586.234 712.594 588.734C714.312 591.234 715.172 595.323 715.172 601V651H730.406V599.203C730.406 596.755 730.172 594.125 729.703 591.312C729.668 591.069 729.628 590.832 729.59 590.599C732.639 588.68 735.541 587.329 738.297 586.547C741.786 585.505 745.042 584.984 748.062 584.984C752.385 584.984 755.38 586.234 757.047 588.734C758.766 591.234 759.625 595.323 759.625 601V651H774.859V599.203C774.859 593.057 773.922 587.979 772.047 583.969C770.224 579.958 767.516 576.99 763.922 575.062C760.328 573.083 755.953 572.094 750.797 572.094Z" fill="#F6F4ED"/>
</svg>
