<svg width="1920" height="1080" viewBox="0 0 1920 1080" fill="none" xmlns="http://www.w3.org/2000/svg">
<path d="M1111.57 509.488C1123.58 509.488 1131.98 513.785 1136.77 522.379C1141.55 530.973 1143.95 543.814 1143.95 560.904C1143.95 577.896 1141.55 590.689 1136.77 599.283C1131.98 607.877 1123.58 612.174 1111.57 612.174C1099.46 612.174 1091.02 607.877 1086.23 599.283C1081.54 590.689 1079.2 577.896 1079.2 560.904C1079.2 543.814 1081.59 530.973 1086.38 522.379C1091.16 513.785 1099.56 509.488 1111.57 509.488Z" fill="#F6F4ED"/>
<path d="M581.006 546.842C593.701 546.842 603.125 549.43 609.277 554.605C615.43 559.684 618.506 567.594 618.506 578.336C618.506 586.734 617.139 593.375 614.404 598.258C611.67 603.043 607.324 606.461 601.367 608.512C595.41 610.465 587.451 611.441 577.49 611.441H550.977V546.842H581.006Z" fill="#F6F4ED"/>
<path d="M578.076 468.473C590.186 468.473 598.779 470.572 603.857 474.771C609.033 478.873 611.621 485.904 611.621 495.865C611.621 506.217 609.18 513.541 604.297 517.838C599.512 522.135 591.309 524.283 579.688 524.283H550.977V468.473H578.076Z" fill="#F6F4ED"/>
<path fill-rule="evenodd" clip-rule="evenodd" d="M1920 1080H0V0H1920V1080ZM676.221 488.248V585.367C676.221 596.891 677.979 606.412 681.494 613.932C685.107 621.451 690.234 627.066 696.875 630.777C703.613 634.391 711.67 636.197 721.045 636.197C728.271 636.197 735.059 635.416 741.406 633.854C747.754 632.193 755.518 629.117 764.697 624.625L767.773 634H791.211V488.248H762.646V602.302C757.164 605.501 751.892 607.817 746.826 609.244C739.893 611.1 733.447 612.027 727.49 612.027C718.994 612.027 713.086 609.684 709.766 604.996C706.445 600.309 704.785 592.594 704.785 581.852V488.248H676.221ZM879.102 486.051C868.945 486.051 859.863 487.564 851.855 490.592C843.848 493.521 837.549 498.062 832.959 504.215C828.369 510.367 826.074 518.277 826.074 527.945C826.074 538.98 829.248 547.574 835.596 553.727C842.041 559.879 850.342 564.469 860.498 567.496L886.426 574.674C892.188 576.432 896.143 578.775 898.291 581.705C900.537 584.635 901.66 588.395 901.66 592.984C901.66 600.406 899.316 605.582 894.629 608.512C890.039 611.344 883.691 612.76 875.586 612.76C868.945 612.76 861.621 611.637 853.613 609.391C845.703 607.145 838.428 604.166 831.787 600.455L823.584 622.281C831.885 626.969 840.625 630.387 849.805 632.535C859.082 634.684 867.773 635.758 875.879 635.758C886.328 635.758 895.508 634.195 903.418 631.07C911.328 627.945 917.529 623.16 922.021 616.715C926.514 610.172 928.76 601.871 928.76 591.812C928.76 584.098 927.295 577.604 924.365 572.33C921.533 566.959 917.529 562.564 912.354 559.146C907.178 555.729 901.172 553.043 894.336 551.09L870.898 544.352C864.551 542.398 860.01 540.201 857.275 537.76C854.541 535.318 853.174 531.705 853.174 526.92C853.174 520.67 855.371 516.129 859.766 513.297C864.16 510.367 870.361 508.902 878.369 508.902C883.74 508.902 889.6 509.635 895.947 511.1C902.295 512.467 908.35 514.371 914.111 516.812L922.461 495.426C915.918 492.301 908.789 489.957 901.074 488.395C893.457 486.832 886.133 486.051 879.102 486.051ZM1111.57 486.051C1090.87 486.051 1075.54 492.301 1065.58 504.801C1055.62 517.301 1050.63 536.002 1050.63 560.904C1050.63 585.709 1055.62 604.41 1065.58 617.008C1075.54 629.508 1090.87 635.758 1111.57 635.758C1132.28 635.758 1147.61 629.508 1157.57 617.008C1167.53 604.41 1172.51 585.709 1172.51 560.904C1172.51 536.002 1167.53 517.301 1157.57 504.801C1147.61 492.301 1132.28 486.051 1111.57 486.051ZM521.973 445.914V634H574.707C592.188 634 606.201 632.242 616.748 628.727C627.393 625.113 635.107 619.4 639.893 611.588C644.775 603.775 647.217 593.473 647.217 580.68C647.217 556.266 635.498 540.934 612.061 534.684C622.217 531.754 629.492 526.969 633.887 520.328C638.281 513.59 640.479 504.02 640.479 491.617C640.479 475.113 635.303 463.395 624.951 456.461C614.697 449.43 597.559 445.914 573.535 445.914H521.973ZM1033.06 484.586C1027.88 484.781 1022.22 485.807 1016.06 487.662C1010.01 489.518 1004.15 491.764 998.486 494.4C992.822 497.037 988.037 499.771 984.131 502.604L980.469 488.248H957.031V634H985.596V525.188C987.824 523.785 990.46 522.458 993.506 521.207C998.975 518.863 1005.13 517.008 1011.96 515.641C1018.9 514.176 1025.93 513.443 1033.06 513.443V484.586ZM1356.49 486.051C1348.39 486.051 1339.79 487.418 1330.71 490.152C1323.19 492.361 1315.69 495.667 1308.24 500.068C1304.26 495.029 1299.74 491.528 1294.68 489.566C1288.62 487.223 1282.08 486.051 1275.05 486.051C1268.02 486.051 1261.47 486.881 1255.42 488.541C1249.37 490.104 1241.85 493.131 1232.86 497.623L1229.79 488.248H1206.35V634H1234.91V519.807C1240.07 516.705 1245 514.485 1249.71 513.15C1256.35 511.197 1262.5 510.221 1268.16 510.221C1276.17 510.221 1281.74 512.564 1284.86 517.252C1288.09 521.939 1289.7 529.605 1289.7 540.25V634H1318.26V536.881C1318.26 532.291 1317.82 527.359 1316.94 522.086C1316.88 521.63 1316.81 521.183 1316.74 520.746C1322.45 517.149 1327.89 514.616 1333.06 513.15C1339.6 511.197 1345.7 510.221 1351.37 510.221C1359.47 510.221 1365.09 512.564 1368.21 517.252C1371.44 521.939 1373.05 529.605 1373.05 540.25V634H1401.61V536.881C1401.61 525.357 1399.85 515.836 1396.34 508.316C1392.92 500.797 1387.84 495.23 1381.1 491.617C1374.37 487.906 1366.16 486.051 1356.49 486.051Z" fill="#F6F4ED"/>
</svg>
