<svg width="1920" height="1081" viewBox="0 0 1920 1081" fill="none" xmlns="http://www.w3.org/2000/svg">
<path d="M1920 1081H0V1H1187.33C708.882 349.138 803.07 420.74 1188.7 671.5C1341.2 773.667 1611.7 920 1644.2 1080.5H1919.7V1H1920V1081Z" fill="#555022"/>
<path d="M1197.21 0C717.434 348.838 811.39 420.306 1197.21 671.189C1349.64 773.309 1620.02 919.574 1652.5 1080H1471.88V1069.5C1391.92 992.54 995.104 876.094 833.679 643.202C685.748 385.322 238.955 78.4637 142.5 7.9963V0H1197.21Z" fill="white" fill-opacity="0.05"/>
<path d="M1197.14 1C717.53 347.986 811.532 419.118 1197.36 668.73C1349.81 770.347 1620.24 915.893 1652.73 1075.53H1736.5V1081L889.75 1076.03C863.358 1048.97 782.115 1000.1 744.793 979.051C656.818 937.775 491.367 661.27 466.375 583.69C434.384 442.951 171.628 141.084 41.5 1.33996L1197.14 1Z" fill="white" fill-opacity="0.05"/>
<path d="M100.5 896.5C72.9 909.3 23 957.833 1.5 980.5L0 1081H639.5V1080.5C614 1065 408.5 956 350.5 926.5C292.5 897 229 883 190 879.5C151 876 135 880.5 100.5 896.5Z" fill="white" fill-opacity="0.05"/>
<path d="M1202.44 1C722.385 349.838 816.396 421.306 1202.44 672.189C1354.96 774.309 1625.5 920.574 1658 1081H1642.3C1609.79 920.574 1339.26 774.309 1186.74 672.189C800.694 421.305 706.682 349.838 1186.74 1H1202.44Z" fill="white"/>
</svg>
