<svg width="1920" height="1080" viewBox="0 0 1920 1080" fill="none" xmlns="http://www.w3.org/2000/svg">
<path d="M161.5 0L0 305.5V0H161.5Z" fill="#9A9460"/>
<path d="M1920 1080H1046L1330.5 365.5L901 0H1920V1080Z" fill="#9A9460"/>
<path d="M135 0L0 188V306L162 0H135Z" fill="#5B5414"/>
<path d="M997.025 0L1390 392.5L1072.5 1080H1046L1330.5 365.5L901 0H997.025Z" fill="#5B5414"/>
<path d="M1421.5 348.5C1397.5 312.5 1314.5 100.5 1235.5 0H1920V836.5C1721.5 632 1485.5 540.5 1421.5 348.5Z" fill="white" fill-opacity="0.1"/>
<path d="M795.5 953.5L699 1080L483 1080H462.5L420 1039.5L396 1023L330.5 1080H36.5H19L0 1053.5V798.5L106 705.5C168 644.5 227.5 673 251.5 696L398 829L478.5 722.5C511.5 684 560 671 610 701L781.5 803C851.5 855 821 929 795.5 953.5Z" fill="#FFDE82"/>
<path d="M699 1080H482.5L388 1016L395.5 854.5L478 730.5C508 695.5 563 680.5 608 710.5L741 798C790.5 822.5 830.5 884.5 783 952.5L699 1080Z" fill="#FFF5D8"/>
</svg>
