<svg width="1920" height="1080" viewBox="0 0 1920 1080" fill="none" xmlns="http://www.w3.org/2000/svg">
<path d="M999.56 454.547C952.306 501.8 952.306 578.414 999.56 625.667L1453.89 1080H0V0H1454.11L999.56 454.547Z" fill="#FFFCF2"/>
<path d="M1012.47 473.061C975.759 509.77 975.759 569.287 1012.47 605.996L1486.47 1080H1453.89L999.56 625.667C952.307 578.414 952.307 501.8 999.56 454.547L1454.11 0H1485.53L1012.47 473.061Z" fill="#756F3F"/>
<path d="M1112.48 193.711C1151.53 154.658 1214.85 154.658 1253.9 193.711L1257.15 196.957L999.56 454.547C952.307 501.8 952.307 578.413 999.56 625.667L1257.24 883.343L1253.9 886.676C1214.85 925.728 1151.53 925.728 1112.48 886.676L836.711 610.904C797.658 571.852 797.658 508.535 836.711 469.482L1112.48 193.711Z" fill="#AEA76D"/>
</svg>
