<svg width="1920" height="1080" viewBox="0 0 1920 1080" fill="none" xmlns="http://www.w3.org/2000/svg">
<rect width="1920" height="1080" fill="#6E6941"/>
<path d="M302.5 35C304.821 35 305.982 35.0003 306.964 35.0098C418.094 36.0796 507.92 125.906 508.99 237.036C509 238.018 509 239.179 509 241.5V1074.5C509 1076.82 509 1077.98 508.99 1078.96C508.987 1079.31 508.982 1079.65 508.977 1080H96.0234C96.0184 1079.65 96.0131 1079.31 96.0098 1078.96C96.0003 1077.98 96 1076.82 96 1074.5V241.5C96 239.179 96.0003 238.018 96.0098 237.036C97.0796 125.906 186.906 36.0796 298.036 35.0098C299.018 35.0003 300.179 35 302.5 35Z" fill="#FFFCE8"/>
<path d="M928.99 0.0361328C929 1.01784 929 2.17883 929 4.5V837.5C929 839.821 929 840.982 928.99 841.964C927.92 953.094 838.094 1042.92 726.964 1043.99C725.982 1044 724.821 1044 722.5 1044C720.179 1044 719.018 1044 718.036 1043.99C606.906 1042.92 517.08 953.094 516.01 841.964C516 840.982 516 839.821 516 837.5V4.5C516 2.17883 516 1.01784 516.01 0.0361328C516.01 0.0240869 516.01 0.0120454 516.01 0H928.99C928.99 0.0120454 928.99 0.0240869 928.99 0.0361328Z" fill="#FFFCE8"/>
<path d="M113.054 0C113.672 2.90262 114 5.91302 114 9C114 32.7482 94.7482 52 71 52C47.2518 52 28 32.7482 28 9C28 5.91302 28.3281 2.90262 28.9463 0H113.054Z" fill="#FFFCE8"/>
<path d="M1055 1009C1078.75 1009 1098 1028.25 1098 1052C1098 1062.69 1094.09 1072.48 1087.63 1080H1022.37C1015.91 1072.48 1012 1062.69 1012 1052C1012 1028.25 1031.25 1009 1055 1009Z" fill="#FFFCE8"/>
<circle cx="30" cy="419" r="6" fill="#FFFCE8"/>
<circle cx="54" cy="419" r="6" fill="#FFFCE8"/>
<circle cx="30" cy="440" r="6" fill="#FFFCE8"/>
<circle cx="54" cy="440" r="6" fill="#FFFCE8"/>
<circle cx="30" cy="461" r="6" fill="#FFFCE8"/>
<circle cx="54" cy="461" r="6" fill="#FFFCE8"/>
<circle cx="30" cy="482" r="6" fill="#FFFCE8"/>
<circle cx="54" cy="482" r="6" fill="#FFFCE8"/>
<circle cx="30" cy="503" r="6" fill="#FFFCE8"/>
<circle cx="54" cy="503" r="6" fill="#FFFCE8"/>
<circle cx="30" cy="524" r="6" fill="#FFFCE8"/>
<circle cx="54" cy="524" r="6" fill="#FFFCE8"/>
<circle cx="30" cy="545" r="6" fill="#FFFCE8"/>
<circle cx="54" cy="545" r="6" fill="#FFFCE8"/>
<circle cx="30" cy="566" r="6" fill="#FFFCE8"/>
<circle cx="54" cy="566" r="6" fill="#FFFCE8"/>
<circle cx="30" cy="587" r="6" fill="#FFFCE8"/>
<circle cx="54" cy="587" r="6" fill="#FFFCE8"/>
<circle cx="30" cy="608" r="6" fill="#FFFCE8"/>
<circle cx="54" cy="608" r="6" fill="#FFFCE8"/>
<circle cx="30" cy="629" r="6" fill="#FFFCE8"/>
<circle cx="54" cy="629" r="6" fill="#FFFCE8"/>
<circle cx="30" cy="650" r="6" fill="#FFFCE8"/>
<circle cx="54" cy="650" r="6" fill="#FFFCE8"/>
<circle cx="30" cy="671" r="6" fill="#FFFCE8"/>
<circle cx="54" cy="671" r="6" fill="#FFFCE8"/>
<circle cx="30" cy="692" r="6" fill="#FFFCE8"/>
<circle cx="54" cy="692" r="6" fill="#FFFCE8"/>
<circle cx="1002" cy="69" r="5" fill="#FFFAD3"/>
<circle cx="1028" cy="69" r="5" fill="#FFFAD3"/>
<circle cx="1002" cy="87" r="5" fill="#FFFAD3"/>
<circle cx="1028" cy="87" r="5" fill="#FFFAD3"/>
<circle cx="1002" cy="106" r="5" fill="#FFFAD3"/>
<circle cx="1028" cy="106" r="5" fill="#FFFAD3"/>
<circle cx="1002" cy="124" r="5" fill="#FFFAD3"/>
<circle cx="1028" cy="124" r="5" fill="#FFFAD3"/>
<circle cx="1002" cy="142" r="5" fill="#FFFAD3"/>
<circle cx="1028" cy="142" r="5" fill="#FFFAD3"/>
<circle cx="1002" cy="160" r="5" fill="#FFFAD3"/>
<circle cx="1028" cy="160" r="5" fill="#FFFAD3"/>
<circle cx="1002" cy="179" r="5" fill="#FFFAD3"/>
<circle cx="1028" cy="179" r="5" fill="#FFFAD3"/>
<circle cx="1002" cy="197" r="5" fill="#FFFAD3"/>
<circle cx="1028" cy="197" r="5" fill="#FFFAD3"/>
<circle cx="1002" cy="215" r="5" fill="#FFFAD3"/>
<circle cx="1028" cy="215" r="5" fill="#FFFAD3"/>
<circle cx="1002" cy="233" r="5" fill="#FFFAD3"/>
<circle cx="1028" cy="233" r="5" fill="#FFFAD3"/>
<circle cx="1002" cy="252" r="5" fill="#FFFAD3"/>
<circle cx="1028" cy="252" r="5" fill="#FFFAD3"/>
<circle cx="1002" cy="270" r="5" fill="#FFFAD3"/>
<circle cx="1028" cy="270" r="5" fill="#FFFAD3"/>
<circle cx="1002" cy="288" r="5" fill="#FFFAD3"/>
<circle cx="1028" cy="288" r="5" fill="#FFFAD3"/>
<circle cx="1002" cy="306" r="5" fill="#FFFAD3"/>
<circle cx="1028" cy="306" r="5" fill="#FFFAD3"/>
</svg>
