<svg width="116" height="91" viewBox="0 0 116 91" fill="none" xmlns="http://www.w3.org/2000/svg">
<path d="M14.6 78.4733C15.9689 78.851 17.0289 79.5443 17.78 80.5533C18.5311 81.5623 18.9067 82.7957 18.9067 84.2533C18.9067 86.271 18.1822 87.8533 16.7333 89C15.2889 90.1423 13.3 90.7133 10.7667 90.7133H2.08667C1.43777 90.7133 0.9289 90.5333 0.56 90.1733C0.186666 89.8177 0 89.3133 0 88.66V69.0533C0 68.4043 0.186666 67.9 0.56 67.54C0.9289 67.18 1.43777 67 2.08667 67H10.4267C12.8933 67 14.8289 67.5443 16.2333 68.6333C17.6333 69.7223 18.3333 71.2423 18.3333 73.1933C18.3333 74.4467 18.0022 75.5333 17.34 76.4533C16.6778 77.3733 15.7644 78.0467 14.6 78.4733ZM4.24 70.3667V76.9933H9.72C12.7022 76.9933 14.1933 75.8823 14.1933 73.66C14.1933 72.54 13.8244 71.711 13.0867 71.1733C12.3444 70.6357 11.2222 70.3667 9.72 70.3667H4.24ZM10.2933 87.3533C11.8622 87.3533 13.0067 87.071 13.7267 86.5067C14.4422 85.9467 14.8 85.0733 14.8 83.8867C14.8 82.7 14.4356 81.8133 13.7067 81.2267C12.9778 80.6443 11.84 80.3533 10.2933 80.3533H4.24V87.3533H10.2933ZM35.5867 73.9333C36.2357 73.9333 36.751 74.111 37.1333 74.4667C37.5157 74.8267 37.7067 75.309 37.7067 75.9133V88.9667C37.7067 89.549 37.509 90.02 37.1133 90.38C36.7223 90.7357 36.2133 90.9133 35.5867 90.9133C34.9823 90.9133 34.5 90.7467 34.14 90.4133C33.78 90.0757 33.6 89.6157 33.6 89.0333V88.1933C33.0843 89.0867 32.389 89.7757 31.5133 90.26C30.6423 90.74 29.6557 90.98 28.5533 90.98C24.5177 90.98 22.5 88.7157 22.5 84.1867V75.9133C22.5 75.309 22.6911 74.8267 23.0733 74.4667C23.4557 74.111 23.96 73.9333 24.5867 73.9333C25.2357 73.9333 25.751 74.111 26.1333 74.4667C26.5157 74.8267 26.7067 75.309 26.7067 75.9133V84.22C26.7067 85.389 26.9423 86.2533 27.4133 86.8133C27.8843 87.3733 28.6243 87.6533 29.6333 87.6533C30.7977 87.6533 31.7333 87.2667 32.44 86.4933C33.1467 85.72 33.5 84.6933 33.5 83.4133V75.9133C33.5 75.309 33.691 74.8267 34.0733 74.4667C34.4557 74.111 34.96 73.9333 35.5867 73.9333ZM48.0267 90.98C45.5867 90.98 43.6157 90.4977 42.1133 89.5333C41.3933 89.111 41.0333 88.5067 41.0333 87.72C41.0333 87.271 41.1577 86.9067 41.4067 86.6267C41.651 86.3467 41.9533 86.2067 42.3133 86.2067C42.6957 86.2067 43.2223 86.3867 43.8933 86.7467C44.609 87.08 45.2643 87.3377 45.86 87.52C46.4557 87.6977 47.2133 87.7867 48.1333 87.7867C49.071 87.7867 49.8043 87.629 50.3333 87.3133C50.8623 87.0023 51.1267 86.5667 51.1267 86.0067C51.1267 85.6243 51.02 85.3223 50.8067 85.1C50.5933 84.8733 50.211 84.6643 49.66 84.4733C49.1133 84.2823 48.2777 84.0643 47.1533 83.82C45.1577 83.4157 43.729 82.8443 42.8667 82.1067C42.0043 81.3643 41.5733 80.3423 41.5733 79.04C41.5733 78.0533 41.8643 77.1623 42.4467 76.3667C43.029 75.571 43.831 74.9557 44.8533 74.52C45.871 74.0843 47.031 73.8667 48.3333 73.8667C49.2757 73.8667 50.1823 73.9843 51.0533 74.22C51.929 74.451 52.7157 74.791 53.4133 75.24C54.129 75.689 54.4867 76.2843 54.4867 77.0267C54.4867 77.4757 54.3643 77.851 54.12 78.1533C53.871 78.4557 53.5667 78.6067 53.2067 78.6067C52.9623 78.6067 52.7223 78.5557 52.4867 78.4533C52.251 78.351 51.9533 78.2 51.5933 78C50.9443 77.6623 50.3843 77.411 49.9133 77.2467C49.4423 77.0777 48.86 76.9933 48.1667 76.9933C47.3357 76.9933 46.68 77.16 46.2 77.4933C45.7157 77.831 45.4733 78.291 45.4733 78.8733C45.4733 79.4333 45.72 79.86 46.2133 80.1533C46.7067 80.4467 47.66 80.7377 49.0733 81.0267C50.5757 81.3423 51.7533 81.7023 52.6067 82.1067C53.4557 82.5067 54.0643 83.011 54.4333 83.62C54.8067 84.2243 54.9933 84.9977 54.9933 85.94C54.9933 87.4643 54.36 88.6867 53.0933 89.6067C51.8267 90.5223 50.1377 90.98 48.0267 90.98ZM67.5667 73.9333C68.1533 73.889 68.6133 74.011 68.9467 74.3C69.2843 74.5933 69.4533 75.031 69.4533 75.6133C69.4533 76.2177 69.3067 76.6667 69.0133 76.96C68.7243 77.249 68.1977 77.4377 67.4333 77.5267L66.4267 77.6333C65.1023 77.7667 64.1333 78.2133 63.52 78.9733C62.9023 79.7377 62.5933 80.691 62.5933 81.8333V88.9C62.5933 89.549 62.391 90.0467 61.9867 90.3933C61.5823 90.74 61.0777 90.9133 60.4733 90.9133C59.869 90.9133 59.371 90.74 58.98 90.3933C58.5843 90.0467 58.3867 89.549 58.3867 88.9V75.88C58.3867 75.2533 58.5843 74.771 58.98 74.4333C59.371 74.1 59.8577 73.9333 60.44 73.9333C61.0223 73.9333 61.4933 74.0957 61.8533 74.42C62.2133 74.7443 62.3933 75.209 62.3933 75.8133V77.16C62.8157 76.1733 63.449 75.411 64.2933 74.8733C65.1333 74.3357 66.069 74.0333 67.1 73.9667L67.5667 73.9333ZM78.4333 90.98C76.7533 90.98 75.28 90.6333 74.0133 89.94C72.7467 89.2467 71.7643 88.249 71.0667 86.9467C70.3733 85.6443 70.0267 84.131 70.0267 82.4067C70.0267 80.6777 70.3733 79.169 71.0667 77.88C71.7643 76.591 72.7467 75.6 74.0133 74.9067C75.28 74.2133 76.7533 73.8667 78.4333 73.8667C80.1133 73.8667 81.5867 74.2133 82.8533 74.9067C84.12 75.6 85.0957 76.591 85.78 77.88C86.4643 79.169 86.8067 80.6777 86.8067 82.4067C86.8067 84.131 86.4643 85.6443 85.78 86.9467C85.0957 88.249 84.12 89.2467 82.8533 89.94C81.5867 90.6333 80.1133 90.98 78.4333 90.98ZM78.4 87.72C79.769 87.72 80.811 87.271 81.5267 86.3733C82.2467 85.4757 82.6067 84.1533 82.6067 82.4067C82.6067 80.6777 82.2467 79.36 81.5267 78.4533C80.811 77.5467 79.78 77.0933 78.4333 77.0933C77.0867 77.0933 76.049 77.5467 75.32 78.4533C74.591 79.36 74.2267 80.6777 74.2267 82.4067C74.2267 84.1533 74.5867 85.4757 75.3067 86.3733C76.0223 87.271 77.0533 87.72 78.4 87.72ZM109.813 73.8667C111.604 73.8667 112.978 74.3977 113.933 75.46C114.884 76.5267 115.36 78.249 115.36 80.6267V88.9C115.36 89.549 115.164 90.0467 114.773 90.3933C114.382 90.74 113.871 90.9133 113.24 90.9133C112.636 90.9133 112.138 90.74 111.747 90.3933C111.356 90.0467 111.16 89.549 111.16 88.9V80.6267C111.16 79.391 110.94 78.511 110.5 77.9867C110.064 77.4577 109.398 77.1933 108.5 77.1933C107.402 77.1933 106.529 77.569 105.88 78.32C105.227 79.071 104.9 80.0977 104.9 81.4V88.9C104.9 89.549 104.704 90.0467 104.313 90.3933C103.922 90.74 103.422 90.9133 102.813 90.9133C102.209 90.9133 101.704 90.74 101.3 90.3933C100.9 90.0467 100.7 89.549 100.7 88.9V80.6267C100.7 79.391 100.48 78.511 100.04 77.9867C99.6043 77.4577 98.9377 77.1933 98.04 77.1933C96.9423 77.1933 96.0733 77.569 95.4333 78.32C94.7933 79.071 94.4733 80.0977 94.4733 81.4V88.9C94.4733 89.549 94.2733 90.0467 93.8733 90.3933C93.469 90.74 92.9643 90.9133 92.36 90.9133C91.751 90.9133 91.251 90.74 90.86 90.3933C90.469 90.0467 90.2733 89.549 90.2733 88.9V75.88C90.2733 75.2533 90.4757 74.771 90.88 74.4333C91.28 74.1 91.7843 73.9333 92.3933 73.9333C92.9757 73.9333 93.451 74.0957 93.82 74.42C94.189 74.7443 94.3733 75.209 94.3733 75.8133V76.62C94.889 75.7223 95.5777 75.0377 96.44 74.5667C97.3067 74.1 98.3 73.8667 99.42 73.8667C101.887 73.8667 103.536 74.8977 104.367 76.96C104.86 76.0177 105.587 75.2667 106.547 74.7067C107.511 74.1467 108.6 73.8667 109.813 73.8667Z" fill="#333333"/>
<path fill-rule="evenodd" clip-rule="evenodd" d="M58.1367 0L88.2667 13.5867V16.8467L58.1367 3.26L28 16.8467V13.5867L58.1367 0Z" fill="#333333"/>
<path fill-rule="evenodd" clip-rule="evenodd" d="M57.077 40.44V32.2267C57.1777 32.0563 57.321 31.915 57.4927 31.817C57.6643 31.7187 57.859 31.667 58.0567 31.6667C58.8763 31.6667 59.583 33.0867 61.7753 33.0867C62.9917 33.041 64.143 32.5253 64.9873 31.6483C65.8317 30.7713 66.3037 29.601 66.3037 28.3833C66.3037 27.1657 65.8317 25.9955 64.9873 25.1184C64.143 24.2414 62.9917 23.7258 61.7753 23.68C59.583 23.68 58.8763 25.1 58.0567 25.1C57.859 25.0998 57.6643 25.048 57.4927 24.9498C57.321 24.8516 57.1777 24.7104 57.077 24.54V5.53333L32.9717 16.3267V40.44H39.6693C39.2487 39.6433 39.0333 38.7543 39.043 37.8533C39.043 36.262 39.675 34.736 40.7997 33.6107C41.9247 32.4853 43.4503 31.8533 45.041 31.8533C46.6317 31.8533 48.1573 32.4853 49.2823 33.6107C50.407 34.736 51.039 36.262 51.039 37.8533C51.0487 38.7543 50.8333 39.6433 50.4127 40.44H57.077Z" fill="#F73550"/>
<path fill-rule="evenodd" clip-rule="evenodd" d="M59.1963 5.4V23.0267C59.9903 22.6058 60.877 22.3904 61.7753 22.4C62.5983 22.3385 63.4253 22.4476 64.2043 22.7204C64.9833 22.9932 65.6977 23.4239 66.3023 23.9855C66.9073 24.5471 67.39 25.2276 67.72 25.9843C68.05 26.741 68.2203 27.5577 68.2203 28.3833C68.2203 29.2089 68.05 30.0256 67.72 30.7823C67.39 31.539 66.9073 32.2197 66.3023 32.781C65.6977 33.3427 64.9833 33.7733 64.2043 34.0463C63.4253 34.319 62.5983 34.428 61.7753 34.3667C60.877 34.3763 59.9903 34.161 59.1963 33.74V40.4067H67.407C67.5863 40.507 67.7353 40.6543 67.8373 40.833C67.9393 41.0113 67.991 41.2143 67.9867 41.42C67.9867 42.24 66.5673 42.9467 66.5673 45.14C66.613 46.3567 67.1283 47.5083 68.005 48.353C68.882 49.1977 70.0517 49.6697 71.269 49.6697C72.4863 49.6697 73.656 49.1977 74.5327 48.353C75.4097 47.5083 75.925 46.3567 75.9707 45.14C75.9707 42.9467 74.558 42.24 74.558 41.42C74.5567 41.2227 74.6073 41.0283 74.7043 40.8563C74.8013 40.6847 74.9413 40.541 75.111 40.44H83.315V16.3267L59.1963 5.4Z" fill="#FBB90E"/>
<path fill-rule="evenodd" clip-rule="evenodd" d="M83.315 42.56H76.6507C77.0713 43.3543 77.2867 44.2413 77.277 45.14C77.277 46.7313 76.645 48.2573 75.5203 49.3827C74.3953 50.508 72.8697 51.14 71.279 51.14C69.6883 51.14 68.1627 50.508 67.0377 49.3827C65.913 48.2573 65.281 46.7313 65.281 45.14C65.284 44.2377 65.513 43.3507 65.9473 42.56H59.283V50.7733C59.1813 50.9423 59.038 51.0823 58.866 51.1793C58.6943 51.2763 58.5003 51.327 58.3033 51.3267C57.477 51.3267 56.7703 49.9067 54.578 49.9067C53.3613 49.9523 52.2103 50.468 51.366 51.345C50.5217 52.222 50.0497 53.3923 50.0497 54.61C50.0497 55.8277 50.5217 56.998 51.366 57.875C52.2103 58.752 53.3613 59.2677 54.578 59.3133C56.7703 59.3133 57.477 57.9 58.3033 57.9C58.5003 57.8997 58.6943 57.9503 58.866 58.0473C59.038 58.1443 59.1813 58.2843 59.283 58.4533V66.6667H83.315V42.56Z" fill="#98CA33"/>
<path fill-rule="evenodd" clip-rule="evenodd" d="M57.077 66.6667V60C56.2807 60.421 55.392 60.6363 54.4913 60.6267C52.9003 60.6267 51.3747 59.9947 50.25 58.8693C49.125 57.744 48.4933 56.218 48.4933 54.6267C48.4933 53.0353 49.125 51.5093 50.25 50.384C51.3747 49.2587 52.9003 48.6267 54.4913 48.6267C55.3953 48.6297 56.2843 48.8587 57.077 49.2933V42.6267H48.8663C48.6967 42.5253 48.5557 42.382 48.4577 42.2103C48.3597 42.0387 48.3073 41.8443 48.3067 41.6467C48.3067 40.82 49.726 40.1133 49.726 37.92C49.6803 36.7033 49.165 35.5517 48.2883 34.707C47.4113 33.8623 46.2417 33.3903 45.0243 33.3903C43.807 33.3903 42.6373 33.8623 41.7607 34.707C40.8837 35.5517 40.3683 36.7033 40.3227 37.92C40.3227 40.1133 41.742 40.82 41.742 41.6467C41.7413 41.8443 41.6893 42.0387 41.591 42.2103C41.493 42.382 41.3523 42.5253 41.1823 42.6267H32.9717V66.6667H57.077Z" fill="#65A8DC"/>
</svg>
